<svg id="Layer_2" data-name="Layer 2" xmlns="http://www.w3.org/2000/svg" width="900.66" height="960.51" viewBox="0 0 900.66 960.51">
  <defs>
    <style>
      .cls-1 {
        fill: none;
        stroke: #000;
        stroke-miterlimit: 10;
        stroke-width: 4px;
      }
    </style>
  </defs>
  <g>
    <path class="cls-1" d="M25.25,591.73c63.74-5.22,118.55-8.66,162-11,63.28-3.41,140.4-5,182-5,17,0,18-1,36-1,23,0,42.6-2.4,49,4,8,8,2,15,3,42" transform="translate(-25.09 -59.74)"/>
    <path class="cls-1" d="M372.75,574.23a208,208,0,0,1-26-14,199.92,199.92,0,0,1-36-29c-8.47-8.73-17.79-18.35-26-34a128.27,128.27,0,0,1-13-40c-1.45-8.71-3.26-20.23-1-35,1.65-10.78,3.27-21.36,12-30a36.27,36.27,0,0,1,19-10c8.46-1.44,15.87.76,31,8a363.24,363.24,0,0,1,33,18c10.38,6.23,25.58,12.82,56,26,20.3,8.79,33.26,14.41,52,21,14.46,5.08,13.54,4.13,34,11,28.16,9.45,42.24,14.18,55,20,6.84,3.12,24.73,11.57,42,17,9.67,3,14.64,3.71,20,3,7.45-1,10.89-4,14-2,4.53,2.92,2.85,12.92,2,18a48.28,48.28,0,0,1-12,24c-3.6,3.9-7,7.51-11,7-1.85-.24-2.93-1.26-9-8-7.31-8.12-8.4-9.6-11-11-4.68-2.52-9.35-2.17-12-2-17.59,1.14-44.46,1.07-71,1-26-.07-24.92,0-36,0-5,0-10.14,0-17-4-4.24-2.5-9.4-7.24-11-10-1.17-2-5.59-8.38-3-19,2.1-8.63,8.56-14.26,14-19,6.84-6,11-6.79,13-12,1.95-5,.55-10.24-1-14" transform="translate(-25.09 -59.74)"/>
    <path class="cls-1" d="M292.75,456.23a76.51,76.51,0,0,0,6,11c1.63,2.48,5.45,8,14,16a133.32,133.32,0,0,0,25,19c7.95,4.65,17.46,10.21,31,13,5,1,11.65,1.35,25,2,10.6.51,13.86.33,26,1,16.29.89,20.41,1.77,25,4,2.93,1.42,8.91,4.42,13,11,2.42,3.9,3.11,7.34,4,12,1.87,9.83.18,13.88,1,24,.55,6.79,1.8,11,3,16,4.49,18.73,3.29,27.88,8,59,.85,5.6,3.9,22.06,10,55,2,10.68,3,15.86,4,24,1.59,12.47,1.12,14.83,3,24,1.71,8.33,2.9,10.27,4,18a111,111,0,0,1,1,17c0,12.82.71,7.65,2,40,.7,17.62,1.05,26.43,1,35-.05,7.66.13,15.33,0,23-.22,12.47-.62,15.27,1,20,.71,2.08,4.48,13.07,14,17,10.81,4.46,17.31-5,31-1a32.58,32.58,0,0,1,15,10c7.69,8.57,8.8,18.35,10,29,1,8.73,2.26,20-3,33a57.33,57.33,0,0,1-15,21c-5.43,4.78-9.8,8.63-16,9-8.69.51-15.25-6.14-22-13a65.89,65.89,0,0,1-18-32c-1.64-7.31-1.42-13.21-1-25,.74-20.47.54-24.65,3-29,1-1.7,5.81-9.88,15-13,3.4-1.16,7.32-1.12,15-1,14.53.23,17,2,19,0,4-3.87-2.78-12.68-7-33-2.28-11-2.65-19.7-3-28a228.29,228.29,0,0,1,1-32c.29-3.21,1.33-14,4-28,1.8-9.44.23-16,4-18,3.47-1.87-.16-1.08,3-2,7.65-2.24,8-27,9-62,.68-23.77.75-16.77,0-78-.3-24.52-.71-35.45-3-50a253.58,253.58,0,0,0-10-41" transform="translate(-25.09 -59.74)"/>
    <line class="cls-1" x1="469.66" y1="705.48" x2="520.66" y2="706.48"/>
    <path class="cls-1" d="M641.75,511.23c3.55,0,8.74-.08,15,0,21,.25,34.49,1.46,40,2,14.85,1.45,23.72,3.17,33,8,5,2.57,6.76,4.34,8,6,7.66,10.26.94,26.37-1,31-1.62,3.87-7.51,17.64-22,25-6.75,3.43-14.17,3.95-29,5a198.08,198.08,0,0,1-26,0c-24.36-1.24-30.83-4.74-33-6-3.54-2.07-10.84-6.46-12-14-.57-3.72.24-8.84,3-10,4.48-1.89,11.92,7.62,13,9a30.15,30.15,0,0,1,6,12c1.45,6.18.22,10.36-1,18a196.67,196.67,0,0,0-2,22c-.47,15,5.32,20.37,10,38,2.39,9,3,18.11,4,36a659,659,0,0,1,0,74" transform="translate(-25.09 -59.74)"/>
    <path class="cls-1" d="M924.75,558.23a155.5,155.5,0,0,1-16,8,163.59,163.59,0,0,1-33,10c-29.89,6.23-55.29,8.83-57,9-5.72.57-23.53,2.2-61,3-18.51.39-43,.61-72,0" transform="translate(-25.09 -59.74)"/>
    <path class="cls-1" d="M309.75,289.23v37.91s118,15.09,139,5.09v-198l-136-3.4v77.4" transform="translate(-25.09 -59.74)"/>
    <path class="cls-1" d="M448.75,143.23a30,30,0,0,1,10-12,30.47,30.47,0,0,1,15-5c17.58-1.59,37.33.25,48,1,17.67,1.24,35.3,4.69,53,4,3.54-.14,12.89-.64,17,5a11.65,11.65,0,0,1,2,7l1,67" transform="translate(-25.09 -59.74)"/>
    <path class="cls-1" d="M448.75,332.23s22,9,140-3c11.43-43.91,9-56.5,4-59-11.48-5.69-51.27,33.52-65,81-5.82,20.13-6.73,41-8,70-.88,20.14-.53,37,0,49" transform="translate(-25.09 -59.74)"/>
    <path class="cls-1" d="M457.75,334.23a67.88,67.88,0,0,0,4-16c.44-3.59.64-7.58,0-18-.41-6.72-.8-13-2-22-3-22.55-9.24-48-11-55" transform="translate(-25.09 -59.74)"/>
    <path class="cls-1" d="M375.75,414.23c.82-8-1.74-20.94-3-26-4-16-4.31-20.3-13-40-3-6.84-11.33-15-13-15-1.4,0-.57,11.39-4,23s-6.7,17-8,19c-2.19,3.43-7.66,12-11,11s-2-11.06-3-24a124,124,0,0,0-8-35" transform="translate(-25.09 -59.74)"/>
    <path class="cls-1" d="M300.75,240.23" transform="translate(-25.09 -59.74)"/>
    <path class="cls-1" d="M304.75,224.23" transform="translate(-25.09 -59.74)"/>
    <path class="cls-1" d="M279.75,395.23a86.18,86.18,0,0,1-3-12,95.29,95.29,0,0,1-1-23,148.84,148.84,0,0,1,3-22c2.3-11,3.61-11.59,5-20a91.1,91.1,0,0,0,1-22c-1.17-13.92-5-14.1-7-29-1.84-13.6.05-23,1-27,1.25-5.17,2.6-10.54,7-16a34.12,34.12,0,0,1,14-10c4.75-1.83,9.13-3.52,13-2,9.58,3.76,9.06,24.49,9,27-.51,20.37-12.35,35.9-17,42-2,2.59-3.76,4.63-5,6" transform="translate(-25.09 -59.74)"/>
    <path class="cls-1" d="M392.75,133.23a65.42,65.42,0,0,1,2-23,69.77,69.77,0,0,1,14-26,62.28,62.28,0,0,1,16-14c13-7.77,28.81-10.46,35-7a17.55,17.55,0,0,0,5,2,19.72,19.72,0,0,0,8,0c7.65-1,16.41,10.78,18,13,8.71,12.14,4.3,19.17,11,31,2.94,5.18,8.49,12.13,20,18" transform="translate(-25.09 -59.74)"/>
    <path class="cls-1" d="M414.75,132.23a35,35,0,0,1,6-10,28.54,28.54,0,0,1,10-8c6.55-3,12.58-2.37,16-2a34.77,34.77,0,0,1,13,4,32.93,32.93,0,0,1,11,10" transform="translate(-25.09 -59.74)"/>
    <path class="cls-1" d="M446.75,112.23a25.34,25.34,0,0,1-3-9c-2.63-20.24,21.6-36.11,23-37" transform="translate(-25.09 -59.74)"/>
    <path class="cls-1" d="M531.75,339.23c2.26,3.47,5.47,8.6,9,15,4,7.33,6.22,12.16,12,25,18.09,40.16,18.39,40.71,19,44,1.09,5.87,1.37,10.27,5,15,4.7,6.13,13.36,9.66,21,9,15.44-1.33,23.94-19.47,27-26,5.8-12.37,5.87-23.3,6-41,.14-19.43-2.54-31-3-31s4.29,18-5,31c-1.22,1.72-6.81,9.72-15,10-10.84.36-19.2-13-22-22-2.15-6.87-1.62-13-1-20a81.62,81.62,0,0,1,4-19" transform="translate(-25.09 -59.74)"/>
    <path class="cls-1" d="M569.75,416.23a140.15,140.15,0,0,1,2-18,164.42,164.42,0,0,1,5-20c1.82-6.1,4.4-14,8-23" transform="translate(-25.09 -59.74)"/>
    <path class="cls-1" d="M587.75,263.23c-1.79-.82-21.51-10.87-25-25-2.06-8.37-1.37-19.51,7-25,10-6.57,24.45,2.08,31,6,3.46,2.07,17,14,18,21,1.31,9.14,3.19,15.43,4,22,1.07,8.7,2,13.51,2,22,0,18.61-.84,19.06-1,22-.53,9.5-.3,29.49-1,74" transform="translate(-25.09 -59.74)"/>
    <path class="cls-1" d="M473.75,455.23a104.26,104.26,0,0,1-13-36c-2.32-14.76-.22-23.71-2-50-.6-8.87-1.4-16.15-2-21" transform="translate(-25.09 -59.74)"/>
    <path class="cls-1" d="M451.75,447.23c12.85-6.9,15.91-12.72,16-17,.07-3.35-1.67-6.16,0-10,1.76-4,6.33-7,8-6s1,5.8,0,6c-1.61.31-6.53-10.65-6-22,.05-1.13.71-13.2,5-14,2.19-.41,5.15,1.63,5,3-.14,1.22-2.87,2.52-5,2-4.63-1.13-8.15-11.24-6-19,.75-2.69,1.92-4.2,3-9a44.52,44.52,0,0,0,1-7" transform="translate(-25.09 -59.74)"/>
  </g>
</svg>
