<svg xmlns="http://www.w3.org/2000/svg" width="70" height="70" viewBox="0 0 70 70">
  <defs>
    <style>
      .cls-1 {
        fill: #25b527;
      }

      .cls-2 {
        fill: #ccff9c;
      }

      .cls-3 {
        fill: #603901;
      }
    </style>
  </defs>
  <g id="Layer_3" data-name="Layer 3">
    <g>
      <path d="M33.68,11.81A23.22,23.22,0,0,1,40.84,8.6a13.87,13.87,0,0,1,5.53-.49,11.88,11.88,0,0,1,9.51,7.19c1.52,3.23,1.45,6.32,1.23,12.35-.12,3.48-.43,6.14-.61,7.48a47.46,47.46,0,0,1-2.3,10.6,26.07,26.07,0,0,1-3,6.31,23,23,0,0,1-6.79,6.63,20.69,20.69,0,0,1-8,3.09A21,21,0,0,1,24.9,60.17a19.15,19.15,0,0,1-7.68-5.26,19.36,19.36,0,0,1-4.35-11.1,23.85,23.85,0,0,1,2.65-13.08c1.24-2.52,4-5.44,9.54-11.29C28.9,15.39,31,13.53,33.68,11.81Z"/>
      <path class="cls-1" d="M28.18,18.19c.82-.66,1.94-1.52,3.28-2.48,1-.72,2.39-1.71,4.17-2.79a24,24,0,0,1,5.87-3A10.88,10.88,0,0,1,47,9.46a9.19,9.19,0,0,1,7.09,6.44c.45,1.45.26,3.36-.15,7.12-.3,2.79-.64,5-.85,6.18-.48,2.84-1,5-1.32,6.54A55.12,55.12,0,0,1,50,42.63a27.6,27.6,0,0,1-3.91,7,21.23,21.23,0,0,1-3.92,4.07,17.25,17.25,0,0,1-5.46,3,17.82,17.82,0,0,1-6.41.8,16.78,16.78,0,0,1-6.95-1.39A13.71,13.71,0,0,1,18,52.08,14.93,14.93,0,0,1,15.23,45a22,22,0,0,1,.43-9.18,26.4,26.4,0,0,1,4.61-9A43.85,43.85,0,0,1,28.18,18.19Z"/>
      <path class="cls-2" d="M35.28,15.4a17.32,17.32,0,0,1,6.34-3.33c1.68-.44,3.58-1,5.48-.08,2.67,1.22,3.51,4.33,3.85,5.57s.46,2.4-.15,7.12A61.44,61.44,0,0,1,49,34.52a51.2,51.2,0,0,1-3.31,8.78c-1.7,3.47-2.55,5.2-4.32,7a16.31,16.31,0,0,1-9,4.63,14.48,14.48,0,0,1-8.66-1.2A14,14,0,0,1,16.77,46c-1.38-4-.32-7.42.6-10.42a28.06,28.06,0,0,1,5.54-9.73C24.82,23.48,28.31,20.78,35.28,15.4Z"/>
      <path class="cls-3" d="M31.34,28.71a7.38,7.38,0,0,1,4.59.22,6.73,6.73,0,0,1,3,2.51A8.23,8.23,0,0,1,39.86,37a11.93,11.93,0,0,1-2,5.6,8.52,8.52,0,0,1-4.28,3.61,7.92,7.92,0,0,1-5.83-.38,8.08,8.08,0,0,1-4-4.75,9.56,9.56,0,0,1,1.08-7.84A10.85,10.85,0,0,1,31.34,28.71Z"/>
    </g>
  </g>
</svg>
