<svg xmlns="http://www.w3.org/2000/svg" xmlns:xlink="http://www.w3.org/1999/xlink" width="1920" height="1080" viewBox="0 0 1920 1080">
  <defs>
    <style>
      .cls-1 {
        opacity: 0.9;
      }

      .cls-2 {
        fill: url(#linear-gradient);
      }

      .cls-3 {
        fill: #326f00;
      }

      .cls-12, .cls-15, .cls-16, .cls-4 {
        fill: #329700;
      }

      .cls-5 {
        opacity: 0.46;
      }

      .cls-6 {
        opacity: 0.87;
      }

      .cls-7 {
        fill: #aeffff;
      }

      .cls-8 {
        fill: #ecffff;
      }

      .cls-9 {
        opacity: 0.69;
      }

      .cls-10 {
        opacity: 0.82;
      }

      .cls-11 {
        opacity: 0.55;
      }

      .cls-12 {
        opacity: 0.85;
      }

      .cls-13 {
        fill: #6a3800;
      }

      .cls-14 {
        fill: #78c900;
      }

      .cls-15 {
        opacity: 0.38;
      }

      .cls-16 {
        opacity: 0.66;
      }

      .cls-17, .cls-18 {
        fill: #fff;
      }

      .cls-17 {
        opacity: 0.16;
      }

      .cls-18 {
        opacity: 0.44;
      }

      .cls-19 {
        opacity: 0.74;
      }

      .cls-20 {
        opacity: 0.21;
      }

      .cls-21 {
        opacity: 0.64;
      }

      .cls-22 {
        opacity: 0.15;
      }

      .cls-23 {
        opacity: 0.14;
      }

      .cls-24 {
        opacity: 0.96;
      }

      .cls-25 {
        fill: #25b527;
      }
    </style>
    <linearGradient id="linear-gradient" x1="451.86" y1="-137.73" x2="453.95" y2="945.96" gradientTransform="translate(507.09 135.88)" gradientUnits="userSpaceOnUse">
      <stop offset="0" stop-color="#fff"/>
      <stop offset="0.04" stop-color="#fafffe"/>
      <stop offset="0.08" stop-color="#ebfefa"/>
      <stop offset="0.13" stop-color="#d2fdf4"/>
      <stop offset="0.14" stop-color="#cefdf3"/>
      <stop offset="0.17" stop-color="#cffdf3"/>
      <stop offset="0.33" stop-color="#dafef6"/>
      <stop offset="0.37" stop-color="#d2fdf2"/>
      <stop offset="0.43" stop-color="#bafbe7"/>
      <stop offset="0.51" stop-color="#96f8d6"/>
      <stop offset="0.53" stop-color="#96f5c5"/>
      <stop offset="0.56" stop-color="#97eea5"/>
      <stop offset="0.64" stop-color="#97ec99"/>
      <stop offset="0.66" stop-color="#8eea90"/>
      <stop offset="0.71" stop-color="#76e478"/>
      <stop offset="0.76" stop-color="#4fdb51"/>
      <stop offset="0.77" stop-color="#48d94a"/>
      <stop offset="0.82" stop-color="#3abc3b"/>
      <stop offset="0.94" stop-color="#157315"/>
      <stop offset="1" stop-color="#004a00"/>
    </linearGradient>
  </defs>
  <g id="Layer_3" data-name="Layer 3">
    <g>
      <g class="cls-1">
        <rect class="cls-2" width="1920" height="1080"/>
      </g>
      <g>
        <g>
          <path class="cls-3" d="M384.75,1093.41c17,3.25,32.31-1.78,34.11-11.23l-61.69-11.76C355.37,1079.87,367.72,1090.17,384.75,1093.41Z"/>
          <path class="cls-4" d="M391.28,1059.18c17,3.25,29.38,13.54,27.58,23l-61.69-11.76C359,1061,374.24,1055.93,391.28,1059.18Z"/>
        </g>
        <g>
          <path class="cls-3" d="M395.18,1068.83c.73,17.33,9.12,31,18.73,30.64l-2.65-62.75C401.65,1037.13,394.45,1051.5,395.18,1068.83Z"/>
          <path class="cls-4" d="M430,1067.36c.73,17.33-6.47,31.7-16.09,32.11l-2.65-62.75C420.88,1036.32,429.26,1050,430,1067.36Z"/>
        </g>
        <g>
          <path class="cls-3" d="M426.22,1070.76c5,7,12.32,10.49,16.23,7.69l-18.29-25.52C420.25,1055.73,421.17,1063.71,426.22,1070.76Z"/>
          <path class="cls-4" d="M440.38,1060.61c5.05,7.05,6,15,2.07,17.84l-18.29-25.52C428.07,1050.12,435.33,1053.56,440.38,1060.61Z"/>
        </g>
        <g>
          <path class="cls-3" d="M433.59,1052c-2.66,8.25-1.1,16.14,3.48,17.61l9.63-29.88C442.12,1038.24,436.25,1043.73,433.59,1052Z"/>
          <path class="cls-4" d="M450.18,1057.33c-2.66,8.26-8.53,13.75-13.11,12.27l9.63-29.88C451.28,1041.19,452.84,1049.08,450.18,1057.33Z"/>
        </g>
      </g>
      <g>
        <g>
          <path class="cls-3" d="M867.36,966.51c22.76,27.5,53.58,39.56,68.84,26.93l-82.43-99.59C838.51,906.48,844.6,939,867.36,966.51Z"/>
          <path class="cls-4" d="M922.62,920.77c22.76,27.5,28.84,60,13.58,72.67l-82.43-99.59C869,881.22,899.86,893.27,922.62,920.77Z"/>
        </g>
        <g>
          <path class="cls-3" d="M916.15,941.2c-21.57,28.44-26.27,61.2-10.49,73.17l78.12-103C968,899.4,937.72,912.76,916.15,941.2Z"/>
          <path class="cls-4" d="M973.3,984.55c-21.57,28.44-51.85,41.79-67.64,29.82l78.12-103C999.57,923.34,994.87,956.1,973.3,984.55Z"/>
        </g>
        <g>
          <path class="cls-3" d="M962.85,985c-1.24,17.81,5.77,32.8,15.65,33.48L983,954C973.1,953.31,964.08,967.18,962.85,985Z"/>
          <path class="cls-4" d="M998.63,987.47c-1.24,17.81-10.25,31.69-20.13,31L983,954C992.86,954.68,999.86,969.67,998.63,987.47Z"/>
        </g>
        <g>
          <path class="cls-3" d="M999.17,964.88c-15,9.6-22.92,24.15-17.6,32.5l54.49-34.76C1030.74,954.27,1014.22,955.28,999.17,964.88Z"/>
          <path class="cls-4" d="M1018.47,995.12c-15.05,9.6-31.57,10.61-36.9,2.26l54.49-34.76C1041.39,971,1033.51,985.52,1018.47,995.12Z"/>
        </g>
      </g>
      <g class="cls-5">
        <g>
          <path class="cls-3" d="M366.33,899.77c11.2,2.76,21.52,0,23.05-6.25l-40.55-10C347.3,889.73,355.13,897,366.33,899.77Z"/>
          <path class="cls-4" d="M371.89,877.27c11.19,2.76,19,10,17.49,16.25l-40.55-10C350.37,877.3,360.69,874.5,371.89,877.27Z"/>
        </g>
        <g>
          <path class="cls-3" d="M374.13,883.82c-.13,11.53,4.95,20.94,11.35,21l.48-41.76C379.56,863,374.26,872.28,374.13,883.82Z"/>
          <path class="cls-4" d="M397.31,884.08c-.13,11.53-5.43,20.82-11.83,20.75l.48-41.76C392.36,863.14,397.44,872.55,397.31,884.08Z"/>
        </g>
        <g>
          <path class="cls-3" d="M394.68,886.21c3.1,4.86,7.8,7.4,10.5,5.68l-11.24-17.6C391.25,876,391.58,881.35,394.68,886.21Z"/>
          <path class="cls-4" d="M404.45,880c3.1,4.86,3.43,10.2.73,11.92l-11.24-17.6C396.64,872.57,401.34,875.11,404.45,880Z"/>
        </g>
        <g>
          <path class="cls-3" d="M400.24,874c-2.06,5.39-1.3,10.68,1.68,11.82l7.47-19.5C406.4,865.18,402.31,868.62,400.24,874Z"/>
          <path class="cls-4" d="M411.07,878.14c-2.06,5.39-6.16,8.83-9.15,7.68l7.47-19.5C412.38,867.46,413.13,872.76,411.07,878.14Z"/>
        </g>
      </g>
      <g class="cls-6">
        <path class="cls-7" d="M1776.67,405.23a13.29,13.29,0,0,1-20.84,10.94,21,21,0,0,1-25.12,1.65,26.76,26.76,0,0,1-19.61,2.57,20.46,20.46,0,1,1-18.56-35.05,26.74,26.74,0,0,1,47.11-6.09,19.05,19.05,0,0,1,2.52-.16,21.06,21.06,0,0,1,19.44,13,14.76,14.76,0,0,1,1.77-.11A13.29,13.29,0,0,1,1776.67,405.23Z"/>
        <path class="cls-8" d="M1781.53,404.32a13.29,13.29,0,0,1-13.29,13.29,13.14,13.14,0,0,1-7.54-2.35,21.06,21.06,0,0,1-25.13,1.65,26.76,26.76,0,0,1-19.61,2.57,20.46,20.46,0,1,1-18.55-35.05,26.73,26.73,0,0,1,47.1-6.09,19.16,19.16,0,0,1,2.52-.16,21.08,21.08,0,0,1,19.45,13,14.46,14.46,0,0,1,1.76-.11A13.29,13.29,0,0,1,1781.53,404.32Z"/>
      </g>
      <g class="cls-9">
        <path class="cls-7" d="M190.78,284.78a13.3,13.3,0,0,1-20.84,11,21.06,21.06,0,0,1-25.12,1.64,26.59,26.59,0,0,1-13,3.39,26.89,26.89,0,0,1-6.58-.81,20.47,20.47,0,1,1-18.56-35.06,26.75,26.75,0,0,1,47.11-6.09,20.8,20.8,0,0,1,2.52-.15,21,21,0,0,1,19.44,13,12.94,12.94,0,0,1,1.77-.12A13.29,13.29,0,0,1,190.78,284.78Z"/>
        <path class="cls-8" d="M195.64,283.87a13.3,13.3,0,0,1-20.84,10.95,21.06,21.06,0,0,1-25.12,1.64,26.56,26.56,0,0,1-13,3.39,27,27,0,0,1-6.58-.81A20.46,20.46,0,1,1,111.52,264a26.74,26.74,0,0,1,47.1-6.09,21.08,21.08,0,0,1,22,12.81,12.94,12.94,0,0,1,1.77-.12A13.29,13.29,0,0,1,195.64,283.87Z"/>
      </g>
      <g class="cls-10">
        <path class="cls-7" d="M1850.85,424.4A13.29,13.29,0,0,1,1830,435.34a21,21,0,0,1-25.12,1.65,26.76,26.76,0,0,1-19.61,2.57,20.46,20.46,0,1,1-18.56-35.05,26.75,26.75,0,0,1,47.11-6.1,21.08,21.08,0,0,1,22,12.81,12.94,12.94,0,0,1,1.77-.12A13.29,13.29,0,0,1,1850.85,424.4Z"/>
        <path class="cls-8" d="M1855.71,423.49a13.29,13.29,0,0,1-20.83,10.94,21.06,21.06,0,0,1-25.13,1.65,26.56,26.56,0,0,1-13,3.39,27,27,0,0,1-6.58-.82,20.46,20.46,0,1,1-18.55-35,26.74,26.74,0,0,1,47.1-6.1,21.08,21.08,0,0,1,22,12.81,12.94,12.94,0,0,1,1.77-.12A13.29,13.29,0,0,1,1855.71,423.49Z"/>
      </g>
      <g>
        <path class="cls-7" d="M1486.38,155.32a38.39,38.39,0,0,1-60.18,31.62,60.83,60.83,0,0,1-72.56,4.75,76.79,76.79,0,0,1-37.65,9.79,77.6,77.6,0,0,1-19-2.35,59.1,59.1,0,1,1-53.6-101.25,77.24,77.24,0,0,1,136-17.61,60.82,60.82,0,0,1,63.45,37,37.09,37.09,0,0,1,5.09-.34A38.39,38.39,0,0,1,1486.38,155.32Z"/>
        <path class="cls-8" d="M1500.42,152.7a38.39,38.39,0,0,1-60.18,31.61,60.83,60.83,0,0,1-72.56,4.75,76.79,76.79,0,0,1-37.65,9.79,77.6,77.6,0,0,1-19-2.35,59.1,59.1,0,1,1-53.6-101.24,77.23,77.23,0,0,1,136-17.61,58.44,58.44,0,0,1,7.28-.44,60.84,60.84,0,0,1,56.17,37.43,38.38,38.38,0,0,1,43.48,38.06Z"/>
      </g>
      <g>
        <path class="cls-7" d="M322.81,139.23a38.39,38.39,0,0,1-60.18,31.61,60.85,60.85,0,0,1-72.57,4.75,76.74,76.74,0,0,1-37.65,9.79,77.58,77.58,0,0,1-19-2.35A59.11,59.11,0,1,1,79.82,81.78a77.24,77.24,0,0,1,136.06-17.6,58.33,58.33,0,0,1,7.28-.44,60.84,60.84,0,0,1,56.16,37.43,39,39,0,0,1,5.09-.34A38.4,38.4,0,0,1,322.81,139.23Z"/>
        <path class="cls-8" d="M336.85,136.6a38.39,38.39,0,0,1-60.18,31.61A60.79,60.79,0,0,1,204.11,173a77.34,77.34,0,0,1-56.64,7.44A59.1,59.1,0,1,1,93.86,79.16,77.24,77.24,0,0,1,229.92,61.55a60.83,60.83,0,0,1,63.45,37,38.45,38.45,0,0,1,43.48,38.06Z"/>
      </g>
      <g class="cls-11">
        <path class="cls-12" d="M568.86,768c0-9.21-9.83-16.68-22-16.68H502.79c-12.13,0-22,7.47-22,16.68h0a14.52,14.52,0,0,0,5.25,10.82,6.42,6.42,0,0,0-2.83,5.09c0,3.93,4.19,7.12,9.36,7.12a10.07,10.07,0,0,0,8.26-3.77,10.92,10.92,0,0,0,16.5,0,10.06,10.06,0,0,0,8.25,3.76,10.62,10.62,0,0,0,7.48-2.83,10.57,10.57,0,0,0,7.47,2.83,10.05,10.05,0,0,0,8.25-3.77,10.09,10.09,0,0,0,8.26,3.77c5.17,0,9.36-3.19,9.36-7.12a6.39,6.39,0,0,0-2.83-5.09A14.52,14.52,0,0,0,568.86,768Z"/>
        <path class="cls-13" d="M532.17,784.25V813.7c0,4.5-4.8,8.15-10.72,8.15H498.17c-3.75,0-6.79-2.31-6.79-5.16V757.27H408.62v31.79c0,2.85-3,5.16-6.79,5.16h-3.09c-6.66,0-12.06-4.1-12.06-9.16V767.7H370v25.89c0,7.62,8.13,13.8,18.15,13.8h13.72c3.75,0,6.79,2.31,6.79,5.16V873.4c0,2.35-2.51,4.27-5.62,4.27h0c-13.63,0-24.68,8.39-24.68,18.75v5.5H545v-5.5c0-10.36-11.06-18.75-24.69-18.75H497c-3.1,0-5.62-1.92-5.62-4.27V847.16c0-2.85,3-5.16,6.79-5.16H535c12.63,0,22.87-7.78,22.87-17.38V784.25Z"/>
        <path class="cls-14" d="M627.27,740.19v-7.46c0-68.56-73.15-124.15-163.38-124.15h0c-90.24,0-163.38,55.59-163.38,124.15v8.37c-7.44,1.8-12.82,7.09-12.82,13.34,0,7.74,8.25,14,18.44,14a21.68,21.68,0,0,0,13-4.08,21.66,21.66,0,0,0,13,4.08c6.7,0,12.57-2.72,15.8-6.78,3.27,3.9,9,6.48,15.55,6.48a22.1,22.1,0,0,0,12-3.37A22.16,22.16,0,0,0,387.27,768a21.68,21.68,0,0,0,13-4.08,21.66,21.66,0,0,0,13,4.08c6.7,0,12.57-2.72,15.8-6.79,3.27,3.9,9,6.49,15.55,6.49a21.66,21.66,0,0,0,12.9-4c3.33,3.65,8.87,6,15.15,6a21.66,21.66,0,0,0,13-4.08,21.68,21.68,0,0,0,13,4.08c6.71,0,12.58-2.72,15.8-6.79,3.28,3.9,9,6.49,15.55,6.49,8.17,0,15.1-4,17.52-9.63,2.94,4.76,9.31,8.06,16.69,8.06a21.66,21.66,0,0,0,13-4.08,21.71,21.71,0,0,0,13,4.08c6.71,0,12.58-2.72,15.81-6.79,3.27,3.9,9,6.49,15.55,6.49,10.18,0,18.43-6.27,18.43-14C640.08,747.29,634.7,742,627.27,740.19Z"/>
        <path class="cls-14" d="M604.37,795a7.77,7.77,0,0,0,.06-1v-2.58c0-5.47-5.83-9.9-13-9.9H524.23c-7.2,0-13,4.43-13,9.9V794a7.77,7.77,0,0,0,.07,1,6.3,6.3,0,0,0-2.52,4.85c0,3.93,4.19,7.11,9.36,7.11a10.57,10.57,0,0,0,7.47-2.83,10.57,10.57,0,0,0,7.47,2.83,10.43,10.43,0,0,0,7.67-3h1.18a11.2,11.2,0,0,0,15.34,0h1.16a10.43,10.43,0,0,0,7.67,3,10.57,10.57,0,0,0,7.47-2.83A10.57,10.57,0,0,0,581,807a10.44,10.44,0,0,0,7.67-3h1.18a10.42,10.42,0,0,0,7.66,3c5.17,0,9.36-3.18,9.36-7.11A6.29,6.29,0,0,0,604.37,795Z"/>
        <path class="cls-4" d="M398.78,768c0-9.21-9.83-16.68-22-16.68H332.71c-12.13,0-22,7.47-22,16.68h0A14.52,14.52,0,0,0,316,778.85a6.42,6.42,0,0,0-2.83,5.09c0,3.93,4.19,7.12,9.36,7.12a10.09,10.09,0,0,0,8.26-3.77,10.92,10.92,0,0,0,16.5,0,10.06,10.06,0,0,0,8.25,3.76,10.57,10.57,0,0,0,7.47-2.83,10.62,10.62,0,0,0,7.48,2.83,10.05,10.05,0,0,0,8.25-3.77,10.09,10.09,0,0,0,8.26,3.77c5.17,0,9.36-3.19,9.36-7.12a6.42,6.42,0,0,0-2.83-5.09A14.52,14.52,0,0,0,398.78,768Z"/>
        <ellipse class="cls-15" cx="330.67" cy="706.84" rx="14.15" ry="10.75"/>
        <ellipse class="cls-4" cx="344.82" cy="716.24" rx="14.8" ry="11.25"/>
        <ellipse class="cls-16" cx="348.54" cy="697.79" rx="19.12" ry="14.53"/>
        <ellipse class="cls-15" cx="509.73" cy="623.55" rx="6.95" ry="5.28"/>
        <ellipse class="cls-4" cx="507.22" cy="630.31" rx="7.27" ry="5.53"/>
        <ellipse class="cls-16" cx="518.78" cy="627.67" rx="9.4" ry="7.14"/>
        <ellipse class="cls-15" cx="521.84" cy="787.62" rx="3.43" ry="2.61"/>
        <ellipse class="cls-4" cx="521.84" cy="792.42" rx="3.59" ry="2.73"/>
        <ellipse class="cls-15" cx="553.18" cy="768.7" rx="3.43" ry="2.61"/>
        <ellipse class="cls-16" cx="557.82" cy="772.23" rx="4.64" ry="3.52"/>
        <ellipse class="cls-16" cx="529.48" cy="787.62" rx="4.64" ry="3.52"/>
        <path class="cls-17" d="M568.59,647.68c8.41-1.39,16.62,7.39,22.54,13.71a64.64,64.64,0,0,1,15.36,26.78c4.28,15.29,1.24,26,6,40.58,1.68,5.1,2.65,7.93,5.7,11.09,4.14,4.3,8.42,5.4,9,9.2a6.62,6.62,0,0,1-3.6,6.74c-4.28,2.23-10.15,0-11.13-.4-3.63-1.39-7.26-4.21-10-10.84-3.62-8.9-1-13.56-1.27-22.65-.33-12.83-5.94-22.55-10.38-30.24-5.72-9.92-8.59-14.88-15.8-19.52-8.38-5.4-15.1-5.53-16.9-10.29C556.13,656.47,561.74,648.81,568.59,647.68Z"/>
        <path class="cls-18" d="M319.54,771c-2.26-2-1.16-5-.4-6.95a12.16,12.16,0,0,1,5.06-6.31c1.95-1.11,3.31-1.48,7.52-2.17a62.28,62.28,0,0,1,10.5-.42c1,0,3-.13,11.95,0,7.06.11,5.9.19,7.89.16,8.74-.13,12.25-1.37,13.78.15a2.29,2.29,0,0,1,0,3.08c-1.16,1.28-3.73,1.08-9.52,1.08-5.54,0-2.88.17-9.32.15-8.51,0-10.23-.33-13.36.62a19.91,19.91,0,0,0-5.07,2.3c-1.92,1.25-2.31,2.06-4.65,4.47-3.21,3.28-4.81,4.92-6.89,5.38C324.57,773.12,321.32,772.63,319.54,771Z"/>
      </g>
      <g>
        <path class="cls-12" d="M1187.06,558.08c0-35.92-38.32-65-85.59-65h-172c-47.27,0-85.59,29.12-85.59,65h0c0,16.1,7.71,30.82,20.46,42.18-6.8,5-11,12.07-11,19.85,0,15.31,16.34,27.73,36.48,27.73,13.94,0,26-6,32.19-14.68,6.15,8.73,18.25,14.68,32.19,14.68s26-5.93,32.16-14.63c6.15,8.7,18.25,14.63,32.16,14.63,11.9,0,22.46-4.33,29.12-11,6.66,6.7,17.23,11,29.13,11,13.93,0,26-6,32.19-14.68,6.14,8.73,18.25,14.68,32.19,14.68,20.14,0,36.48-12.42,36.48-27.73,0-7.78-4.23-14.81-11-19.85,12.76-11.36,20.47-26.08,20.47-42.18Z"/>
        <path class="cls-13" d="M1044.06,621.32V736.11c0,17.55-18.73,31.78-41.83,31.78H911.51c-14.62,0-26.48-9-26.48-20.13V516.14H562.43V640.06c0,11.11-11.85,20.12-26.48,20.12h-12c-26,0-47-16-47-35.72V556.79H411.7V657.73c0,29.71,31.69,53.79,70.78,53.79H536c14.63,0,26.48,9,26.48,20.12V968.81c0,9.19-9.81,16.65-21.9,16.65h0c-53.15,0-96.23,32.73-96.23,73.12V1080H1094v-21.42c0-40.39-43.09-73.12-96.23-73.12H906.94c-12.1,0-21.91-7.46-21.91-16.65V866.54c0-11.11,11.86-20.12,26.48-20.12h143.35c49.24,0,89.16-30.33,89.16-67.75V621.32Z"/>
        <path class="cls-14" d="M1414.74,449.56V420.48c0-267.28-285.14-483.95-636.88-483.95h0C426.12-63.47,141,153.2,141,420.48v32.61c-29,7-50,27.67-50,52,0,30.16,32.19,54.61,71.88,54.61,19.8,0,37.72-6.08,50.72-15.91,13,9.83,30.92,15.91,50.71,15.91,26.14,0,49-10.6,61.6-26.45,12.76,15.19,35.13,25.28,60.61,25.28,17.87,0,34.2-5,46.78-13.17,12.45,7.86,28.44,12.58,45.88,12.58,19.79,0,37.72-6.08,50.72-15.92,13,9.84,30.92,15.92,50.71,15.92,26.14,0,49-10.6,61.59-26.46,12.77,15.2,35.14,25.28,60.62,25.28,19.59,0,37.33-6,50.3-15.61,13,14.19,34.58,23.49,59,23.49,19.79,0,37.72-6.08,50.71-15.91,13,9.83,30.93,15.91,50.72,15.91,26.14,0,49-10.6,61.59-26.46,12.77,15.2,35.14,25.29,60.62,25.29,31.85,0,58.84-15.75,68.28-37.56,11.47,18.58,36.3,31.44,65.09,31.44,19.79,0,37.71-6.08,50.71-15.91,13,9.83,30.92,15.91,50.72,15.91,26.13,0,49-10.6,61.59-26.46,12.76,15.2,35.13,25.29,60.61,25.29,39.7,0,71.88-24.46,71.88-54.62C1464.7,477.23,1443.72,456.6,1414.74,449.56Z"/>
        <path class="cls-14" d="M1325.48,663.22a29.78,29.78,0,0,0,.25-3.79V649.37c0-21.31-22.73-38.58-50.77-38.58H1013.07c-28,0-50.77,17.27-50.77,38.58v10.06a29.78,29.78,0,0,0,.25,3.79c-6.08,4.95-9.8,11.59-9.8,18.9,0,15.31,16.33,27.72,36.48,27.72,11.9,0,22.47-4.33,29.12-11,6.66,6.7,17.23,11,29.13,11,12.37,0,23.29-4.68,29.89-11.84H1082c6.6,7.16,17.53,11.84,29.9,11.84s23.29-4.68,29.89-11.84h4.53c6.6,7.16,17.52,11.84,29.89,11.84,11.9,0,22.47-4.33,29.13-11,6.66,6.7,17.22,11,29.12,11,12.37,0,23.29-4.68,29.89-11.84h4.6c6.59,7.16,17.52,11.84,29.89,11.84,20.15,0,36.48-12.41,36.48-27.72C1335.28,674.81,1331.56,668.17,1325.48,663.22Z"/>
        <path class="cls-4" d="M524.07,558.08c0-35.92-38.32-65-85.59-65h-172c-47.27,0-85.59,29.12-85.59,65h0c0,16.1,7.71,30.82,20.47,42.18-6.81,5-11,12.07-11,19.85,0,15.31,16.33,27.73,36.48,27.73,13.94,0,26-6,32.19-14.68,6.14,8.73,18.25,14.68,32.19,14.68s26-5.93,32.15-14.63c6.16,8.7,18.25,14.63,32.16,14.63,11.9,0,22.47-4.33,29.13-11,6.65,6.7,17.22,11,29.12,11,13.94,0,26.05-6,32.19-14.68,6.14,8.73,18.25,14.68,32.19,14.68,20.15,0,36.48-12.42,36.48-27.73,0-7.78-4.23-14.81-11-19.85,12.75-11.36,20.47-26.08,20.47-42.18Z"/>
        <ellipse class="cls-15" cx="258.56" cy="319.54" rx="55.15" ry="41.91"/>
        <ellipse class="cls-4" cx="313.71" cy="356.2" rx="57.7" ry="43.85"/>
        <ellipse class="cls-16" cx="328.24" cy="284.28" rx="74.54" ry="56.64"/>
        <ellipse class="cls-15" cx="956.56" cy="-5.12" rx="27.1" ry="20.59"/>
        <ellipse class="cls-4" cx="946.77" cy="21.21" rx="28.35" ry="21.54"/>
        <ellipse class="cls-16" cx="991.84" cy="10.95" rx="36.63" ry="27.83"/>
        <ellipse class="cls-15" cx="1003.75" cy="634.44" rx="13.38" ry="10.17"/>
        <ellipse class="cls-4" cx="1003.75" cy="653.15" rx="14" ry="10.64"/>
        <ellipse class="cls-15" cx="1125.93" cy="560.71" rx="13.38" ry="10.17"/>
        <ellipse class="cls-16" cx="1144.02" cy="574.45" rx="18.08" ry="13.74"/>
        <ellipse class="cls-16" cx="1033.57" cy="634.44" rx="18.08" ry="13.74"/>
        <path class="cls-17" d="M1186,88.94c32.76-5.41,64.77,28.8,87.84,53.45,40.81,43.59,54.94,86.66,59.89,104.38,16.67,59.61,4.84,101.43,23.47,158.17,6.53,19.89,10.32,30.92,22.21,43.27,16.12,16.74,32.82,21,35.08,35.85,1.4,9.15-3,20.5-14,26.25-16.69,8.72-39.56-.05-43.4-1.53-14.14-5.42-28.31-16.41-38.83-42.27-14.1-34.68-4.06-52.86-5-88.29-1.27-50-23.14-87.9-40.43-117.86-22.32-38.68-33.48-58-61.61-76.13-32.66-21-58.87-21.55-65.88-40.08C1137.45,123.22,1159.3,93.35,1186,88.94Z"/>
        <path class="cls-18" d="M215.16,569.79c-8.8-7.91-4.49-19.34-1.55-27.12,1.6-4.24,6.94-17.33,19.72-24.58,7.6-4.32,12.91-5.79,29.31-8.45,18.65-3,34.95-1.34,40.94-1.64,3.83-.19,11.89-.53,46.58,0,27.53.43,23,.72,30.78.6,34.07-.5,47.74-5.34,53.68.6,3.35,3.35,2.91,8.79,0,12-4.49,5-14.5,4.22-37.1,4.2-21.6,0-11.23.67-36.31.6-33.2-.09-39.87-1.27-52.1,2.4a77.52,77.52,0,0,0-19.74,9c-7.5,4.87-9,8-18.16,17.39-12.48,12.79-18.72,19.18-26.84,21C234.77,577.93,222.09,576,215.16,569.79Z"/>
      </g>
      <g>
        <path class="cls-7" d="M1705.62,111.14a43,43,0,0,1-38.21,42.71,56.35,56.35,0,0,1-82.59,15.2,56.36,56.36,0,0,1-85-19.6,43,43,0,0,1-5.64-74A56.35,56.35,0,0,1,1585,35.3,56.35,56.35,0,0,1,1675.17,70,43,43,0,0,1,1705.62,111.14Z"/>
        <path class="cls-8" d="M1713.34,111.14a43,43,0,0,1-38.2,42.71,56.36,56.36,0,0,1-82.6,15.2,56.35,56.35,0,0,1-85-19.6,43,43,0,0,1-5.65-74,56.35,56.35,0,0,1,90.84-40.1A56.35,56.35,0,0,1,1682.89,70,43,43,0,0,1,1713.34,111.14Z"/>
      </g>
      <g class="cls-19">
        <path class="cls-20" d="M457.35,1051.11a49.54,49.54,0,0,1,5.9-22.41c4-7.74,9.1-11.66,13.56-15,6.06-4.59,10.5-7,20.94-11.2,11.71-4.69,22.59-6.2,31.25-7.23,12.13-1.44,10.23-.51,22.11-1.62,8-.74,10.76.08,13.68,2.48,3.14,2.58,4,9.09,1.28,12.78-3.78,5.14-11.45.69-26.84,3.83-4.42.9-10.4,3.37-22.36,8.31-9.81,4-14.25,8.53-16.26,11.09C496,1038,497.8,1039.61,492,1053c-2.57,5.87-3.92,8.86-7,11.5-6.72,5.72-18.33,7.53-23,2.56C459.83,1064.78,457.21,1057.68,457.35,1051.11Z"/>
        <path class="cls-20" d="M464.72,1053a28.89,28.89,0,0,1,.74-14.15c1.58-5.34,4.8-9.16,7.18-11.83,3.24-3.61,5.94-6,12-9.94a69.62,69.62,0,0,1,17.47-8.24c7.42-2.38,6.8-1.94,13.91-3.8,4.94-1.29,7-2.14,9.15-1,2.29,1.23,3.61,5.2,2.36,7.84-1.74,3.68-7.08,1.83-16.34,5.67-2.66,1.1-5.31,1.46-11.48,6.93a41.52,41.52,0,0,0-8.86,10.53c-2.18,4.25-2.32,4.44-4.36,13.5-.89,4-1.37,6-3,8.06-3.51,4.4-10.56,7-14.09,4.4A12.64,12.64,0,0,1,464.72,1053Z"/>
      </g>
      <g class="cls-21">
        <path class="cls-20" d="M1084.42,828.23a36.15,36.15,0,0,0,16.57-3.51c5.79-2.66,8.83-6.23,11.46-9.37,3.56-4.26,5.5-7.41,8.92-14.89a86.7,86.7,0,0,0,6.38-22.56c1.48-8.81.74-7.45,2-16.09.82-5.8.33-7.85-1.32-10.07-1.78-2.39-6.5-3.23-9.29-1.39-3.89,2.58-.91,8.33-3.75,19.46-.81,3.2-2.83,7.48-6.86,16-3.3,7-6.73,10.1-8.67,11.48-4.46,3.17-5.59,1.79-15.53,5.59-4.38,1.66-6.61,2.54-8.65,4.72-4.42,4.71-6.15,13.12-2.68,16.7C1074.52,825.94,1079.61,828.11,1084.42,828.23Z"/>
        <path class="cls-20" d="M1083.28,822.78a21.08,21.08,0,0,0,10.36,0,22.59,22.59,0,0,0,8.89-4.83,37.42,37.42,0,0,0,7.68-8.38,50.6,50.6,0,0,0,6.64-12.47c2-5.33,1.66-4.9,3.26-10,1.12-3.56,1.82-5.06,1.06-6.65a4.85,4.85,0,0,0-5.65-2c-2.75,1.14-1.59,5.11-4.72,11.73-.9,1.91-1.25,3.83-5.47,8.14a30.62,30.62,0,0,1-8,6.1c-3.19,1.44-3.33,1.53-10,2.7-2.94.51-4.45.79-6,1.9-3.34,2.41-5.45,7.47-3.71,10.14A9.23,9.23,0,0,0,1083.28,822.78Z"/>
      </g>
      <g class="cls-22">
        <path class="cls-20" d="M1680.05,683.41a17.82,17.82,0,0,0,8.21-1.74,15.34,15.34,0,0,0,5.68-4.64,28,28,0,0,0,4.42-7.38,42.8,42.8,0,0,0,3.16-11.18c.74-4.36.37-3.69,1-8,.4-2.88.16-3.89-.66-5a3.77,3.77,0,0,0-4.6-.69c-1.93,1.28-.45,4.13-1.86,9.64-.4,1.59-1.4,3.71-3.4,7.95a13.89,13.89,0,0,1-4.3,5.69c-2.21,1.57-2.76.88-7.69,2.76-2.17.83-3.28,1.27-4.29,2.34-2.19,2.34-3,6.51-1.33,8.28A9.83,9.83,0,0,0,1680.05,683.41Z"/>
        <path class="cls-20" d="M1679.48,680.71a10.39,10.39,0,0,0,5.14,0,11,11,0,0,0,4.4-2.39,18.35,18.35,0,0,0,3.81-4.15,25.1,25.1,0,0,0,3.29-6.18c1-2.64.82-2.42,1.62-5,.55-1.77.9-2.51.52-3.3a2.4,2.4,0,0,0-2.8-1c-1.36.57-.79,2.53-2.34,5.81a10.35,10.35,0,0,1-2.71,4,15.18,15.18,0,0,1-4,3c-1.58.71-1.65.76-5,1.34a6.47,6.47,0,0,0-3,.94c-1.66,1.19-2.7,3.7-1.84,5A4.57,4.57,0,0,0,1679.48,680.71Z"/>
      </g>
      <g class="cls-23">
        <path class="cls-20" d="M1453.21,766.88a17.26,17.26,0,0,1,2-7.78,14.57,14.57,0,0,1,4.7-5.21,26.41,26.41,0,0,1,7.26-3.89,41.3,41.3,0,0,1,10.84-2.51c4.21-.5,3.55-.18,7.68-.56,2.76-.26,3.73,0,4.74.86a3.59,3.59,0,0,1,.44,4.43c-1.31,1.79-4,.24-9.31,1.33a53.86,53.86,0,0,0-7.75,2.88,13.23,13.23,0,0,0-5.64,3.85c-1.61,2-1,2.61-3,7.24-.89,2-1.36,3.07-2.43,4-2.34,2-6.37,2.61-8,.88A9.37,9.37,0,0,1,1453.21,766.88Z"/>
        <path class="cls-20" d="M1455.77,767.54a10.05,10.05,0,0,1,.25-4.91,10.66,10.66,0,0,1,2.5-4.1,17.67,17.67,0,0,1,4.14-3.45,24.3,24.3,0,0,1,6.07-2.86c2.57-.82,2.36-.67,4.82-1.32,1.72-.45,2.44-.74,3.18-.34a2.28,2.28,0,0,1,.81,2.72c-.6,1.28-2.45.63-5.66,2a9.88,9.88,0,0,0-4,2.4,14.6,14.6,0,0,0-3.07,3.65c-.76,1.48-.81,1.54-1.51,4.69a6.24,6.24,0,0,1-1,2.79c-1.22,1.53-3.67,2.41-4.89,1.53A4.38,4.38,0,0,1,1455.77,767.54Z"/>
      </g>
      <g class="cls-22">
        <path class="cls-20" d="M539.53,839.35a13.35,13.35,0,0,0,6.09-1.3,11.22,11.22,0,0,0,4.21-3.44,20.55,20.55,0,0,0,3.28-5.47,31.91,31.91,0,0,0,2.34-8.29c.55-3.24.27-2.74.72-5.91.31-2.13.12-2.89-.48-3.7a2.78,2.78,0,0,0-3.41-.51c-1.43.94-.34,3.06-1.38,7.15a41.07,41.07,0,0,1-2.52,5.89,10.33,10.33,0,0,1-3.19,4.22c-1.64,1.16-2.05.65-5.71,2a7.55,7.55,0,0,0-3.17,1.73c-1.63,1.73-2.26,4.83-1,6.14A7.32,7.32,0,0,0,539.53,839.35Z"/>
        <path class="cls-20" d="M539.11,837.34a7.78,7.78,0,0,0,3.81,0,8.23,8.23,0,0,0,3.26-1.77,14,14,0,0,0,2.83-3.08,18.78,18.78,0,0,0,2.43-4.59c.74-2,.61-1.79,1.21-3.68.41-1.31.66-1.86.38-2.44A1.77,1.77,0,0,0,551,821c-1,.41-.59,1.87-1.74,4.3a7.78,7.78,0,0,1-2,3,11.55,11.55,0,0,1-2.93,2.24,10.74,10.74,0,0,1-3.69,1,4.86,4.86,0,0,0-2.2.7c-1.22.88-2,2.74-1.36,3.72A3.39,3.39,0,0,0,539.11,837.34Z"/>
      </g>
      <g class="cls-23">
        <path class="cls-20" d="M383.73,894.74a9.42,9.42,0,0,1,1.12-4.27,8,8,0,0,1,2.59-2.87,14.59,14.59,0,0,1,4-2.14,22.56,22.56,0,0,1,6-1.38c2.32-.27,2-.1,4.22-.31,1.52-.14,2.05,0,2.61.47a2,2,0,0,1,.24,2.44c-.72,1-2.18.13-5.12.73a30.76,30.76,0,0,0-4.26,1.59,7.41,7.41,0,0,0-3.11,2.11c-.88,1.13-.53,1.44-1.65,4a5.47,5.47,0,0,1-1.34,2.2c-1.28,1.09-3.5,1.44-4.39.49A5.18,5.18,0,0,1,383.73,894.74Z"/>
        <path class="cls-20" d="M385.13,895.11a5.62,5.62,0,0,1,.15-2.7,5.82,5.82,0,0,1,1.37-2.26,9.73,9.73,0,0,1,2.28-1.9,13.51,13.51,0,0,1,3.33-1.57c1.42-.45,1.3-.37,2.66-.72.94-.25,1.34-.41,1.74-.19a1.24,1.24,0,0,1,.45,1.49c-.33.71-1.35.35-3.11,1.08a5.62,5.62,0,0,0-2.2,1.33,7.76,7.76,0,0,0-1.69,2,7.65,7.65,0,0,0-.83,2.57,3.45,3.45,0,0,1-.57,1.54c-.67.84-2,1.33-2.69.84A2.44,2.44,0,0,1,385.13,895.11Z"/>
      </g>
      <g>
        <g>
          <path class="cls-3" d="M19.67,1091.47c29.31,20.37,62.24,23.7,73.54,7.44l-106.15-73.78C-24.24,1041.39-9.65,1071.1,19.67,1091.47Z"/>
          <path class="cls-4" d="M60.61,1032.57c29.31,20.37,43.91,50.07,32.6,66.34l-106.15-73.78C-1.63,1008.86,31.29,1012.19,60.61,1032.57Z"/>
        </g>
        <g>
          <path class="cls-3" d="M59.86,1054c-13.13,33.19-8.85,66,9.57,73.3L117,1007.07C98.58,999.79,73,1020.78,59.86,1054Z"/>
          <path class="cls-4" d="M126.56,1080.37c-13.13,33.2-38.71,54.2-57.13,46.91L117,1007.07C135.42,1014.36,139.7,1047.18,126.56,1080.37Z"/>
        </g>
        <g>
          <path class="cls-3" d="M116.61,1083.61c3.6,17.48,14.38,30,24.08,28.05l-13-63.32C118,1050.34,113,1066.13,116.61,1083.61Z"/>
          <path class="cls-4" d="M151.75,1076.39c3.59,17.48-1.36,33.27-11.06,35.27l-13-63.32C137.37,1046.35,148.15,1058.91,151.75,1076.39Z"/>
        </g>
        <g>
          <path class="cls-3" d="M146.2,1054.48c-11.91,13.29-15.59,29.43-8.22,36l43.15-48.13C173.75,1035.78,158.11,1041.19,146.2,1054.48Z"/>
          <path class="cls-4" d="M172.91,1078.42c-11.92,13.29-27.55,18.71-34.93,12.1l43.15-48.13C188.5,1049,184.82,1065.13,172.91,1078.42Z"/>
        </g>
      </g>
      <g>
        <g class="cls-11">
          <path class="cls-12" d="M1725.56,579.52c0-13.56-14.47-24.56-32.33-24.56h-64.94c-17.85,0-32.32,11-32.32,24.56h0c0,6.08,2.91,11.64,7.73,15.93a9.43,9.43,0,0,0-4.17,7.5c0,5.78,6.17,10.47,13.78,10.47,5.26,0,9.83-2.25,12.15-5.55,2.32,3.3,6.89,5.55,12.16,5.55s9.82-2.24,12.14-5.53c2.33,3.29,6.89,5.53,12.15,5.53a15.58,15.58,0,0,0,11-4.17,15.54,15.54,0,0,0,11,4.17c5.27,0,9.84-2.25,12.16-5.55,2.32,3.3,6.89,5.55,12.16,5.55,7.6,0,13.77-4.69,13.77-10.47a9.42,9.42,0,0,0-4.16-7.5c4.81-4.29,7.73-9.85,7.73-15.93Z"/>
          <path class="cls-13" d="M1671.55,603.4v43.35c0,6.63-7.07,12-15.79,12H1621.5c-5.53,0-10-3.4-10-7.6V563.68H1489.67v46.8c0,4.19-4.48,7.6-10,7.6h-4.55c-9.8,0-17.75-6-17.75-13.49V579h-24.62v38.12c0,11.22,12,20.31,26.73,20.31h20.19c5.52,0,10,3.41,10,7.6v89.57c0,3.47-3.7,6.29-8.27,6.29h0c-20.07,0-36.34,12.36-36.34,27.61v8.09h245.37v-8.09c0-15.25-16.27-27.61-36.34-27.61h-34.32c-4.57,0-8.27-2.82-8.27-6.29V696c0-4.2,4.47-7.6,10-7.6h54.13c18.6,0,33.67-11.46,33.67-25.59V603.4Z"/>
          <path class="cls-14" d="M1811.54,538.54v-11c0-100.93-107.69-182.75-240.52-182.75h0c-132.83,0-240.51,81.82-240.51,182.75v12.32c-10.94,2.66-18.87,10.45-18.87,19.65,0,11.39,12.16,20.62,27.15,20.62a31.85,31.85,0,0,0,19.15-6,31.85,31.85,0,0,0,19.15,6c9.87,0,18.51-4,23.26-10,4.82,5.74,13.27,9.55,22.89,9.55a32.54,32.54,0,0,0,17.67-5,32.65,32.65,0,0,0,17.32,4.75,31.93,31.93,0,0,0,19.16-6,31.87,31.87,0,0,0,19.15,6c9.87,0,18.51-4,23.26-10,4.82,5.74,13.27,9.54,22.89,9.54a31.94,31.94,0,0,0,19-5.89c4.91,5.36,13.06,8.87,22.3,8.87a31.93,31.93,0,0,0,19.16-6,31.89,31.89,0,0,0,19.15,6c9.87,0,18.51-4,23.26-10,4.82,5.74,13.27,9.54,22.89,9.54,12,0,22.22-5.94,25.79-14.18,4.33,7,13.7,11.88,24.57,11.88a31.93,31.93,0,0,0,19.16-6,31.89,31.89,0,0,0,19.15,6c9.87,0,18.51-4,23.26-10,4.82,5.74,13.27,9.55,22.89,9.55,15,0,27.14-9.23,27.14-20.62C1830.4,549,1822.48,541.2,1811.54,538.54Z"/>
          <path class="cls-14" d="M1777.83,619.23a11.48,11.48,0,0,0,.09-1.44V614c0-8-8.58-14.56-19.17-14.56h-98.9c-10.59,0-19.17,6.52-19.17,14.56v3.8a11.48,11.48,0,0,0,.09,1.44,9.26,9.26,0,0,0-3.7,7.13c0,5.78,6.17,10.47,13.78,10.47a15.57,15.57,0,0,0,11-4.16,15.62,15.62,0,0,0,11,4.16,15.4,15.4,0,0,0,11.29-4.47h1.74a16.48,16.48,0,0,0,22.57,0h1.72a15.38,15.38,0,0,0,11.28,4.47,15.58,15.58,0,0,0,11-4.16,15.62,15.62,0,0,0,11,4.16,15.4,15.4,0,0,0,11.29-4.47h1.73a15.42,15.42,0,0,0,11.29,4.47c7.61,0,13.78-4.69,13.78-10.47A9.26,9.26,0,0,0,1777.83,619.23Z"/>
          <path class="cls-4" d="M1475.18,579.52c0-13.56-14.47-24.56-32.32-24.56h-64.95c-17.85,0-32.32,11-32.32,24.56h0c0,6.08,2.91,11.64,7.73,15.93a9.43,9.43,0,0,0-4.17,7.5c0,5.78,6.17,10.47,13.78,10.47,5.26,0,9.84-2.25,12.16-5.55,2.32,3.3,6.89,5.55,12.15,5.55s9.82-2.24,12.15-5.53c2.32,3.29,6.89,5.53,12.14,5.53a15.56,15.56,0,0,0,11-4.17,15.54,15.54,0,0,0,11,4.17c5.26,0,9.83-2.25,12.15-5.55,2.32,3.3,6.9,5.55,12.16,5.55,7.61,0,13.78-4.69,13.78-10.47a9.43,9.43,0,0,0-4.17-7.5c4.82-4.29,7.73-9.85,7.73-15.93Z"/>
          <ellipse class="cls-15" cx="1374.91" cy="489.44" rx="20.83" ry="15.83"/>
          <ellipse class="cls-4" cx="1395.74" cy="503.28" rx="21.79" ry="16.56"/>
          <ellipse class="cls-16" cx="1401.23" cy="476.12" rx="28.15" ry="21.39"/>
          <ellipse class="cls-15" cx="1638.51" cy="366.83" rx="10.23" ry="7.78"/>
          <ellipse class="cls-4" cx="1634.81" cy="376.78" rx="10.71" ry="8.14"/>
          <ellipse class="cls-16" cx="1651.83" cy="372.9" rx="13.83" ry="10.51"/>
          <ellipse class="cls-15" cx="1656.33" cy="608.36" rx="5.05" ry="3.84"/>
          <ellipse class="cls-4" cx="1656.33" cy="615.42" rx="5.29" ry="4.02"/>
          <ellipse class="cls-15" cx="1702.47" cy="580.51" rx="5.05" ry="3.84"/>
          <ellipse class="cls-16" cx="1709.3" cy="585.7" rx="6.83" ry="5.19"/>
          <ellipse class="cls-16" cx="1667.59" cy="608.36" rx="6.83" ry="5.19"/>
          <path class="cls-17" d="M1725.16,402.35c12.37-2,24.46,10.88,33.18,20.19C1773.75,439,1779.08,455.27,1781,462c6.3,22.51,1.83,38.3,8.87,59.73,2.46,7.51,3.89,11.67,8.38,16.34,6.09,6.32,12.4,7.94,13.25,13.54a9.72,9.72,0,0,1-5.3,9.91c-6.3,3.29-14.93,0-16.38-.58-5.34-2-10.69-6.19-14.67-16-5.32-13.1-1.53-20-1.87-33.34-.48-18.89-8.74-33.2-15.27-44.51-8.43-14.61-12.64-21.91-23.27-28.75-12.33-7.94-22.23-8.14-24.88-15.14C1706.82,415.3,1715.07,404,1725.16,402.35Z"/>
          <path class="cls-18" d="M1358.53,583.94c-3.33-3-1.7-7.3-.59-10.24.6-1.6,2.62-6.54,7.45-9.28,2.87-1.63,4.87-2.19,11.07-3.19,7-1.14,13.19-.51,15.46-.62,1.44-.07,4.49-.2,17.58,0,10.4.16,8.7.27,11.63.22,12.87-.18,18-2,20.27.23a3.33,3.33,0,0,1,0,4.53c-1.69,1.88-5.47,1.6-14,1.59-8.16,0-4.24.25-13.71.22-12.54,0-15.06-.48-19.68.91a29.16,29.16,0,0,0-7.45,3.4c-2.83,1.84-3.4,3-6.86,6.57-4.71,4.83-7.07,7.24-10.13,7.93C1365.93,587,1361.14,586.29,1358.53,583.94Z"/>
        </g>
        <g class="cls-24">
          <g>
            <path class="cls-3" d="M1677.14,779.78c9.9,5.92,20.59,6.27,23.87.78l-35.84-21.45C1661.88,764.61,1667.24,773.86,1677.14,779.78Z"/>
            <path class="cls-4" d="M1689,759.89c9.9,5.92,15.26,15.17,12,20.67l-35.84-21.45C1668.45,753.62,1679.14,754,1689,759.89Z"/>
          </g>
          <g>
            <path class="cls-3" d="M1689.27,766.81c-3.5,11-1.4,21.47,4.7,23.42l12.69-39.8C1700.56,748.49,1692.77,755.82,1689.27,766.81Z"/>
            <path class="cls-4" d="M1711.35,773.85c-3.5,11-11.28,18.32-17.38,16.38l12.69-39.8C1712.75,752.37,1714.86,762.86,1711.35,773.85Z"/>
          </g>
          <g>
            <path class="cls-3" d="M1708.22,775.11c1.54,5.56,5.29,9.37,8.38,8.51L1711,763.5C1707.92,764.35,1706.67,769.55,1708.22,775.11Z"/>
            <path class="cls-4" d="M1719.38,772c1.55,5.55.3,10.75-2.78,11.61L1711,763.5C1714.09,762.64,1717.84,766.45,1719.38,772Z"/>
          </g>
          <g>
            <path class="cls-3" d="M1717.11,765.07c-3.54,4.54-4.37,9.83-1.85,11.79l12.84-16.46C1725.58,758.43,1720.66,760.52,1717.11,765.07Z"/>
            <path class="cls-4" d="M1726.25,772.2c-3.55,4.54-8.47,6.63-11,4.66l12.84-16.46C1730.63,762.37,1729.8,767.65,1726.25,772.2Z"/>
          </g>
        </g>
      </g>
      <g>
        <g>
          <path class="cls-3" d="M1536.85,1089.49c29.32,20.38,62.24,23.71,73.55,7.44l-106.15-73.78C1492.94,1039.42,1507.54,1069.12,1536.85,1089.49Z"/>
          <path class="cls-4" d="M1577.79,1030.59c29.32,20.37,43.91,50.07,32.61,66.34l-106.15-73.78C1515.55,1006.89,1548.48,1010.22,1577.79,1030.59Z"/>
        </g>
        <g>
          <path class="cls-3" d="M1577.05,1052c-13.14,33.19-8.86,66,9.56,73.3l47.57-120.2C1615.77,997.81,1590.19,1018.81,1577.05,1052Z"/>
          <path class="cls-4" d="M1643.75,1078.4c-13.14,33.19-38.72,54.19-57.14,46.9l47.57-120.2C1652.6,1012.39,1656.88,1045.21,1643.75,1078.4Z"/>
        </g>
        <g>
          <path class="cls-3" d="M1633.8,1081.64c3.59,17.48,14.37,30,24.07,28l-13-63.31C1635.16,1048.36,1630.2,1064.15,1633.8,1081.64Z"/>
          <path class="cls-4" d="M1668.93,1074.41c3.59,17.49-1.36,33.28-11.06,35.27l-13-63.31C1654.56,1044.37,1665.34,1056.93,1668.93,1074.41Z"/>
        </g>
        <g>
          <path class="cls-3" d="M1663.39,1052.51c-11.92,13.29-15.6,29.42-8.22,36l43.14-48.13C1690.94,1033.8,1675.3,1039.22,1663.39,1052.51Z"/>
          <path class="cls-4" d="M1690.09,1076.45c-11.91,13.29-27.55,18.7-34.92,12.09l43.14-48.13C1705.69,1047,1702,1063.16,1690.09,1076.45Z"/>
        </g>
      </g>
      <g>
        <g>
          <path class="cls-3" d="M1720,1117c39.69-10.43,67.17-36.73,61.38-58.75L1637.63,1096C1643.42,1118,1680.28,1127.39,1720,1117Z"/>
          <path class="cls-4" d="M1699,1037.23c39.69-10.43,76.55-1,82.33,21L1637.63,1096C1631.85,1074,1659.33,1047.65,1699,1037.23Z"/>
        </g>
        <g>
          <path class="cls-3" d="M1717.18,1053.85c19.21,36.25,51.1,57,71.22,46.33L1718.8,968.9C1698.69,979.57,1698,1017.6,1717.18,1053.85Z"/>
          <path class="cls-4" d="M1790,1015.24c19.22,36.25,18.49,74.28-1.62,84.94L1718.8,968.9C1738.92,958.24,1770.81,979,1790,1015.24Z"/>
        </g>
        <g>
          <path class="cls-3" d="M1785.43,1026.35c18,9.9,37,9.85,42.48-.12l-65.06-35.86C1757.35,1000.34,1767.46,1016.45,1785.43,1026.35Z"/>
          <path class="cls-4" d="M1805.33,990.25c18,9.9,28.08,26,22.58,36l-65.06-35.86C1768.34,980.4,1787.36,980.34,1805.33,990.25Z"/>
        </g>
        <g>
          <path class="cls-3" d="M1782,978.75c2.73,20.33,14.09,35.59,25.37,34.07l-9.88-73.63C1786.24,940.7,1779.31,958.41,1782,978.75Z"/>
          <path class="cls-4" d="M1822.9,973.26c2.73,20.34-4.21,38-15.49,39.56l-9.88-73.63C1808.81,937.67,1820.17,952.93,1822.9,973.26Z"/>
        </g>
      </g>
      <g>
        <g>
          <path class="cls-3" d="M1893.69,1038.48c36.33-37.41,49-84.07,28.2-104.23L1790.33,1069.7C1811.09,1089.86,1857.36,1075.88,1893.69,1038.48Z"/>
          <path class="cls-4" d="M1818.53,965.47c36.33-37.4,82.61-51.38,103.36-31.22L1790.33,1069.7C1769.58,1049.54,1782.2,1002.88,1818.53,965.47Z"/>
        </g>
        <g>
          <path class="cls-3" d="M1849.21,971.64c44.72,26.82,93,28.45,107.91,3.64L1795.2,878.15C1780.31,903,1804.5,944.81,1849.21,971.64Z"/>
          <path class="cls-4" d="M1903.11,881.78c44.71,26.83,68.9,68.68,54,93.5L1795.2,878.15C1810.08,853.33,1858.39,855,1903.11,881.78Z"/>
        </g>
        <g>
          <path class="cls-3" d="M1905.41,896.89c26-1,46.71-13.57,46.14-28l-94.34,3.71C1857.78,887,1879.36,897.92,1905.41,896.89Z"/>
          <path class="cls-4" d="M1903.35,844.54c26.05-1,47.63,9.87,48.2,24.32l-94.34,3.71C1856.64,858.12,1877.3,845.57,1903.35,844.54Z"/>
        </g>
        <g>
          <path class="cls-3" d="M1870.46,847.33c16.32,20.33,38.7,29.47,50,20.41l-59.11-73.62C1850.05,803.18,1854.14,827,1870.46,847.33Z"/>
          <path class="cls-4" d="M1911.31,814.53c16.32,20.33,20.41,44.15,9.13,53.21l-59.11-73.62C1872.61,785.06,1895,794.2,1911.31,814.53Z"/>
        </g>
      </g>
      <g>
        <g>
          <path class="cls-3" d="M1856.61,1127.23c39.68-10.43,67.16-36.73,61.38-58.75l-143.71,37.75C1780.06,1128.25,1816.92,1137.65,1856.61,1127.23Z"/>
          <path class="cls-4" d="M1835.66,1047.48c39.68-10.42,76.54-1,82.33,21l-143.71,37.75C1768.49,1084.21,1796,1057.91,1835.66,1047.48Z"/>
        </g>
        <g>
          <path class="cls-3" d="M1853.82,1064.11c19.22,36.25,51.11,57,71.22,46.33l-69.59-131.28C1835.33,989.83,1834.6,1027.86,1853.82,1064.11Z"/>
          <path class="cls-4" d="M1926.67,1025.49c19.22,36.26,18.49,74.29-1.63,85l-69.59-131.28C1875.57,968.5,1907.45,989.24,1926.67,1025.49Z"/>
        </g>
        <g>
          <path class="cls-3" d="M1922.08,1036.61c18,9.9,37,9.85,42.48-.12l-65.07-35.87C1894,1010.59,1904.11,1026.7,1922.08,1036.61Z"/>
          <path class="cls-4" d="M1942,1000.5c18,9.91,28.07,26,22.58,36l-65.07-35.87C1905,990.66,1924,990.6,1942,1000.5Z"/>
        </g>
        <path class="cls-3" d="M1918.69,989c2.73,20.33,14.08,35.58,25.37,34.07l-9.89-73.63C1922.89,951,1916,968.67,1918.69,989Z"/>
      </g>
      <g>
        <g>
          <path class="cls-3" d="M1657.94,1056.05c18.86-5,31.92-17.45,29.17-27.91l-68.29,17.93C1621.57,1056.54,1639.09,1061,1657.94,1056.05Z"/>
          <path class="cls-4" d="M1648,1018.16c18.85-4.95,36.37-.49,39.12,10l-68.29,17.93C1616.08,1035.61,1629.13,1023.11,1648,1018.16Z"/>
        </g>
        <g>
          <path class="cls-3" d="M1656.62,1026.06c9.13,17.23,24.28,27.08,33.84,22l-33.07-62.37C1647.83,990.76,1647.49,1008.84,1656.62,1026.06Z"/>
          <path class="cls-4" d="M1691.23,1007.71c9.13,17.23,8.79,35.3-.77,40.36l-33.07-62.37C1667,980.63,1682.1,990.49,1691.23,1007.71Z"/>
        </g>
        <g>
          <path class="cls-3" d="M1689.05,1013c8.54,4.71,17.57,4.68,20.19,0l-30.92-17C1675.71,1000.63,1680.51,1008.29,1689.05,1013Z"/>
          <path class="cls-4" d="M1698.51,995.84c8.53,4.7,13.34,12.36,10.73,17.1l-30.92-17C1680.93,991.16,1690,991.13,1698.51,995.84Z"/>
        </g>
        <g>
          <path class="cls-3" d="M1687.44,990.37c1.3,9.67,6.69,16.91,12,16.19l-4.69-35C1689.44,972.3,1686.14,980.71,1687.44,990.37Z"/>
          <path class="cls-4" d="M1706.85,987.77c1.3,9.66-2,18.08-7.36,18.79l-4.69-35C1700.16,970.86,1705.56,978.11,1706.85,987.77Z"/>
        </g>
      </g>
    </g>
    <rect class="cls-25" x="1583.2" y="46.84" width="316.03" height="62.98" rx="31.49"/>
    <rect class="cls-25" x="1721.39" y="121.28" width="177.83" height="62.98" rx="31.49"/>
  </g>
</svg>
