<svg id="Layer_1" data-name="Layer 1" xmlns="http://www.w3.org/2000/svg" width="400" height="400" viewBox="0 0 400 400">
  <defs>
    <style>
      .cls-1 {
        fill: #25b527;
      }

      .cls-2 {
        fill: #6c3;
      }

      .cls-3 {
        fill: #ccff9c;
      }

      .cls-4 {
        fill: #603901;
      }

      .cls-5 {
        fill: #b39368;
      }

      .cls-6 {
        fill: #c99375;
      }

      .cls-7 {
        fill: #4a2e00;
      }

      .cls-11, .cls-8 {
        fill: none;
      }

      .cls-8 {
        stroke: #000;
        stroke-linecap: round;
        stroke-miterlimit: 10;
        stroke-width: 6px;
      }

      .cls-9 {
        fill: #fa4639;
      }

      .cls-10 {
        fill: #7e0000;
      }

      .cls-12, .cls-13 {
        fill: #fff;
      }

      .cls-12 {
        opacity: 0.41;
      }

      .cls-13 {
        opacity: 0.6;
      }
    </style>
  </defs>
  <g>
    <path d="M184.48,327.36c.38,1-.57,1.74-1.23,4.08a17.09,17.09,0,0,0-.39,4.87c0,5.72,0,8.58,0,8.89a82.56,82.56,0,0,0,1.73,10.12,73.56,73.56,0,0,0,2,8.51c1.24,3.72,1.88,5.65,3.56,7.72a17.94,17.94,0,0,0,7.92,5.36,25.1,25.1,0,0,0,11.31,1.45,35.89,35.89,0,0,0,13-3.68,67.17,67.17,0,0,0,15.91-10.52c3.15-2.87,4.72-4.3,4.89-4.51.92-1.13,1.3-1.83,2.16-2,1.31-.27,2.41,1,4.82,3.29,4.06,3.91,3.6,3,6.25,5.76a49.19,49.19,0,0,1,4.77,6.19c.64.91,1.46,2.12,1,3s-1.48.89-1.89.94c-2.28.27-3.6-1.17-7-3.1-4.32-2.44-4-1.15-8.42-3.58a5.73,5.73,0,0,0-3.73-1,5.87,5.87,0,0,0-2.85,1.58c-1.64,1.31-3.5,2.32-5.19,3.58a46.24,46.24,0,0,1-9.12,5.08,43.46,43.46,0,0,1-8.59,3.12,39.6,39.6,0,0,1-9.34,1.07c-3.29,0-6.89-.08-10.93-1.79a23.38,23.38,0,0,1-8.89-6.88c-4.25-5-5.54-10.06-7.34-17.1-1-3.95-1.41-7.71-2.22-15.24a55.8,55.8,0,0,1,.1-10.34c.45-4.61,1.13-5.8,2.14-6.36C180.84,324.8,183.92,325.8,184.48,327.36Z"/>
    <path d="M107,294c0,1.14-1.1,1.54-2.65,3.6a23.17,23.17,0,0,0-2.36,4.53c-2,4.31-3,6.47-3.54,8.06-.8,2.21-1.29,4.08-2.26,7.8-.5,1.89-.94,3.72-1.37,5.7a35.83,35.83,0,0,0-1.07,6.63,19.58,19.58,0,0,0,.48,5.3,15.45,15.45,0,0,0,3.1,6.6,16.45,16.45,0,0,0,4.26,3.43,33.14,33.14,0,0,0,7.35,3.49c3.34,1.12,5.81,1.4,10.19,1.9a58.82,58.82,0,0,0,10.84.51,43.87,43.87,0,0,0,7.71-1c2.08-.47,5.76-1.31,8-2.62a14.29,14.29,0,0,1,2.45-1.08c1-.35,1.57-.52,2-.38,1.06.32,1.31,1.9,1.86,4,.06.23.78,2.27,2.22,6.35,1.27,3.62,1.62,4.14,2,6.15a19.46,19.46,0,0,1,.38,4.39c0,1.84-.08,3.17-.83,3.56-.19.1-1,.42-3.16-1.34-2.37-1.92-3.13-3.67-5.25-7-3.46-5.35-4.86-6-5.49-6.24-.46-.18-1.13-.37-4.88-.21s-5.65.47-7.86.64a55.14,55.14,0,0,1-9.59-.23,54.29,54.29,0,0,1-9.88-1.33,31.27,31.27,0,0,1-10.36-4.28c-1.79-1.19-8.44-5.63-10.52-13.72-.81-3.18-.57-5.54-.09-10.17.15-1.45.62-5.42,4-16.2.86-2.73,2.12-6.56,3.79-11.12,1.78-2.8,3.1-5,4-6.4s1.27-2.13,2.19-2.37C104.47,290.5,107,292.34,107,294Z"/>
    <path d="M133,97.83c.49-2.3-1.63-4-3.73-7.16-1.44-2.17-2.38-5-4.25-10.72a80.55,80.55,0,0,1-3.71-15.46,54.26,54.26,0,0,1-.44-14.4c.37-3.23,1.41-6.53,3.44-13.13a41.46,41.46,0,0,1,2.91-6.47c1.22-2.29,1.91-3.18,3-3.59s1.65,0,4,0a15.81,15.81,0,0,0,4-.48,13.34,13.34,0,0,0,5.71-3.53c1.8-1.64,2.85-2.61,3.06-4.22.16-1.32-.23-3.13-1.31-3.62s-2.13.52-2.71-.06c-.27-.26-.14-.58-.16-1.93s0-2.15-.29-2.41c-.86-.92-3.13.66-4.12-.33-.41-.41-.11-.76-.55-1.66a3.88,3.88,0,0,0-2.34-2c-1.58-.41-3.05.81-4.17,1.73a12.48,12.48,0,0,0-3.3,4.53c-1.16,2.39-2.06,4.25-1.6,6.41.27,1.3.89,2,.61,3.2a4.92,4.92,0,0,1-1.6,2.38,32.81,32.81,0,0,0-3.24,5.07,37.94,37.94,0,0,0-3.25,7.91,53.39,53.39,0,0,0-1.68,6.07,55.29,55.29,0,0,0-1,8.52A72.77,72.77,0,0,0,116,63.53a60.92,60.92,0,0,0,1.27,8.71A79.58,79.58,0,0,0,120,81.82c.67,2,2.19,5.65,5.18,12.83,1.75,4.17,2.65,6.26,4.06,6.42S132.58,99.61,133,97.83Z"/>
    <g>
      <path class="cls-1" d="M119.48,108.61c.3-.28,2.79-2.47,6.13-5.54,2.43-2.23,4.43-4.09,5.8-5.39,2.37-2.19,5.88-5.51,10-9.64C154,75.58,158.28,69.21,165.31,62.21c15.06-15,22.59-22.49,35-27.29,16.5-6.4,31.44-4.24,38.56-3.12,8.17,1.28,30.13,4.72,44.79,23,7.27,9,9.93,18.22,11.43,23.41,3,10.29,2.85,19.64,2.47,37.91-.24,11.39-.74,11-1.57,30.11-.36,8.37-.8,18.86-.88,32.07-.12,18.86.65,19.41.24,31.38a265.62,265.62,0,0,1-3.3,34.09c-2.59,15.58-4.43,26.62-10.59,40-4.12,9-9.28,20.21-21.19,30.38a75.26,75.26,0,0,1-30.54,15.45c-4,1-12.46,2.69-26.81,1.66A134.18,134.18,0,0,1,178,327.07a168.72,168.72,0,0,1-28.24-10.16c-15.56-7-34.06-15.41-54.72-32-14.4-11.55-23.83-19.29-31.2-33.6a81.4,81.4,0,0,1-9-38.48c.4-16.11,5.81-27.54,11.26-38.75C80.47,144.42,102.41,124.28,119.48,108.61Z"/>
      <path class="cls-2" d="M121.83,110.64c3.29-3.1,6-5.59,7.89-7.23s3.73-3.44,6-5.59c1.79-1.73,4.29-4.18,7.21-7.17C155.24,78,156.08,75.31,165.76,65.54,180.19,51,187.41,43.69,199.27,39c15.82-6.22,30.14-4.12,37-3,7.84,1.25,28.88,4.59,43,22.33,7,8.79,9.52,17.71,11,22.74,2.86,10,2.74,19.1,2.37,36.86-.23,11.07-.71,10.7-1.5,29.27-.34,8.14-.76,18.33-.84,31.18-.11,18.32.63,18.86.24,30.5A262.86,262.86,0,0,1,287.25,242c-2.48,15.15-4.24,25.89-10.14,38.93-3.95,8.71-8.9,19.64-20.31,29.52a71.63,71.63,0,0,1-29.28,15c-3.87,1-11.94,2.61-25.69,1.61-21.71-1.57-37.83-8.32-51-13.95C121.65,300.62,103,285.78,98.38,282c-13.8-11.23-22.84-18.75-29.91-32.67a80,80,0,0,1-8.64-37.41c.38-15.65,5.56-26.76,10.79-37.66C83.86,146.65,103.36,128.07,121.83,110.64Z"/>
      <path class="cls-3" d="M123.66,112.38c6-5.61,11.37-10.12,20.35-19.32,11.94-12.25,12.75-14.82,22.1-24.27C180.06,54.71,187,47.67,198.5,43.16c15.29-6,29.13-4,35.72-2.93,7.57,1.21,27.92,4.44,41.5,21.58,6.74,8.5,9.21,17.12,10.6,22,2.77,9.67,2.64,18.45,2.29,35.61-.22,10.71-.68,10.34-1.44,28.3-.34,7.86-.75,17.71-.82,30.12-.1,17.72.61,18.24.23,29.48a253.88,253.88,0,0,1-3.05,32c-2.4,14.65-4.1,25-9.81,37.63-3.81,8.42-8.59,19-19.62,28.53A69.44,69.44,0,0,1,225.8,320c-3.74.93-11.54,2.52-24.82,1.56-21-1.52-36.57-8-49.28-13.49C123.49,296,105.46,281.65,101,278c-13.34-10.85-22.08-18.12-28.91-31.57a77.48,77.48,0,0,1-8.36-36.16c.38-15.13,5.38-25.86,10.43-36.4C87.52,146,107.85,127.09,123.66,112.38Z"/>
    </g>
    <g>
      <path class="cls-4" d="M134.27,181.6c5.92-5.75,11.34-9.09,16.61-12.33,7.3-4.5,13.12-8,21.67-9.79a42.49,42.49,0,0,1,16.76-.59,43.26,43.26,0,0,1,18.74,8.51,53.48,53.48,0,0,1,9.63,9.37c6.32,7.86,8.92,15.38,10.71,20.73a75.2,75.2,0,0,1,4.27,27.33,72.13,72.13,0,0,1-6.53,27.84,67.3,67.3,0,0,1-23.85,27.71c-4.82,3.14-11.46,7.36-21.12,8.66-10.72,1.44-18.93-1.56-26-4.13a74.64,74.64,0,0,1-29.13-19.36c-5.29-5.77-11.47-12.52-14.1-23.29-3.08-12.66.64-23.16,3.68-31.72A76.91,76.91,0,0,1,134.27,181.6Z"/>
      <path class="cls-5" d="M151.17,180.63a57.16,57.16,0,0,1,11.27-7.6A40.12,40.12,0,0,1,176,168.38a30.45,30.45,0,0,1,14.74,1.11c5.92,2.06,9.5,5.56,12.6,8.59a48.71,48.71,0,0,1,9.3,12.92c4,8,4.75,14.94,5.29,20.23s1.14,11-.69,18.09c-1.25,4.85-3.11,8.27-5.42,12.55a64.54,64.54,0,0,1-8.77,13c-3.11,3.51-6.43,7.24-12,10.22a37.77,37.77,0,0,1-20.25,4.18,44.36,44.36,0,0,1-17.21-4.8c-5.14-2.4-15-7-21.84-17.78A42.59,42.59,0,0,1,124.93,225C124.44,203.59,141.68,188.78,151.17,180.63Z"/>
      <path class="cls-6" d="M151.51,186.79c2.13-3.85,5.46-5.67,8.78-7.43a38.68,38.68,0,0,1,12.22-4.08c4-.6,14.23-1.49,14.9.85,1.29,4.56-34.14,20.86-37.39,16.16C149.15,191,150.61,188.41,151.51,186.79Z"/>
      <path class="cls-7" d="M165.84,273.93c2.9-2.6,6.61.6,14.32-.19a32.42,32.42,0,0,0,13.9-5.2c6-3.71,8.26-7.55,9.22-6.92s-.22,6.09-3.81,9.72c-3,3-6.1,3.28-12.83,4.82-15.22,3.49-20.2,7-22.14,4.59C163.19,279.14,163.94,275.64,165.84,273.93Z"/>
    </g>
    <path class="cls-8" d="M190.24,94.92a14,14,0,1,1,25.92,10.77"/>
    <path class="cls-8" d="M238.68,115.36a14,14,0,0,1,25.4,11.94"/>
    <ellipse class="cls-9" cx="175.22" cy="101.15" rx="6.25" ry="11.43" transform="translate(-16.36 166.19) rotate(-48.75)"/>
    <ellipse class="cls-9" cx="265.17" cy="140.68" rx="11.43" ry="6.25" transform="translate(-6.67 13.37) rotate(-2.85)"/>
    <path class="cls-10" d="M216.54,144.42c-3.3,3.08-6.87,4.94-8.8,4.15s-3-4.4-3.16-8.72c-.3-6.87,1.76-15.5,6.86-17.36,4.05-1.47,10,1.36,11.78,5.45C225.47,133,221.3,140,216.54,144.42Z"/>
    <path class="cls-11" d="M211.85,161.67c-3.83,2-10.07-.06-12.39-3.88-3-5,.69-12.94,5.12-17.94.18,4.32,1.3,7.94,3.16,8.72s5.5-1.07,8.8-4.15C217.5,151.06,216.46,159.27,211.85,161.67Z"/>
    <path class="cls-9" d="M216.54,144.42c-3.3,3.08-6.87,4.94-8.8,4.15s-3-4.4-3.16-8.72c2.71-3.06,5.69-5,7.56-4.52C214.22,135.9,215.87,139.77,216.54,144.42Z"/>
    <path d="M297.7,165.24s.63-.31,2.71-1.43a45.56,45.56,0,0,0,5.91-4,78.63,78.63,0,0,0,6.48-5.57c4.95-4.62,7.44-6.91,9.13-8.85a57.88,57.88,0,0,0,9.53-13.76,52.58,52.58,0,0,0,4.28-13.59c.74-3.9-.07-1.87.68-9.31a5.68,5.68,0,0,0-.51-3.69c-.79-1.33-1.92-1.54-3.45-2.5a14.34,14.34,0,0,1-4.65-5.24c-1.12-1.88-3.06-5.13-1.82-7.64a3.7,3.7,0,0,1,2.4-2c.95-.19,1.39.63,2.2.38s.68-1.33,1.8-2.17a3.52,3.52,0,0,1,3.26-.54,13.57,13.57,0,0,0,1.55.81,2.14,2.14,0,0,0,1.36.23c.69-.22.62-.93,1.38-1.39a2.56,2.56,0,0,1,1.85-.2,3.59,3.59,0,0,1,2.07,1.55,7.4,7.4,0,0,1,1.2,3.66,19.54,19.54,0,0,1,.13,4.16,15.36,15.36,0,0,1-.66,3.86c-.6,1.87-.9,2.81-1.78,3.54-.48.4-1.1.71-1.38,1.5a2.73,2.73,0,0,0-.1,1.26c.07,1,0,2,.1,3a42.82,42.82,0,0,1,.15,5.3,42.17,42.17,0,0,1-.42,5.26A38.15,38.15,0,0,1,340,124.1a50.56,50.56,0,0,1-2.71,6.57c-1.09,2.4-1.63,3.6-2.35,4.87a61.52,61.52,0,0,1-3.66,5.58c-1.51,2.15-2.27,3.22-3.24,4.46-.51.65-1.13,1.39-5.55,6.11-2.89,3.09-3.38,3.58-3.77,4-2.13,2.08-3.89,3.54-4.59,4.12a69.15,69.15,0,0,1-5.63,4.15c-1.36.93-3.14,2-6.66,4.19-1.33.82-2.69,1.58-4,2.44-2,1.32-2.48,1.81-3,1.6-1.14-.46-1.49-3.83,0-5.41C295.29,166.25,295.59,166.28,297.7,165.24Z"/>
    <path class="cls-12" d="M225.85,310.28c4.75,4.08,18.45-5.48,19.32-6.1,7.59-5.39,11.62-11.79,14.23-15.93,3.1-4.93,4.71-9.36,7.93-18.2,2.89-8,2.85-9.73,2-10.43-1.56-1.29-6.18.85-9.15,4-4.71,5-2.3,9.33-5.5,17.22-.31.79-5,11.86-15.48,17-7.09,3.47-13.1,2.41-14.65,6.48A5.72,5.72,0,0,0,225.85,310.28Z"/>
    <path class="cls-13" d="M205.52,306.89c2.93-1.33,8.14-2.16,10.53.84a5.67,5.67,0,0,1,.7,5.94c-2.74,4.87-15.94,3.42-17.05-.19C199,311.32,202.63,308.19,205.52,306.89Z"/>
    <path class="cls-12" d="M76.41,228.86c-7.93-5.57-9-20.44-6.29-31.69,1.15-4.85,4.08-10.23,9.92-21,7.92-14.56,5.37-10.42,9-17,1.76-3.18,5.18-9.55,7.86-9.92,1.87-.26,4.19,1.32,5,3.35,1.58,3.81-2.87,7.34-9,17.51-3.35,5.5-5.28,9.9-9.15,18.69s-4.4,11.43-4.63,13.76c-.43,4.17-1,10.09,2.33,14.9,1.51,2.16,3,2.94,3.68,5.59s.35,6.3-1.78,7.51C80.86,232,77.07,229.33,76.41,228.86Z"/>
    <path class="cls-12" d="M263.05,63.78a21.74,21.74,0,0,1,8.31,3.75,22.67,22.67,0,0,1,4.52,4.83A32.53,32.53,0,0,1,280.21,80a30.69,30.69,0,0,1,2.07,8.8,22.42,22.42,0,0,1-.47,6.78c-.53,2.34-.94,4-2.34,4.65-1.55.71-3.44-.24-4.41-1a7,7,0,0,1-2.25-5.08c-.25-3,1-3.55,1.33-6.52a13.18,13.18,0,0,0-3.54-10.19,21,21,0,0,0-5.25-3.46c-1.78-1-2.52-1.13-4.35-2.26-2.19-1.34-3.3-2-4-3.4s-1.21-3.65-.14-4.77S259.9,62.94,263.05,63.78Z"/>
  </g>
</svg>
