<svg id="Layer_1" data-name="Layer 1" xmlns="http://www.w3.org/2000/svg" width="401.52" height="448.82" viewBox="0 0 401.52 448.82">
  <defs>
    <style>
      .cls-1 {
        fill: #1d1d1b;
      }

      .cls-2 {
        fill: #f6cd72;
      }

      .cls-3 {
        fill: #daa768;
      }

      .cls-4 {
        fill: #f4e2bb;
      }

      .cls-5, .cls-8 {
        fill: none;
      }

      .cls-5 {
        stroke: #1d1d1b;
        stroke-linecap: round;
        stroke-miterlimit: 10;
        stroke-width: 6px;
      }

      .cls-6 {
        fill: #e8483e;
      }

      .cls-7 {
        fill: #7d170f;
      }

      .cls-9 {
        fill: #fff;
      }

      .cls-10 {
        fill: #fada9f;
      }
    </style>
  </defs>
  <g>
    <path class="cls-1" d="M330.55,332.08c-.08,1,.72,1.45,2.1,3.39.54.75.48.77,2.91,5.49,2.52,4.9,2.39,4.49,2.74,5.33a66.47,66.47,0,0,1,2.1,6.45c1.66,5.37,1.73,5.51,1.94,6.46a49.13,49.13,0,0,1,1,6.94c.48,5.3.07,6.63-.16,7.27a14,14,0,0,1-1.94,3.39,19.77,19.77,0,0,1-3.23,3.39,24.46,24.46,0,0,1-4.84,3.39,23.84,23.84,0,0,1-5.65,2.09,37.37,37.37,0,0,1-5,.65c-2.34.22-4.35.41-7.1.48a40.81,40.81,0,0,1-7.43-.16,38.2,38.2,0,0,1-6.78-1.77c-1.82-.62-3.67-1.14-5.49-1.78s-2.18-.82-2.74-.64c-1.42.46-1.69,2.5-2.91,6.61-.82,2.79-1,2.87-1.77,5.33-.51,1.68,0,.12-1.29,5.65-.31,1.32-.56,2.34,0,3.23a2.36,2.36,0,0,0,1.77,1.13c.93.05,1.72-.65,3.55-3.07s2.33-3.42,3.39-4.84c1.63-2.17,2.48-3.26,4-4.2a11.48,11.48,0,0,1,4.84-1.45c2.46-.28,3.85.14,6.46.48a51.33,51.33,0,0,0,8.39.33,39.26,39.26,0,0,0,10.17-1.13A31.62,31.62,0,0,0,338,387a22.89,22.89,0,0,0,6.13-5,21.14,21.14,0,0,0,4.36-9.36c.55-2.88.26-5.15-.32-9.69A58.93,58.93,0,0,0,345.57,351a74.33,74.33,0,0,0-5.33-11.63c-3.49-6.66-3.57-5.28-4.36-7.74-.29-.92-.58-2-1.45-2.35C333.06,328.75,330.69,330.39,330.55,332.08Z"/>
    <path class="cls-1" d="M263.17,367.15c-1.12,1.34-.34,3,0,7.15a49.66,49.66,0,0,1,0,6.82,78.92,78.92,0,0,1-1,9.41,54.05,54.05,0,0,1-1.49,7.08,28.44,28.44,0,0,1-3,7.32,15.24,15.24,0,0,1-3,3.91,15,15,0,0,1-6.68,3.23,25.36,25.36,0,0,1-9,.69,30.73,30.73,0,0,1-8.76-2.3,44.26,44.26,0,0,1-12-6.45c-5.76-4.48-8.64-6.72-9.67-8.3-.28-.42-1.14-1.8-2.32-1.81-.86,0-1.47.7-2.59,1.93s-2.42,2.54-3.55,3.88c-2,2.36-3,3.54-4.2,4.84-2.13,2.28-3.05,2.93-3.71,4.68-.25.68-.92,2.45-.16,3.23s2.91.07,4.36-.48c2.46-.94,2.68-1.66,5.65-3.23a32.55,32.55,0,0,1,5.49-2.26c1.87-.63,2.83-.94,3.71-.81,1.75.26,2.3,1.44,4.52,3.23a29,29,0,0,0,5.81,3.39,62,62,0,0,0,6.62,2.74A48.22,48.22,0,0,0,235,417.3a32.11,32.11,0,0,0,7.43.65c3.6,0,5.88,0,8.71-1a18.83,18.83,0,0,0,8.56-5.65c1.67-2,2.53-4,3.87-8.23,1.46-4.65,3.16-9.29,3.88-15.82.21-1.93,0-1.27.32-13.4,0-1.46-.14-2.91-.16-4.36,0-2.11,0-2.8-.49-3.23C266.29,365.55,264.19,365.94,263.17,367.15Z"/>
    <path class="cls-1" d="M334.39,38.72c1.1.47,1.77,1.3,3.61,5a59.54,59.54,0,0,1,4.06,9,44.83,44.83,0,0,1,1.81,13.1,66.55,66.55,0,0,1-.9,12.64,78.29,78.29,0,0,1-5,16.72c-2.18,5.55-5.66,7.47-5.87,12.64-.09,2,.2,5.15,1.35,5.42,1.69.41,4.46-5.47,6.33-9.48C342.67,97.6,345.26,92,347,83.43c1.25-6,3.19-15.76.91-27.1a46,46,0,0,0-4.3-12.4c-1.45-2.74-3.41-6.45-5.2-7.67a3.54,3.54,0,0,1-1.24-1.39,5,5,0,0,1-.21-2.4,26.17,26.17,0,0,0,.11-3.06,7.28,7.28,0,0,0-1.1-2.72,27.17,27.17,0,0,0-2.4-3.28c-1.53-2.06-1.66-2.51-2.51-2.94a3.46,3.46,0,0,0-2.62-.33A4.41,4.41,0,0,0,326.4,22c-.47.71-.38.94-.76,1.2-.76.52-1.39-.16-2.41.22a3.22,3.22,0,0,0-1.63,1.86,3.1,3.1,0,0,0-.33,2c.13.61.43.76.33,1.09-.17.54-1,.39-1.75,1A3,3,0,0,0,319,31.6a4.54,4.54,0,0,0,1.85,3.16A12.49,12.49,0,0,0,324.76,37a22.76,22.76,0,0,0,3.17,1.2C331.34,39.05,332.49,37.92,334.39,38.72Z"/>
    <g>
      <path class="cls-2" d="M375.25,285a38.85,38.85,0,0,1-3,9.59,54.75,54.75,0,0,1-4.79,7.79,51.37,51.37,0,0,1-12.28,13.18c-2.4,1.93-4.13,3.18-9,6.59-6.78,4.76-12.25,8.55-12.89,9-10.08,7-9.1,6.36-10.78,7.49,0,0-8.23,5.53-18.28,11.09-8.24,4.56-12.37,6.06-41.05,18-16.21,6.73-19,8-26.37,10.78-8.79,3.38-2.7.82-24.87,8.69-6.56,2.33-10,3.58-15.28,4.2s-11,1.27-17.08-1.5c-6.56-3-9.9-8.24-12.28-12C163,371.15,162,364.68,161,358.44a95.37,95.37,0,0,1-.9-15,146.84,146.84,0,0,0-3.9-29.67,160.94,160.94,0,0,0-10.48-32.06,173.31,173.31,0,0,0-13.19-23.67c-7-11-11.68-18.39-20.07-26.36-6-5.74-6.52-4.68-15.28-12.59s-13.29-12-17.68-18.88a61.51,61.51,0,0,1-9.29-25.46,58.44,58.44,0,0,1,1.5-20.68,57.8,57.8,0,0,1,7.19-16.78A56.88,56.88,0,0,1,92.7,122.63c7.09-5.46,13.4-8,22.77-11.68,4.15-1.65,8.76-3.09,18-6,13.85-4.36,18.35-5.34,27.57-9,5.9-2.32,8.93-3.54,12.88-6,1.69-1,6.38-4.07,14.38-12.28,1.35-1.39,4.3-4.47,14.39-16.78,9.24-11.3,10-12.65,13.78-16.18a60.88,60.88,0,0,1,13.78-10.19,58.35,58.35,0,0,1,16.48-5.69,56.93,56.93,0,0,1,17.68-.6,51.07,51.07,0,0,1,11.68,3c3.62,1.41,12.74,5.08,19.48,13.78a79.81,79.81,0,0,1,5.09,8.09c2.27,3.85,3.77,6.75,6.3,11.68,5.33,10.41,5.88,11.56,6.89,13.49,2,3.79,3.3,6,15.28,24.57,9.23,14.32,9.7,15,11.68,18.27,0,0,6.25,10.42,11.09,20.08,10.48,20.92,15.52,41.12,18.28,52.43,4.08,16.74,5.43,28.61,7.49,46.74a128.51,128.51,0,0,1,.9,23.68C378.09,271.41,377.09,276.22,375.25,285Z"/>
      <path class="cls-3" d="M118.34,125.86a76.78,76.78,0,0,1,11.18-4.74c6-2.1,8.74-2.42,14.91-4.06,5.31-1.42,4.93-1.63,18.29-6.1,16.28-5.45,16.46-5,21-7.12a88.23,88.23,0,0,0,16.94-10.5,89.61,89.61,0,0,0,20-21.34c3.31-5,4.81-8.5,10.16-15.59,4.43-5.87,6.8-8,8.81-9.48,4.61-3.44,8.88-4.82,12.87-6.1a48.21,48.21,0,0,1,16.26-2.71,51.5,51.5,0,0,1,13.89,2.37c5.59,1.54,9.12,2.51,12.88,5.42,2.53,2,3.94,3.91,6.77,7.79a89.1,89.1,0,0,1,7.46,12.54c3.67,7.18,3.83,8.7,6.43,13.89,2.79,5.56,4.68,8,9.49,15.24,6.88,10.4,6.49,10.16,6.81,10.67,5.4,8.61,9.23,15.29,11.82,19.82,4.68,8.2,7.08,12.38,9.15,16.94,1.15,2.55,2.78,6.33,5.76,14.91,2.27,6.53,6,17.68,10.16,33.54,2.39,9,3.86,14.57,5.42,22.7a206,206,0,0,1,3.39,23.71,215.45,215.45,0,0,1,.34,26.09c-.3,10.12-.48,15.29-2,20.33-.5,1.61-1,3-1.14,3.27a50.06,50.06,0,0,1-5.17,9.93c-1.07,1.58-2,2.77-2.5,3.4a49.5,49.5,0,0,1-3.35,3.68,59.6,59.6,0,0,1-5.46,4.79c-7.19,5.57-10.76,8.4-16.6,12.53-5,3.52-9.07,6.41-14.91,10.16s-10.09,6.24-16.26,9.83c-8.41,4.89-12.86,7.49-19.31,10.84-9.94,5.17-17.81,8.61-23.71,11.18-4.09,1.78-8.67,3.76-14.91,6.1-2.29.85-5.37,1.92-11.52,4.06-9.15,3.18-11.48,3.9-13.21,4.41A75.75,75.75,0,0,1,217.61,381c-4.39.62-9.08,1.29-14.57-.34a21.68,21.68,0,0,1-10.5-6.1,34.94,34.94,0,0,1-7.06-15.22c-1.76-8.5-.71-10.91-1.32-19.79-.2-2.89,0-6.68-1.45-18.86-2.15-18.33-2.9-17.13-4.06-22-2.94-12.33-7.28-20.72-13.22-32.18A201,201,0,0,0,138,225.81c-3.79-4.26-8-9.68-14.9-14.91-4.37-3.31-5.24-3.16-8.81-5.76a51.34,51.34,0,0,1-18-23.38,48.46,48.46,0,0,1-2-25.4,40.26,40.26,0,0,1,6.85-16.85C106.45,132.21,113.21,128.61,118.34,125.86Z"/>
      <path class="cls-4" d="M106.86,144.41a32.55,32.55,0,0,1,5.53-6.54c3.16-2.82,6.06-4.23,12.57-7,7-3,10.53-4.54,14.57-6,6.4-2.35,10.36-3.58,19.61-6.53,14.36-4.59,21.6-6.91,24.12-8a105.61,105.61,0,0,0,19.6-11.56A91.8,91.8,0,0,0,216.44,86.6c4.63-5.07,4.38-6,15.58-21.61,6.13-8.54,8.77-11.82,13.57-14.58a45.58,45.58,0,0,1,10-4,52.3,52.3,0,0,1,13.07-2A48.76,48.76,0,0,1,285.3,46.9c4.24,1.45,8.28,2.83,12.06,6.53,2.32,2.27,3.56,4.53,6,9,2.26,4.12,2.7,5.75,5.53,12.06,1.22,2.73,3.47,7.74,6.53,13.57,1.63,3.1,4,7.57,7.54,13.07,3.23,5,3.48,4.7,7,10,1.7,2.56,2.3,3.61,9.05,15.08,6.45,11,6.7,11.37,7.54,13.07,1.82,3.72,3.25,7.39,6,14.58,1.41,3.64,2.85,7.35,4.52,12.06,1.77,5,4.65,13.49,7.54,24.12a282.28,282.28,0,0,1,7.52,34.93,179.75,179.75,0,0,1,2.47,28.33c0,14.24,0,22.7-4.52,32.44-4,8.61-9.51,13.89-15.6,19.71s-12.06,9.68-23.82,17.25c-3.76,2.42-12.31,7.84-24.64,14.78C294,344.39,286,348.91,274.5,354c-11.29,5-10.46,3.7-26.69,10.67a148.9,148.9,0,0,1-18.07,7c-3.49,1-9.1,3.4-16.42,3.7a19.56,19.56,0,0,1-7.32-.81,19.23,19.23,0,0,1-8.57-6.09c-4.2-4.83-5.1-10.26-5.88-14.74-.25-1.43-.41-4.27-.72-10-.5-9.21-.29-9.88-.74-14.61-.27-2.91-.68-5.64-1.48-11.12s-1.18-8.07-1.68-10.52c-.92-4.42-2.11-7.8-4.45-14.57s-4.21-11.43-4.62-12.44c-.9-2.24-3-7.41-5.86-13.33a195.13,195.13,0,0,0-11.91-21,283.85,283.85,0,0,0-19.54-26.47,51.09,51.09,0,0,0-9.78-9.6c-2.8-2-3.73-2.19-6.93-4.62a64.21,64.21,0,0,1-8.7-8.17,59.37,59.37,0,0,1-7.82-9.78,38.53,38.53,0,0,1-4.44-9.24,36.75,36.75,0,0,1-1.6-12.08C101.3,161.84,101.35,153,106.86,144.41Z"/>
    </g>
    <path class="cls-5" d="M214,211a12.25,12.25,0,1,1,22-10.81"/>
    <path class="cls-5" d="M279.65,177.54a12.26,12.26,0,1,1,22-10.81"/>
    <ellipse class="cls-6" cx="226.07" cy="225.68" rx="15" ry="10.62" transform="translate(-58.3 80.17) rotate(-17.85)"/>
    <ellipse class="cls-6" cx="307.5" cy="186.25" rx="15" ry="10.62" transform="translate(-51.93 178.7) rotate(-30)"/>
    <path class="cls-7" d="M293.27,208.67a20.22,20.22,0,0,1-1,5.07,23,23,0,0,1-2.72,5.61,26.17,26.17,0,0,1-10.68,9c-3.28,1.72-8.32,4.36-15,3.67a21.41,21.41,0,0,1-4.69-.94,19.09,19.09,0,0,1-6.32-3.39,23.22,23.22,0,0,1-5.35-6.68c-2.07-3.38-2.79-5.2-2.67-7.34a5.48,5.48,0,0,1,3.27-4.58,16.71,16.71,0,0,1,3.43-1.44c2.57-.79,5.3-1.2,7.66-2,.31-.1,1.11-.37,2.13-.76a58.57,58.57,0,0,0,8.21-3.91c6-3.39,9-5,11.34-7.34a11.14,11.14,0,0,1,.83-.77,5.29,5.29,0,0,1,2.51-1.23,6.78,6.78,0,0,1,5.67,2c1.6,1.57,2,3.85,2.67,8.34A33,33,0,0,1,293.27,208.67Z"/>
    <path class="cls-8" d="M281.74,192.88a11.14,11.14,0,0,0-.83.77c-2.35,2.31-5.38,3.95-11.34,7.34a58.57,58.57,0,0,1-8.21,3.91c-1,.39-1.82.66-2.13.76-2.36.79-5.09,1.2-7.66,2a8.63,8.63,0,0,1,4.57-9.34l15.18-7.59A8.61,8.61,0,0,1,281.74,192.88Z"/>
    <path class="cls-9" d="M279.33,206.71l-15.17,7.61a8.62,8.62,0,0,1-11.52-3.83l-.33-.66a8.38,8.38,0,0,1-.74-2.18c2.57-.79,5.3-1.2,7.66-2,.31-.1,1.11-.37,2.13-.76a58.57,58.57,0,0,0,8.21-3.91c6-3.39,9-5,11.34-7.34a11.14,11.14,0,0,1,.83-.77,8,8,0,0,1,1.09,1.67l.33.65A8.59,8.59,0,0,1,279.33,206.71Z"/>
    <path class="cls-8" d="M288.71,248.68c-12.32,5.18-25.41,2-29.27-7.15a14.79,14.79,0,0,1-.23-10.45,21.41,21.41,0,0,0,4.69.94c6.69.69,11.73-2,15-3.67a26.17,26.17,0,0,0,10.68-9,23,23,0,0,0,2.72-5.61c5.42,1.24,9.77,4.36,11.73,9C307.89,231.88,301,243.49,288.71,248.68Z"/>
    <path class="cls-6" d="M292.31,213.74a23,23,0,0,1-2.72,5.61,26.17,26.17,0,0,1-10.68,9c-3.28,1.72-8.32,4.36-15,3.67a21.41,21.41,0,0,1-4.69-.94c2.06-6.24,7.7-12.17,15.56-15.49A28.92,28.92,0,0,1,292.31,213.74Z"/>
    <path class="cls-10" d="M119.46,158.52c.17-2.13,1.47-3.48,2.87-4.94s3.31-3.43,4.94-2.88,2.09,3.27,2.06,4.94c-.09,4.55-4.27,9.29-7,8.63C120.48,163.83,119.26,160.87,119.46,158.52Z"/>
    <path class="cls-10" d="M139.39,150.63c3,1,4.08,2.63,5.36,2s1.74-3.26,1.15-5.13c-.82-2.58-3.46-3.6-5.36-4.34-2.16-.84-6.46-2.51-9.18,0-1.76,1.62-2.66,4.81-1.53,6.31C131.21,151.29,134.32,148.84,139.39,150.63Z"/>
    <path class="cls-10" d="M182.58,120.91c1.67-1.59,5.83-5.09,11.22-4.8.27,0,4.84.28,5.21,2,.44,2-5.33,4.73-7.21,5.61-3.21,1.5-6.7,3.13-8.42,1.6C182.16,124.24,182.38,122,182.58,120.91Z"/>
    <path class="cls-10" d="M237.89,76.83c-1.44-.77-1.07-5.76,1.6-8.41,1-1,2.93-2.26,4-1.61s.77,3.14.4,4.41C242.88,74.68,239.27,77.57,237.89,76.83Z"/>
    <path class="cls-10" d="M247.91,72.42c.24-1.47,3.28-2.3,5.61-2s4.9,1.78,4.81,3.21-3.33,2.88-6,2.4C250.07,75.63,247.67,73.84,247.91,72.42Z"/>
    <path class="cls-10" d="M295.19,64.41a76.12,76.12,0,0,1,7.22,8c4.81,6.18,8.41,10.92,7.21,15.63-.49,1.93-1.89,4.25-3.6,4.41-3,.28-5.72-6.11-6-6.81-1.86-4.48-.34-5.56-2.4-9.22a28.78,28.78,0,0,0-4.81-6c-1.45-1.34-2.49-2-3.21-3.61s-1.05-4,0-4.81S293,62.1,295.19,64.41Z"/>
    <path class="cls-10" d="M352.1,173.81c3.13.12,5.65,5.24,4.81,9.22-.05.23-.86,3.89-3.21,4.41-2.89.64-7.33-3.68-6.81-8C347.23,176.59,349.7,173.72,352.1,173.81Z"/>
    <path class="cls-10" d="M360.52,197.06c-1.1,0-2.9,3.76-1.2,6.41.9,1.41,2.81,2.55,3.6,2C364.44,204.43,362.1,197,360.52,197.06Z"/>
    <path class="cls-10" d="M365.33,273.6c.23,5.42-1.54,9.46-3.61,14-1.81,4-4.26,9.27-9.62,13.62-.68.56-5.17,4.22-6.41,3.21-1-.85.46-4.81,2.4-7.61,2.1-3,3.37-2.76,5.61-5.61,2-2.49,2.67-4.8,4-9.22,1.14-3.73,1-4.54,2.41-9.62,1.3-4.55,2-6.83,2.8-6.81C364.07,265.61,365.17,269.9,365.33,273.6Z"/>
    <path class="cls-10" d="M195,338.93c-.47,3.85-.68,5.8.4,6.81a4.06,4.06,0,0,0,4.4.4c2.66-1.39,2.91-5.89,1.61-8.82-1-2.28-3.38-4.53-4.81-4C195.66,333.66,195.43,335.42,195,338.93Z"/>
    <path class="cls-10" d="M198.21,354.15c-.57,1.43,2.41,4.07,4.81,5.21,3.76,1.8,7.35.52,8.82,0s4.48-1.59,4.41-2.8C216.07,353.81,199.4,351.17,198.21,354.15Z"/>
    <path class="cls-10" d="M211.84,364.57c-.29,1.41,3.33,3.74,6.81,4,4.9.39,9.23-3.32,8.82-4.81C226.78,361.31,212.37,362,211.84,364.57Z"/>
    <path class="cls-10" d="M324.66,314.67c1.66-1.59,5.82-5.09,11.22-4.81.26,0,4.84.29,5.21,2,.44,2-5.33,4.73-7.21,5.61-3.21,1.5-6.7,3.13-8.42,1.61C324.23,318,324.46,315.79,324.66,314.67Z"/>
    <path class="cls-10" d="M333,296.67c.24-1.48,3.29-2.31,5.61-2s4.91,1.79,4.81,3.21-3.32,2.89-6,2.4C335.12,299.87,332.72,298.09,333,296.67Z"/>
    <path class="cls-1" d="M126.62,230.12c-1.43-.1-1.78.21-4.66.67a60.23,60.23,0,0,1-7.72.64c-.81,0-3.12.11-8.47-.12C101,231.1,98,231,93.91,230.5a81,81,0,0,1-12.38-2.15A70.12,70.12,0,0,1,69.37,224a52.15,52.15,0,0,1-12.29-7.57,42.05,42.05,0,0,1-9-10.2c-3.14-5-2.88-6.71-4-8.54a1.59,1.59,0,0,1-.3-1.19c.12-.45.5-.64,1.08-1.09a8.72,8.72,0,0,0,1.69-1.73,6.31,6.31,0,0,0,.73-2.31,25.7,25.7,0,0,0,.4-3.12c.36-5.23-.13-6.16-.38-6.56a5.87,5.87,0,0,0-1.29-1.39,3.18,3.18,0,0,0-1.39-.72,2.55,2.55,0,0,0-1.89.32c-.65.48-.54,1.06-1,1.17s-.75-.66-1.76-1a4.35,4.35,0,0,0-2.49.13,3.14,3.14,0,0,0-1.37.53,3,3,0,0,0-.83,1.07c-.27.59-.13.81-.34.95-.44.29-1.11-.7-2.22-.65a2.58,2.58,0,0,0-1.68.89,3.21,3.21,0,0,0-.64,1.31,5.66,5.66,0,0,0-.21,2.43,7.88,7.88,0,0,0,.58,2,24.36,24.36,0,0,0,1.24,2.81,14.22,14.22,0,0,0,2.22,3.65A5.81,5.81,0,0,0,37,196.94c.82.19,1.43.08,2,.59a2.68,2.68,0,0,1,.63,1.53c.24,1,.7,2,1,3a22.06,22.06,0,0,0,2.23,4.74,39.17,39.17,0,0,0,5.08,6.92,49.5,49.5,0,0,0,6.7,6.19,55.32,55.32,0,0,0,7.86,5.18A74.07,74.07,0,0,0,71.37,229c2.65,1,4,1.57,6,2.16.84.25,1.88.53,8.16,1.74,4,.77,6,1.16,8.13,1.48,1.51.24,3.69.57,6.58.87,1.8.19,4.37.44,7.64.53a91.24,91.24,0,0,0,9.24-.28c5.68-.44,5.46-.91,10.58-1.22,3.9-.23,5.37,0,5.53-.63C133.52,232.72,130.24,230.36,126.62,230.12Z"/>
  </g>
</svg>
