<svg id="Layer_1" data-name="Layer 1" xmlns="http://www.w3.org/2000/svg" width="200" height="200" viewBox="0 0 200 200">
  <defs>
    <style>
      .cls-1 {
        fill: #f7cd74;
      }

      .cls-2 {
        fill: #f5e3bc;
      }

      .cls-3 {
        fill: #25b527;
      }

      .cls-4 {
        fill: #fff;
      }

      .cls-5 {
        fill: #fce02a;
      }

      .cls-6, .cls-7 {
        fill: #70f922;
      }

      .cls-6 {
        opacity: 0.77;
      }

      .cls-7 {
        opacity: 0.71;
      }

      .cls-8 {
        fill: #b6ffb4;
        opacity: 0.9;
      }
    </style>
  </defs>
  <g>
    <g>
      <path class="cls-1" d="M87.45,38.59A10.53,10.53,0,0,1,85.84,34c-.53-5.83,4.45-10.29,6.61-12.23a26.49,26.49,0,0,1,12.89-6.11c7.67-1.54,13.85.23,18.08,1.49,9.42,2.81,15.61,7.8,20.83,12a103.76,103.76,0,0,1,12.07,11.74,119,119,0,0,1,8.53,10.45A116.55,116.55,0,0,1,172,62.62,126,126,0,0,1,179.11,77a104.09,104.09,0,0,1,6.58,22.33c1.5,9,1,14.16.78,15.91a41.53,41.53,0,0,1-2.06,9,31.43,31.43,0,0,1-5.8,10.62,30.59,30.59,0,0,1-7.8,6.46,19.8,19.8,0,0,1-7.33,2.93c-2.38.38-4.88.78-7.39-.43s-3.23-3-5.61-3.13a5.47,5.47,0,0,0-2.57.57c-8.6,3.93-45.65,28-45.65,28-2.91,1.89-3.75,2.32-8.45,5.39A118.42,118.42,0,0,1,82,182c-3.55,1.82-5.37,2.73-7.64,3a15.74,15.74,0,0,1-9.92-2.49c-2.27-1.51-3.35-3.15-6.37-8.18-2.87-4.79-4-6.85-7.18-12.25-1.22-2.05-1.51-2.46-4.48-7.2-3.83-6.13-6.59-10.61-10.54-17-7.48-12.18-5.94-9.91-9.7-15.92-3.2-5.11-6.06-10.43-9.42-15.44a19.84,19.84,0,0,1-2.81-5s-2.13-6.13,1.55-14.72S46.67,58.82,87.45,38.59Z"/>
      <path class="cls-2" d="M20.75,92.7A12.41,12.41,0,0,0,20.22,98a13.61,13.61,0,0,0,2.22,6c6,9.37,11.17,19.28,17.26,28.61,4.31,6.59,6.46,9.89,9.18,15a201.78,201.78,0,0,0,14.41,23.5c1,1.38,2.62,3.78,5.66,4.87,4,1.45,8.14-.28,10-1.13,17.47-7.72,48.45-28.17,48.45-28.17s2.27-2.1,21.92-12.92a3.68,3.68,0,0,1,2.39-.55c1.46.26,1.78,1.58,3.38,2.74a8.1,8.1,0,0,0,4.23,1.41c2.49.2,4.4-.77,6.48-1.81a26.27,26.27,0,0,0,4.6-3.09,45,45,0,0,0,4.66-4.1c4-4.18,5.19-10,5.62-12,2.22-10.51-1.54-22.57-4-29.29A132.28,132.28,0,0,0,161,56.85S143.12,31.15,123.42,23a25.17,25.17,0,0,0-11.18-2.12,25.7,25.7,0,0,0-12.93,4.59,15.41,15.41,0,0,0-4,3.92,12.32,12.32,0,0,0-2.22,6.12c-.19,3.16,1.22,3.78.74,5.87-.52,2.25-2.58,3.43-5.93,5.52s-6.38,4.57-9.82,6.43-9.83,5.93-22.6,14.07c-11.62,7.4-10.34,7.08-16.74,10.86-2.35,1.38-4.43,2.77-8.58,5.54C24.05,87.85,21.8,89.64,20.75,92.7Z"/>
      <path class="cls-3" d="M110.83,30.12c4.07-1.18,10.39-2.94,17.76-1.3a39.61,39.61,0,0,1,8.38,3c2.84,1.31,4.37,2,5.82,3.53,1.85,1.89,2.66,4.07,3.54,7.72,1.09,4.57,1.31,7.41,2.23,16A97.21,97.21,0,0,0,150.32,71a30.82,30.82,0,0,0,1.79,6.27c1.3,3,2.57,4.11,7.21,9.5,0,0,3.17,3.68,7.53,9.08s5,6.54,5.58,7.74a19.56,19.56,0,0,1,2.39,9.56,20.61,20.61,0,0,1-2.74,9A18.61,18.61,0,0,1,168,128a13.74,13.74,0,0,1-6.38,3.65c-.82.18-2.07.36-8.21-.58-1.13-.18-3-.61-6.14-1.07l-1.48-.22c-4.29-.37-10.11,3.14-11,7.53-.28,1.35.12,1.71-.34,3.77a10.36,10.36,0,0,1-2,4.56,9.3,9.3,0,0,1-5.34,3.08c-2.53.55-3.82-.15-8.15-.8-3.74-.55-5.62-.82-7.15-.6-6.36.91-12.11,8.34-14.06,14.65a24.28,24.28,0,0,1-2.43,6.22c-1.08,1.86-2.34,4-4.72,5.28-1.6.86-3.87.81-8.35.67a56.38,56.38,0,0,1-8.79-.71c-4.65-.79-7-1.19-8.79-2.54-2.92-2.18-3.66-5.51-4.86-11.32-1.51-7.3-.3-8.57-1.81-15.79-.8-3.86-1.53-7.21-3.76-10.94-1.68-2.8-2.88-3.58-7.82-8.49-1.66-1.65-6.72-6.72-11.47-12.2a112.91,112.91,0,0,1-8.8-11.44c-4.81-7.18-5.48-10.07-5.69-11.14C20,87.17,19,82,21.76,78.22c1.75-2.4,5.14-3.34,11.87-5.13,5.54-1.48,11.08-2.47,13.22-2.84,7.89-1.35,9.62-1.16,11.95-3.11a18.56,18.56,0,0,0,4.82-7.4c.9-2.33.16-3.42,1.23-4.94,1.76-2.47,5.21-2.83,6.54-3,2.23-.24,2.51.28,7.33,1,6.59.94,8.54.31,9.54-.11a10.36,10.36,0,0,0,3.41-2.36c.9-.95,1.73-2.21,3.07-6.3,1.06-3.24,1.12-4.22,1.51-5.31C98,33.83,104.64,31.91,110.83,30.12Z"/>
      <path class="cls-4" d="M83,57.83C84.91,58,86.72,59,90.25,61c5.27,3,5,3.6,7.44,4.37,3.23,1,6.1.65,9.48.2,2.41-.33,2.21-.56,8.49-1.89a41.54,41.54,0,0,1,6.81-1.14c2.76-.1,5.1-.19,7.59,1.07,3.06,1.55,4.51,4.22,5.51,6.06a17.83,17.83,0,0,1,2.12,7.55c.07,1.74-.21,1.6-.36,4.76a64.73,64.73,0,0,0,.16,7.4,55.11,55.11,0,0,0,.62,6.84c.26,1.25.66,2.65,4.25,9.76a91.94,91.94,0,0,1,4.28,8.93c1.47,3.73,1.62,5.15,1.62,6.26a11.62,11.62,0,0,1-2.25,7c-1.43,1.85-3.1,2.62-6.37,4.09a63.51,63.51,0,0,1-8.93,2.94c-4.39,1.22-5.62,1.38-9.17,2.56-3.7,1.22-5,1.93-6.26,3a16.89,16.89,0,0,0-3.58,4.28,33.13,33.13,0,0,0-2.48,5.23c-1.21,2.91-1.21,3.41-2.16,5.31-1.09,2.17-1.63,3.25-2.48,3.9-2.36,1.78-6.15,1.27-8.66-.16-1.57-.9-2.59-2.44-4.64-5.51a57.4,57.4,0,0,1-4.16-7.4c-2.24-4.79-1.73-5.32-3.5-8.07a27.84,27.84,0,0,0-5-5.58,39.2,39.2,0,0,0-5.35-4,63.56,63.56,0,0,0-8.57-4.48c-5.48-2.54-5.93-2.49-10.54-4.65a62.32,62.32,0,0,1-9-4.76c-3.26-2.19-5.6-3.79-7.31-6.85-.84-1.5-2.47-4.4-1.61-7.59.72-2.71,2.86-4.23,4.72-5.51,3.64-2.5,5.64-2.21,13-4.6,5.29-1.71,8-2.6,9.84-4.56C65.9,83.5,66.67,81.12,68,77c1.62-5,1-5.83,2.64-9.87,1.22-3,2.17-5.23,4.61-7A11.8,11.8,0,0,1,83,57.83Z"/>
      <path class="cls-5" d="M97,80.86a20.49,20.49,0,0,1,10,2.51,21.12,21.12,0,0,1,9,10.74,21.89,21.89,0,0,1,1.3,13.47,22.06,22.06,0,0,1-24.06,16.69,21.56,21.56,0,0,1-12.15-5.75,22.22,22.22,0,0,1,4-34.75A22.13,22.13,0,0,1,97,80.86Z"/>
      <path class="cls-4" d="M86,117.14a1.13,1.13,0,0,1,.57.48c.53.74,1.45,1,3.17,1.42a17.84,17.84,0,0,0,3,.45,32.83,32.83,0,0,0,3.37.15,19.47,19.47,0,0,0,6.49-1.17c7.38-2.89,10-11.54,9.8-12.65a1.17,1.17,0,0,1,1.3-1.36c.57.21.52,1.53.5,2.16a11.83,11.83,0,0,1-1.54,5,19.75,19.75,0,0,1-3,4.27,17.85,17.85,0,0,1-2.58,2.34,16.75,16.75,0,0,1-4.39,2.34,18.26,18.26,0,0,1-4.72.95,28.76,28.76,0,0,1-5.74,0c-2.38-.24-5.84-.62-7.12-2.46-.19-.27-.6-.86-.38-1.36A1.12,1.12,0,0,1,86,117.14Z"/>
      <circle class="cls-4" cx="82.71" cy="115.87" r="1.27"/>
      <g>
        <g>
          <circle cx="93.09" cy="104.83" r="1.49" transform="translate(-40.65 62.78) rotate(-30.94)"/>
          <circle cx="123.55" cy="93.83" r="1.49" transform="translate(-30.66 76.88) rotate(-30.94)"/>
          <circle cx="110.22" cy="115.57" r="1.49" transform="translate(-43.74 73.12) rotate(-30.94)"/>
          <circle cx="104.86" cy="97.77" r="1.49" transform="matrix(0.86, -0.51, 0.51, 0.86, -35.35, 67.83)"/>
          <circle cx="114.21" cy="107.24" r="1.49" transform="translate(-38.89 73.99) rotate(-30.94)"/>
        </g>
        <circle cx="109.42" cy="90.07" r="1.49" transform="matrix(0.86, -0.51, 0.51, 0.86, -30.74, 69.08)"/>
        <circle cx="94.69" cy="95.46" r="1.49" transform="translate(-35.61 62.28) rotate(-30.94)"/>
        <circle cx="96.73" cy="123.66" r="1.49" transform="translate(-49.82 67.34) rotate(-30.94)"/>
        <circle cx="119.73" cy="80.45" r="1.49" transform="translate(-24.33 73.02) rotate(-30.94)"/>
        <circle cx="69.37" cy="104.15" r="1.49" transform="translate(-43.68 50.49) rotate(-30.94)"/>
        <circle cx="84.33" cy="90.22" r="1.49" transform="translate(-34.39 56.2) rotate(-30.94)"/>
        <circle cx="79.52" cy="114.7" r="1.49" transform="translate(-47.66 57.21) rotate(-30.94)"/>
        <circle cx="107.18" cy="72.31" r="1.49" transform="translate(-21.93 65.4) rotate(-30.94)"/>
        <circle cx="135.24" cy="116.23" r="1.49" transform="translate(-40.52 86.08) rotate(-30.94)"/>
      </g>
    </g>
    <path class="cls-6" d="M104.77,37.65c1-2.9,5.43-3.7,10.09-4.54a29.3,29.3,0,0,1,10-.33,26.66,26.66,0,0,1,8.92,2.94c1.13.63,6.84,3.79,6.27,6.05-.28,1.12-2.07,1.88-3.49,1.72s-2.32-1.3-3.22-2.22a16.77,16.77,0,0,0-9-4.38c-1.33-.25-5.45-1-9.21,1-1.14.61-1.86,1.27-4.71,2.83-3,1.66-3.79,1.78-4.38,1.49C104.76,41.62,104.17,39.34,104.77,37.65Z"/>
    <path class="cls-7" d="M64,155.79c-.38.26-.28,1-.1,2.22.52,3.43.77,5.14.85,5.37a12.13,12.13,0,0,0,2.48,4.85c2.58,2.78,7.5,4.19,9.46,2.37,1.09-1,1.35-3.16.49-4.11-1.05-1.18-2.88.47-4.91-.44-3-1.34-1.77-6.18-5.83-9.31C66.14,156.51,64.64,155.35,64,155.79Z"/>
    <path class="cls-8" d="M65.42,161.14c-.16.19.07.68.47,1.48,1.13,2.26,1.69,3.39,1.79,3.54a12.5,12.5,0,0,0,2.66,3.13c2.23,1.76,5.55,2.53,6.3,1.25a2.53,2.53,0,0,0-.67-2.75c-.92-.74-1.64.42-3.09-.12-2.14-.79-2.55-4-5.75-6C66.9,161.54,65.71,160.82,65.42,161.14Z"/>
    <path class="cls-8" d="M131.87,37.22c2.29-.24,4,1.77,5.06,3,1.48,1.71,2.74,4.18,2.2,4.66s-1.57-.81-4.8-2.51c-3.62-1.9-5.37-2.08-5.41-3S130.47,37.37,131.87,37.22Z"/>
  </g>
</svg>
