<svg id="Layer_1" data-name="Layer 1" xmlns="http://www.w3.org/2000/svg" width="400" height="400" viewBox="0 0 400 400">
  <defs>
    <style>
      .cls-1 {
        fill: #1d1d1b;
      }

      .cls-10, .cls-2 {
        fill: #f6cd72;
      }

      .cls-3 {
        fill: #daa768;
      }

      .cls-4 {
        fill: #f4e2a3;
      }

      .cls-5, .cls-8 {
        fill: none;
      }

      .cls-5 {
        stroke: #1d1d1b;
        stroke-linecap: round;
        stroke-miterlimit: 10;
        stroke-width: 6px;
      }

      .cls-6 {
        fill: #e8483e;
      }

      .cls-7 {
        fill: #7d170f;
      }

      .cls-11, .cls-9 {
        fill: #fff;
      }

      .cls-10 {
        opacity: 0.6;
      }

      .cls-11 {
        opacity: 0.42;
      }

      .cls-12 {
        fill: #fada9f;
      }
    </style>
  </defs>
  <g>
    <path class="cls-1" d="M316.79,301.77c-.07.93.64,1.31,1.89,3.05a47.74,47.74,0,0,1,2.62,4.94c2.27,4.41,2.15,4.05,2.47,4.8.4.95.49,1.29,1.88,5.81,1.5,4.83,1.56,5,1.75,5.81a45.29,45.29,0,0,1,.87,6.24c.43,4.77.06,6-.15,6.54a12.5,12.5,0,0,1-1.74,3.05,17.63,17.63,0,0,1-2.9,3.05,22,22,0,0,1-4.36,3.05A21.56,21.56,0,0,1,314,350a34.2,34.2,0,0,1-4.5.58c-2.11.2-3.92.37-6.39.44a36.45,36.45,0,0,1-6.68-.15,33.2,33.2,0,0,1-6.1-1.6c-1.64-.55-3.31-1-4.94-1.59s-2-.75-2.47-.58c-1.28.41-1.52,2.25-2.62,5.95-.74,2.51-.93,2.58-1.6,4.79-.45,1.52,0,.11-1.16,5.09-.28,1.19-.5,2.1,0,2.9a2.14,2.14,0,0,0,1.6,1c.83,0,1.55-.58,3.2-2.76s2.09-3.08,3.05-4.36c1.46-2,2.22-2.93,3.63-3.77a10.25,10.25,0,0,1,4.36-1.31c2.21-.26,3.46.12,5.81.43a46.53,46.53,0,0,0,7.55.3,35.58,35.58,0,0,0,9.15-1,28.93,28.93,0,0,0,7.56-3.2,20.45,20.45,0,0,0,5.51-4.5,18.89,18.89,0,0,0,3.93-8.43c.49-2.58.23-4.63-.29-8.71a53.17,53.17,0,0,0-2.33-10.75,66.19,66.19,0,0,0-4.79-10.46c-3.14-6-3.21-4.75-3.92-7-.27-.83-.52-1.83-1.31-2.11C319.05,298.78,316.92,300.26,316.79,301.77Z"/>
    <path class="cls-1" d="M256.16,333.33c-1,1.21-.31,2.7,0,6.43a44.57,44.57,0,0,1,0,6.14,71.82,71.82,0,0,1-.87,8.47,47.88,47.88,0,0,1-1.35,6.37,25.55,25.55,0,0,1-2.71,6.59,13.85,13.85,0,0,1-2.69,3.52,13.64,13.64,0,0,1-6,2.9,22.84,22.84,0,0,1-8.09.62,27.6,27.6,0,0,1-7.87-2.07,39.57,39.57,0,0,1-10.78-5.8c-5.19-4-7.78-6.05-8.71-7.47-.25-.38-1-1.62-2.09-1.63-.77,0-1.32.63-2.32,1.74s-2.18,2.28-3.2,3.49c-1.79,2.13-2.68,3.19-3.78,4.35-1.92,2-2.75,2.64-3.34,4.22-.23.61-.82,2.2-.14,2.9s2.62.06,3.92-.43c2.21-.85,2.41-1.49,5.08-2.91a29.63,29.63,0,0,1,4.94-2c1.69-.57,2.55-.85,3.34-.73,1.58.23,2.08,1.3,4.07,2.91a26.1,26.1,0,0,0,5.23,3,57.36,57.36,0,0,0,6,2.47,44.73,44.73,0,0,0,6.1,2,29,29,0,0,0,6.68.58c3.24,0,5.29,0,7.84-.87a17,17,0,0,0,7.7-5.08c1.5-1.79,2.28-3.57,3.49-7.41,1.31-4.19,2.84-8.36,3.48-14.24.2-1.74,0-1.14.3-12.05,0-1.31-.13-2.62-.15-3.93,0-1.9,0-2.51-.44-2.9C259,331.89,257.08,332.24,256.16,333.33Z"/>
    <path class="cls-1" d="M320.24,37.8c1,.42,1.6,1.17,3.25,4.47a54.4,54.4,0,0,1,3.66,8.13,40.71,40.71,0,0,1,1.63,11.78A60,60,0,0,1,328,73.56a70.08,70.08,0,0,1-4.47,15c-1.95,5-5.09,6.73-5.28,11.38-.08,1.83.18,4.63,1.22,4.88,1.52.37,4-4.93,5.69-8.54,2.58-5.54,4.91-10.56,6.5-18.29,1.12-5.43,2.87-14.17.81-24.38a41.29,41.29,0,0,0-3.86-11.16c-1.31-2.47-3.07-5.81-4.68-6.9a3.12,3.12,0,0,1-1.11-1.25,4.43,4.43,0,0,1-.2-2.16,22.13,22.13,0,0,0,.1-2.75,6.63,6.63,0,0,0-1-2.46A26.41,26.41,0,0,0,319.54,24c-1.38-1.86-1.5-2.27-2.26-2.66a3.22,3.22,0,0,0-2.36-.29,3.93,3.93,0,0,0-1.86,1.67c-.42.64-.35.85-.69,1.08-.68.46-1.25-.15-2.16.2a2.94,2.94,0,0,0-1.48,1.67,2.8,2.8,0,0,0-.29,1.76c.12.55.38.69.29,1-.14.48-.92.34-1.57.88a2.73,2.73,0,0,0-.78,2.06,4.11,4.11,0,0,0,1.67,2.85,11.09,11.09,0,0,0,3.53,2,18.15,18.15,0,0,0,2.85,1.08C317.5,38.1,318.54,37.08,320.24,37.8Z"/>
    <path class="cls-2" d="M357,259.44a34.81,34.81,0,0,1-2.69,8.62,48.26,48.26,0,0,1-4.32,7A46,46,0,0,1,339,286.94c-2.15,1.74-3.71,2.85-8.09,5.93-6.1,4.28-11,7.69-11.59,8.09-9.07,6.28-8.19,5.72-9.71,6.74,0,0-7.4,5-16.45,10-7.41,4.1-11.12,5.46-36.93,16.18-14.59,6.06-17.12,7.17-23.73,9.71-7.91,3-2.43.73-22.38,7.81-5.9,2.1-9,3.23-13.75,3.78s-9.86,1.14-15.36-1.35c-5.91-2.67-8.92-7.41-11.06-10.78-3.86-6.09-4.79-11.92-5.66-17.53a86,86,0,0,1-.81-13.48,133,133,0,0,0-3.5-26.69,144.62,144.62,0,0,0-9.44-28.85,156.79,156.79,0,0,0-11.86-21.3c-6.27-9.86-10.52-16.55-18.07-23.72-5.43-5.17-5.86-4.21-13.75-11.33s-12-10.8-15.9-17a55.23,55.23,0,0,1-8.36-22.92,52.51,52.51,0,0,1,1.35-18.6,51.77,51.77,0,0,1,6.47-15.1,50.68,50.68,0,0,1,12.4-13.21c6.38-4.92,12.06-7.17,20.49-10.52,3.73-1.48,7.88-2.78,16.18-5.39,12.45-3.93,16.5-4.81,24.8-8.09,5.31-2.09,8-3.19,11.59-5.39,1.53-.94,5.74-3.66,12.94-11,1.22-1.25,3.87-4,12.95-15.1,8.32-10.17,9-11.39,12.4-14.56A55,55,0,0,1,226.52,34a52.83,52.83,0,0,1,14.83-5.12,51.2,51.2,0,0,1,15.91-.54,45.79,45.79,0,0,1,10.51,2.7c3.26,1.26,11.46,4.57,17.53,12.4a71.42,71.42,0,0,1,4.58,7.28c2,3.46,3.39,6.07,5.66,10.51,4.8,9.37,5.3,10.4,6.2,12.13,1.78,3.42,3,5.39,13.75,22.11C323.8,108.4,324.22,109,326,112c0,0,5.62,9.37,10,18.06,9.43,18.83,14,37,16.45,47.18,3.67,15.06,4.89,25.75,6.74,42.06a114.94,114.94,0,0,1,.81,21.3C359.57,247.19,358.67,251.51,357,259.44Z"/>
    <path class="cls-3" d="M125.84,116.22A68.93,68.93,0,0,1,135.9,112c5.39-1.9,7.86-2.18,13.41-3.66,4.78-1.27,4.44-1.46,16.47-5.49,14.64-4.9,14.8-4.51,18.9-6.4A79.9,79.9,0,0,0,199.92,87a80.61,80.61,0,0,0,18-19.2c3-4.52,4.34-7.65,9.15-14,4-5.28,6.12-7.18,7.93-8.53a35.94,35.94,0,0,1,11.58-5.49,43.52,43.52,0,0,1,14.63-2.44,46,46,0,0,1,12.5,2.14c5,1.38,8.21,2.25,11.59,4.87,2.28,1.77,3.55,3.52,6.09,7a80.79,80.79,0,0,1,6.71,11.28c3.3,6.47,3.45,7.83,5.79,12.5,2.51,5,4.21,7.19,8.54,13.72,6.19,9.35,5.84,9.14,6.13,9.6,4.86,7.75,8.3,13.75,10.63,17.84,4.22,7.37,6.37,11.13,8.23,15.24,1,2.29,2.5,5.69,5.19,13.41,2,5.88,5.36,15.91,9.14,30.18,2.15,8.12,3.47,13.11,4.88,20.43a185.78,185.78,0,0,1,3.05,21.33,192.39,192.39,0,0,1,.3,23.48c-.27,9.11-.43,13.76-1.83,18.29-.45,1.45-.93,2.72-1,2.95a45.87,45.87,0,0,1-4.65,8.93c-1,1.42-1.8,2.49-2.25,3.06a42.28,42.28,0,0,1-3,3.31,54.16,54.16,0,0,1-4.91,4.31c-6.47,5-9.68,7.56-14.94,11.28-4.48,3.16-8.15,5.76-13.41,9.14s-9.08,5.61-14.63,8.84c-7.57,4.41-11.58,6.74-17.38,9.76-8.94,4.65-16,7.75-21.34,10.06-3.67,1.6-7.79,3.38-13.41,5.48-2.06.78-4.83,1.74-10.37,3.66-8.22,2.86-10.33,3.51-11.88,4a66.18,66.18,0,0,1-9.76,2.44c-3.95.57-8.17,1.17-13.11-.3A19.55,19.55,0,0,1,192.6,340a31.43,31.43,0,0,1-6.34-13.69c-1.59-7.66-.65-9.82-1.19-17.81-.18-2.61,0-6-1.31-17-1.93-16.49-2.61-15.41-3.66-19.81-2.64-11.11-6.54-18.65-11.88-29a181.07,181.07,0,0,0-24.7-36.58c-3.41-3.84-7.19-8.71-13.41-13.42-3.93-3-4.71-2.84-7.93-5.18a46.23,46.23,0,0,1-16.15-21,43.59,43.59,0,0,1-1.83-22.87,36.22,36.22,0,0,1,6.16-15.16C115.14,121.93,121.22,118.68,125.84,116.22Z"/>
    <path class="cls-4" d="M115.51,132.9a28.94,28.94,0,0,1,5-5.88c2.84-2.54,5.45-3.81,11.3-6.33,6.32-2.73,9.48-4.09,13.12-5.43,5.76-2.12,9.32-3.22,17.64-5.88,12.92-4.13,19.44-6.21,21.71-7.24a94.56,94.56,0,0,0,17.64-10.4,82.46,82.46,0,0,0,12.21-10.85c4.17-4.56,3.94-5.42,14-19.45,5.52-7.68,7.89-10.64,12.21-13.12a40.51,40.51,0,0,1,9-3.61,46.43,46.43,0,0,1,11.76-1.81,43.94,43.94,0,0,1,14.93,2.26c3.82,1.31,7.45,2.55,10.85,5.88,2.09,2,3.2,4.07,5.43,8.14,2,3.71,2.43,5.18,5,10.85,1.1,2.46,3.12,7,5.88,12.21C304.67,85,306.79,89.06,310,94c2.91,4.5,3.13,4.23,6.33,9,1.53,2.3,2.07,3.25,8.14,13.57,5.81,9.87,6,10.22,6.79,11.76,1.64,3.34,2.92,6.65,5.42,13.11,1.27,3.28,2.57,6.62,4.07,10.86,1.6,4.48,4.19,12.14,6.79,21.71a253.71,253.71,0,0,1,6.77,31.42,162.14,162.14,0,0,1,2.22,25.5c0,12.81,0,20.43-4.07,29.19-3.59,7.75-8.56,12.49-14,17.73s-10.85,8.72-21.43,15.52c-3.39,2.18-11.08,7.06-22.17,13.3-10.88,6.13-18.11,10.2-28.45,14.78-10.16,4.5-9.42,3.33-24,9.61a135.38,135.38,0,0,1-16.26,6.28c-3.14.95-8.19,3.06-14.78,3.33a17.68,17.68,0,0,1-6.59-.73,17.4,17.4,0,0,1-7.71-5.48c-3.77-4.34-4.58-9.23-5.29-13.27-.22-1.28-.36-3.84-.64-8.95-.45-8.28-.27-8.89-.67-13.14-.25-2.62-.61-5.08-1.33-10s-1.06-7.27-1.52-9.47c-.82-4-1.9-7-4-13.11s-3.79-10.28-4.16-11.19c-.81-2-2.7-6.67-5.28-12a175.51,175.51,0,0,0-10.71-18.87,256.29,256.29,0,0,0-17.59-23.83,46.08,46.08,0,0,0-8.79-8.63c-2.53-1.82-3.37-2-6.24-4.16a57.25,57.25,0,0,1-7.83-7.35,53,53,0,0,1-7-8.8,35.24,35.24,0,0,1-4-8.31,33.56,33.56,0,0,1-1.44-10.87C110.51,148.58,110.55,140.6,115.51,132.9Z"/>
    <path class="cls-5" d="M211.93,192.84a11,11,0,0,1,19.79-9.73"/>
    <path class="cls-5" d="M271,162.71A11,11,0,0,1,290.78,153"/>
    <ellipse class="cls-6" cx="222.78" cy="206.03" rx="13.49" ry="9.56" transform="translate(-52.44 78.22) rotate(-17.85)"/>
    <ellipse class="cls-6" cx="296.05" cy="170.55" rx="13.49" ry="9.56" transform="translate(-45.61 170.88) rotate(-30)"/>
    <path class="cls-7" d="M283.24,190.73a18.3,18.3,0,0,1-.86,4.56,20.68,20.68,0,0,1-2.44,5,23.66,23.66,0,0,1-9.62,8.11c-2.95,1.55-7.48,3.92-13.5,3.3a20,20,0,0,1-4.22-.85,17.13,17.13,0,0,1-5.69-3,20.78,20.78,0,0,1-4.81-6c-1.86-3-2.52-4.68-2.41-6.6a5,5,0,0,1,2.95-4.13,15,15,0,0,1,3.08-1.29c2.31-.71,4.77-1.08,6.89-1.79.28-.09,1-.33,1.92-.68a52.17,52.17,0,0,0,7.38-3.52c5.37-3.06,8.1-4.53,10.22-6.61a8.72,8.72,0,0,1,.74-.69,4.71,4.71,0,0,1,2.26-1.11,6.12,6.12,0,0,1,5.1,1.8c1.44,1.41,1.78,3.46,2.4,7.51A28.91,28.91,0,0,1,283.24,190.73Z"/>
    <path class="cls-8" d="M272.87,176.52a8.72,8.72,0,0,0-.74.69c-2.12,2.08-4.85,3.55-10.22,6.61a52.17,52.17,0,0,1-7.38,3.52c-.92.35-1.64.59-1.92.68-2.12.71-4.58,1.08-6.89,1.79a7.77,7.77,0,0,1,4.11-8.4l13.66-6.84A7.74,7.74,0,0,1,272.87,176.52Z"/>
    <path class="cls-9" d="M270.7,189l-13.65,6.85a7.76,7.76,0,0,1-10.37-3.45l-.29-.59a7.58,7.58,0,0,1-.67-2c2.31-.71,4.77-1.08,6.89-1.79.28-.09,1-.33,1.92-.68a52.17,52.17,0,0,0,7.38-3.52c5.37-3.06,8.1-4.53,10.22-6.61a8.72,8.72,0,0,1,.74-.69,7.46,7.46,0,0,1,1,1.5l.3.59A7.73,7.73,0,0,1,270.7,189Z"/>
    <path class="cls-8" d="M279.14,226.72c-11.08,4.67-22.87,1.79-26.34-6.43a13.27,13.27,0,0,1-.2-9.4,20,20,0,0,0,4.22.85c6,.62,10.55-1.75,13.5-3.3a23.66,23.66,0,0,0,9.62-8.11,20.68,20.68,0,0,0,2.44-5c4.87,1.12,8.79,3.92,10.55,8.1C296.4,211.61,290.22,222.06,279.14,226.72Z"/>
    <path class="cls-6" d="M282.38,195.29a20.68,20.68,0,0,1-2.44,5,23.66,23.66,0,0,1-9.62,8.11c-2.95,1.55-7.48,3.92-13.5,3.3a20,20,0,0,1-4.22-.85c1.85-5.61,6.92-10.95,14-13.93A26,26,0,0,1,282.38,195.29Z"/>
    <path class="cls-10" d="M126.84,145.6c.16-1.92,1.33-3.13,2.59-4.44s3-3.09,4.44-2.59,1.88,2.94,1.85,4.44c-.08,4.1-3.84,8.36-6.29,7.77C127.76,150.37,126.67,147.72,126.84,145.6Z"/>
    <path class="cls-11" d="M144.78,138.5c2.66.93,3.67,2.37,4.82,1.77s1.57-2.93,1-4.61c-.74-2.32-3.12-3.24-4.82-3.91-1.95-.75-5.82-2.25-8.27,0-1.58,1.46-2.39,4.33-1.38,5.68C137.42,139.1,140.22,136.89,144.78,138.5Z"/>
    <path class="cls-12" d="M183.64,111.76c1.5-1.43,5.25-4.58,10.1-4.33.24,0,4.36.26,4.69,1.81.4,1.83-4.8,4.25-6.49,5.05-2.89,1.34-6,2.81-7.57,1.44C183.26,114.75,183.47,112.77,183.64,111.76Z"/>
    <path class="cls-12" d="M233.41,72.09c-1.29-.69-1-5.18,1.44-7.57.91-.9,2.64-2,3.61-1.44s.7,2.82.36,4C237.9,70.15,234.65,72.76,233.41,72.09Z"/>
    <path class="cls-12" d="M242.42,68.13c.22-1.33,3-2.08,5.05-1.81s4.42,1.61,4.33,2.89-3,2.6-5.41,2.16C244.37,71,242.21,69.4,242.42,68.13Z"/>
    <path class="cls-12" d="M285,60.92a68.56,68.56,0,0,1,6.49,7.21C295.8,73.69,299,78,298,82.19c-.44,1.74-1.7,3.82-3.25,4-2.69.25-5.14-5.5-5.41-6.13-1.67-4-.3-5-2.16-8.3a25.82,25.82,0,0,0-4.33-5.41c-1.3-1.2-2.24-1.78-2.88-3.24s-.95-3.63,0-4.33S283,58.84,285,60.92Z"/>
    <path class="cls-12" d="M336.18,159.36c2.81.11,5.08,4.71,4.33,8.3,0,.2-.78,3.49-2.88,4-2.61.58-6.6-3.31-6.13-7.21C331.8,161.86,334,159.28,336.18,159.36Z"/>
    <path class="cls-12" d="M343.76,180.28c-1,0-2.61,3.38-1.09,5.77.82,1.27,2.54,2.29,3.25,1.8C347.29,186.91,345.18,180.22,343.76,180.28Z"/>
    <path class="cls-12" d="M348.08,249.15c.22,4.88-1.38,8.52-3.24,12.63-1.64,3.6-3.84,8.33-8.66,12.26-.61.49-4.66,3.79-5.77,2.88-.93-.76.42-4.33,2.17-6.85,1.88-2.72,3-2.48,5.05-5.05,1.76-2.23,2.39-4.31,3.6-8.29,1-3.35.86-4.09,2.17-8.66,1.17-4.09,1.77-6.14,2.52-6.13C347,242,347.94,245.83,348.08,249.15Z"/>
    <path class="cls-12" d="M194.82,307.93c-.42,3.47-.61,5.22.36,6.13a3.65,3.65,0,0,0,4,.36c2.39-1.25,2.61-5.3,1.44-7.93-.91-2.06-3-4.07-4.32-3.6C195.42,303.2,195.21,304.78,194.82,307.93Z"/>
    <path class="cls-12" d="M197.71,321.64c-.51,1.28,2.17,3.65,4.33,4.69a10.16,10.16,0,0,0,7.93,0c1.21-.44,4-1.44,4-2.53C213.78,321.33,198.78,319,197.71,321.64Z"/>
    <path class="cls-12" d="M210,331c-.26,1.27,3,3.36,6.13,3.61,4.41.34,8.31-3,7.93-4.33C223.41,328.08,210.45,328.65,210,331Z"/>
    <path class="cls-12" d="M311.49,286.11c1.5-1.43,5.24-4.59,10.1-4.33.23,0,4.35.26,4.68,1.8.4,1.83-4.79,4.26-6.49,5.05-2.88,1.35-6,2.82-7.57,1.44C311.11,289.09,311.31,287.12,311.49,286.11Z"/>
    <path class="cls-12" d="M319,269.91c.22-1.33,3-2.07,5.05-1.8s4.41,1.6,4.32,2.88-3,2.6-5.41,2.16C320.91,272.79,318.75,271.19,319,269.91Z"/>
    <path class="cls-1" d="M133.29,210c-1.29-.09-1.6.19-4.2.6a55,55,0,0,1-6.94.58c-.73,0-2.81.1-7.62-.11-4.31-.19-7-.3-10.67-.73a73.72,73.72,0,0,1-11.15-1.93,65,65,0,0,1-10.94-3.95,47.23,47.23,0,0,1-11.06-6.82,37.93,37.93,0,0,1-8.13-9.17c-2.82-4.52-2.59-6.05-3.64-7.69a1.42,1.42,0,0,1-.27-1.07c.1-.41.45-.57,1-1a8.32,8.32,0,0,0,1.52-1.55,5.7,5.7,0,0,0,.65-2.09,23,23,0,0,0,.37-2.8c.32-4.71-.12-5.55-.35-5.91a5.52,5.52,0,0,0-1.16-1.25,3,3,0,0,0-1.25-.65,2.23,2.23,0,0,0-1.7.3c-.58.42-.49.95-.89,1.05s-.68-.6-1.58-.92a4,4,0,0,0-2.24.11,3,3,0,0,0-1.24.48,2.84,2.84,0,0,0-.74,1c-.25.54-.12.73-.31.86-.4.26-1-.63-2-.59a2.28,2.28,0,0,0-1.51.81,2.84,2.84,0,0,0-.57,1.17,5.34,5.34,0,0,0-.2,2.19,7.15,7.15,0,0,0,.53,1.76,24.17,24.17,0,0,0,1.11,2.54,13.07,13.07,0,0,0,2,3.28,5.31,5.31,0,0,0,2.54,1.66c.75.18,1.29.07,1.78.53a2.52,2.52,0,0,1,.56,1.38c.22.93.63,1.79.9,2.7a20.06,20.06,0,0,0,2,4.26,34.67,34.67,0,0,0,4.58,6.23,44.33,44.33,0,0,0,6,5.57,48.86,48.86,0,0,0,7.08,4.66,67.49,67.49,0,0,0,8,3.54C86,210,87.17,210.45,89,211c.75.22,1.69.48,7.34,1.57,3.59.69,5.42,1,7.32,1.33,1.35.21,3.32.51,5.92.78,1.62.17,3.93.4,6.87.48a81.88,81.88,0,0,0,8.32-.25c5.11-.4,4.91-.82,9.52-1.1,3.51-.21,4.83,0,5-.57C139.5,212.37,136.55,210.24,133.29,210Z"/>
  </g>
</svg>
