<svg id="Layer_1" data-name="Layer 1" xmlns="http://www.w3.org/2000/svg" width="200" height="200" viewBox="0 0 200 200">
  <defs>
    <style>
      .cls-1 {
        fill: #ff0;
        opacity: 0.46;
      }

      .cls-2 {
        fill: #fcfeff;
      }

      .cls-3 {
        fill: #fcee21;
      }

      .cls-4 {
        fill: #f9fbf5;
      }

      .cls-5 {
        fill: #111426;
      }

      .cls-6, .cls-7 {
        fill: #fff6a0;
      }

      .cls-6 {
        stroke: #1d1d1b;
        stroke-linecap: round;
        stroke-miterlimit: 10;
        stroke-width: 6px;
      }

      .cls-8 {
        fill: #fefadd;
      }

      .cls-9 {
        fill: #d03644;
      }
    </style>
  </defs>
  <g>
    <path class="cls-1" d="M47.26,12a28.49,28.49,0,0,1,17.82-1.78c4.51,1.1,8.79,4,17.34,9.67,5.34,3.56,4.6,3.5,6.16,4.2,9.54,4.27,20.83-.9,25.72-3.14,7.5-3.43,9.38-6.32,18.48-9.28,4.11-1.33,7.34-1.92,10.42-.46a10.65,10.65,0,0,1,5.8,7.2c.94,4.73-2.8,6.56-2,12,.13.81.67,4.27,3.27,6.32,2.91,2.3,6.37,1.24,11.48,1a53.48,53.48,0,0,1,18,2.68c4.08,1.42,10.68,3.73,14.88,10.28a23,23,0,0,1,3.51,11.78,24.07,24.07,0,0,1-3.84,14.09c-2.88,4.27-4.66,3.49-12.42,11.5-3.26,3.35-4.34,4.93-5.17,6.69-.35.73-1.54,3.37-2,10-.3,3.9,0,4.6,0,11.44a91,91,0,0,1-.44,12.45c-.59,4.63-.93,7.33-2.51,10.55a25.1,25.1,0,0,1-9,9.85c-4.44,3-7,2.9-14.2,5.11A83.18,83.18,0,0,0,130,162c-3.55,2.13-8,6-16.79,13.68-6,5.2-7.32,6.68-11,8.95s-8,4.79-14.17,5.6a29.74,29.74,0,0,1-27.88-11.69c-3.74-4.77-5.25-9.49-6.57-13.63-2.38-7.45-.94-8.1-3-11.8-3.17-5.66-8.89-8.27-14.4-10.79s-5.79-1.56-12.63-4.41c-6.25-2.61-10-4.19-13.78-7.84A25.81,25.81,0,0,1,2.21,117c-1.26-6.1.43-10.87,3.15-18.54a53.26,53.26,0,0,1,7.77-15.26c5.93-7.87,9.24-7.12,12.33-13.48,1.24-2.54,1.76-6.71,2.81-15,1.17-9.22.7-10.07,1.78-16C31.3,31.81,32,28.24,34.37,24A28.59,28.59,0,0,1,47.26,12Z"/>
    <path class="cls-2" d="M48.44,16A27.29,27.29,0,0,1,65.51,14.3c4.32,1.06,8.42,3.79,16.62,9.26,5.11,3.42,4.4,3.36,5.89,4,9.14,4.09,20-.86,24.65-3,7.19-3.3,9-6.06,17.71-8.89,3.93-1.28,7-1.84,10-.45a10.2,10.2,0,0,1,5.55,6.9c.91,4.53-2.68,6.28-1.87,11.52.12.78.64,4.09,3.13,6,2.79,2.2,6.1,1.19,11,.94a51.28,51.28,0,0,1,17.27,2.57c3.9,1.36,10.23,3.58,14.26,9.85a22.06,22.06,0,0,1,3.36,11.28,23.11,23.11,0,0,1-3.69,13.51c-2.76,4.09-4.45,3.34-11.89,11-3.12,3.22-4.16,4.72-5,6.42-.33.7-1.47,3.22-2,9.61-.29,3.74,0,4.41,0,11a87.09,87.09,0,0,1-.42,11.93c-.57,4.44-.9,7-2.41,10.12a24,24,0,0,1-8.63,9.43c-4.26,2.83-6.75,2.78-13.6,4.9a80,80,0,0,0-17.78,7.46c-3.4,2-7.63,5.73-16.09,13.11-5.71,5-7,6.4-10.58,8.57s-7.64,4.59-13.58,5.37a28.45,28.45,0,0,1-26.7-11.2c-3.59-4.57-5-9.1-6.3-13.06-2.28-7.14-.9-7.77-2.89-11.31-3-5.42-8.52-7.92-13.8-10.34s-5.55-1.49-12.1-4.23c-6-2.49-9.62-4-13.2-7.51a24.63,24.63,0,0,1-7.23-12.54c-1.21-5.85.41-10.42,3-17.76a51,51,0,0,1,7.45-14.63c5.68-7.54,8.85-6.82,11.81-12.92,1.18-2.43,1.69-6.42,2.69-14.41,1.12-8.84.67-9.65,1.7-15.32,1.2-6.56,1.82-10,4.14-14A27.49,27.49,0,0,1,48.44,16Z"/>
    <ellipse class="cls-3" cx="97.84" cy="88.86" rx="32.13" ry="30.61" transform="matrix(0.84, -0.54, 0.54, 0.84, -32.44, 66.6)"/>
    <path class="cls-4" d="M83.72,68.92a17.88,17.88,0,0,1,7-4.12,19.51,19.51,0,0,1,9.51-.42,24.53,24.53,0,0,1,8.23,3,18.91,18.91,0,0,1,6.42,5c2.53,3.26,4.6,8.27,3.27,9.39-1.51,1.26-5.51-4.1-14.6-7-3.39-1.07-9.38-3-15.28-.75s-8.12,7.3-9.24,6.61S79.35,73.25,83.72,68.92Z"/>
    <circle class="cls-5" cx="110.71" cy="72.75" r="5.36"/>
    <circle class="cls-5" cx="81.94" cy="92.95" r="5.36"/>
    <path class="cls-6" d="M110.07,86.49a7.85,7.85,0,0,1-12.81,9.08"/>
    <g>
      <path class="cls-7" d="M150.86,45.29c2.16-3.07,7.92-2.3,13.83-1.52a24.51,24.51,0,0,1,7.57,1.81c4.4,2,7.76,5.37,7.38,6S175,48.22,168,47.23c-9.24-1.32-16.25,3.6-17.74,1.27C149.61,47.55,150.35,46,150.86,45.29Z"/>
      <path class="cls-8" d="M151.16,46.8c2.17-3.07,7.93-2.3,13.84-1.52a24.51,24.51,0,0,1,7.57,1.81c4.4,2,7.75,5.37,7.37,6s-4.68-3.33-11.67-4.33C159,47.42,152,52.34,150.53,50,149.92,49.05,150.66,47.52,151.16,46.8Z"/>
    </g>
    <path class="cls-8" d="M178.06,59.64a2.37,2.37,0,0,1,3.29.61c.76,1.37-.84,3.41-1.86,3.34S177.12,60.62,178.06,59.64Z"/>
    <path class="cls-7" d="M182.19,58.15c0,.38-.23,4.06,1.43,4.82,2,.91,6.72-2.38,6.18-5.38-.44-2.47-4.38-4.34-6.24-3.19C182.36,55.14,182.26,57,182.19,58.15Z"/>
    <circle class="cls-9" cx="122.54" cy="77.58" r="2.68"/>
    <circle class="cls-9" cx="79.8" cy="105.2" r="2.68"/>
    <path class="cls-7" d="M47.86,21.52c-2.82,1.38-4,5.69-2.77,6.91s4.51,0,6.28-2.13c.78-.93,2.11-3.06,1.24-4.38S49.37,20.77,47.86,21.52Z"/>
    <path class="cls-7" d="M78.93,162.21c-2.82,1.39-4,5.69-2.78,6.91s4.52,0,6.29-2.13c.78-.92,2.11-3.05,1.24-4.37S80.44,161.47,78.93,162.21Z"/>
    <path class="cls-7" d="M151.91,134.74c-2.83,1.38-4,5.69-2.78,6.91s4.51,0,6.28-2.13c.79-.93,2.12-3.06,1.25-4.38S153.42,134,151.91,134.74Z"/>
    <path class="cls-8" d="M53.4,25.28c-1.18,1.69-1.24,4.39.24,5.54,1.72,1.33,5.13.27,6.08-2.12.76-1.93-.12-4.62-2.09-5.26C56,22.9,54.22,24.09,53.4,25.28Z"/>
    <path class="cls-8" d="M73,159.83c-1.18,1.68-1.23,4.39.25,5.54,1.72,1.33,5.13.27,6.08-2.12.76-1.93-.13-4.62-2.09-5.26C75.61,157.45,73.87,158.64,73,159.83Z"/>
    <path class="cls-8" d="M144.41,135.28c-1.71,2.46-1.79,6.4.36,8.07,2.51,1.94,7.48.39,8.85-3.09,1.11-2.81-.18-6.73-3-7.65C148.15,131.82,145.62,133.56,144.41,135.28Z"/>
  </g>
</svg>
