<svg xmlns="http://www.w3.org/2000/svg" width="160" height="160" viewBox="0 0 160 160">
  <defs>
    <style>
      .cls-1 {
        fill: #f7cd74;
      }

      .cls-2 {
        fill: #f5e3bc;
      }

      .cls-3 {
        fill: #25b527;
      }

      .cls-4 {
        fill: #fff;
      }

      .cls-5 {
        fill: #fce02a;
      }

      .cls-6, .cls-7 {
        fill: #70f922;
      }

      .cls-6 {
        opacity: 0.77;
      }

      .cls-7 {
        opacity: 0.71;
      }

      .cls-8 {
        fill: #b6ffb4;
        opacity: 0.9;
      }
    </style>
  </defs>
  <g id="Layer_3" data-name="Layer 3">
    <g>
      <g>
        <path class="cls-1" d="M33.25,62a8.27,8.27,0,0,1-3.64-1c-3.92-2.27-4.52-7.39-4.78-9.62a20.51,20.51,0,0,1,1.89-10.85,27.6,27.6,0,0,1,9-10.75c6-4.69,11.87-6.37,16.85-7.79a80.85,80.85,0,0,1,12.79-2.38,93.1,93.1,0,0,1,10.39-.73,89.15,89.15,0,0,1,10.31.56A95.47,95.47,0,0,1,98.3,21.25a79.79,79.79,0,0,1,17,5.8,42.67,42.67,0,0,1,10.39,6.59A31.94,31.94,0,0,1,130.48,39a24.37,24.37,0,0,1,4.12,8.39,23.83,23.83,0,0,1,.6,7.8,15.23,15.23,0,0,1-1.42,5.93c-.82,1.67-1.68,3.43-3.56,4.47s-3.34.69-4.47,2.14a4.16,4.16,0,0,0-.79,1.88c-1.35,7.17-2.66,41.29-2.66,41.29-.11,2.67-.21,3.39-.37,7.73a94.37,94.37,0,0,1-.69,10.72c-.44,3.05-.68,4.6-1.54,6.13a12.3,12.3,0,0,1-6,5.16c-2,.76-3.48.7-8,.37-4.3-.32-6.09-.56-10.92-.93-1.84-.14-2.23-.14-6.55-.38-5.57-.31-9.62-.57-15.44-.95-11-.7-8.9-.66-14.36-1-4.65-.26-9.29-.83-13.94-.94a15.42,15.42,0,0,1-4.39-.44s-4.81-1.39-8.59-7.54S27.84,96.71,33.25,62Z"/>
        <path class="cls-2" d="M37.66,128.15a9.73,9.73,0,0,0,3.09,2.69,10.43,10.43,0,0,0,4.78,1.27c8.6.38,17.15,1.55,25.74,1.86,6.08.22,9.12.33,13.53.87a153.29,153.29,0,0,0,21.25,1.38,9.27,9.27,0,0,0,5.59-1.4c2.71-1.9,3.45-5.26,3.77-6.84,2.91-14.46,3.81-43.12,3.81-43.12s-.32-2.37,1.61-19.58a2.92,2.92,0,0,1,.72-1.76c.82-.8,1.79-.42,3.24-.91a6.24,6.24,0,0,0,2.77-2,9.07,9.07,0,0,0,1.74-4.89,20.22,20.22,0,0,0,.11-4.28,37.34,37.34,0,0,0-.51-4.77c-.88-4.36-4-7.71-5.05-8.87-5.64-6.09-14.93-9.09-20.26-10.54a102.53,102.53,0,0,0-26.07-3.5s-24.17-.19-38.11,8.6a19.41,19.41,0,0,0-6.31,6.1,19.83,19.83,0,0,0-2.87,10.2,11.87,11.87,0,0,0,.7,4.27A9.49,9.49,0,0,0,33.8,57c1.91,1.53,2.93.91,4,2.15s1,3.15.84,6.19,0,6.07-.32,9.07S37.71,83.27,37.16,95c-.5,10.63-.14,9.68-.61,15.4-.17,2.1-.22,4-.32,7.88C36.08,123.91,36.2,126.13,37.66,128.15Z"/>
        <path class="cls-3" d="M38.31,43.44c1.07-3.1,2.78-7.86,7.09-11.78a31.57,31.57,0,0,1,5.66-3.94,13.85,13.85,0,0,1,4.82-2.1c2-.32,3.76.14,6.45,1.22,3.36,1.34,5.26,2.47,11.1,5.72a73.79,73.79,0,0,0,8.3,4.2,23.48,23.48,0,0,0,4.75,1.66c2.45.5,3.74.21,9.2-.32,0,0,3.74-.36,9.09-.69s6.35-.24,7.37-.08a15.15,15.15,0,0,1,7.09,2.75,15.91,15.91,0,0,1,4.46,5.74A14.28,14.28,0,0,1,125.56,51a10.61,10.61,0,0,1-.55,5.65c-.25.6-.68,1.47-4,4.92-.61.64-1.73,1.65-3.41,3.4l-.8.83c-2.14,2.54-2.52,7.78-.16,10.32.72.78,1.13.69,2.22,1.9a8.16,8.16,0,0,1,2,3.27,7.24,7.24,0,0,1-.44,4.74c-.78,1.84-1.8,2.35-4.14,4.79-2,2.11-3,3.17-3.57,4.24-2.25,4.42-.12,11.36,3,15.4a19,19,0,0,1,2.84,4.3,9.68,9.68,0,0,1,1.23,5.33c-.18,1.4-1.22,2.81-3.3,5.57a44,44,0,0,1-4.37,5.23c-2.57,2.58-3.86,3.87-5.51,4.41-2.68.88-5.11-.14-9.31-2C92,131,91.73,129.67,86.5,127.4a24.88,24.88,0,0,0-8.58-2.5c-2.51-.19-3.54.22-8.84,1.15-1.78.31-7.23,1.25-12.8,1.8a86.92,86.92,0,0,1-11.14.46c-6.68-.17-8.79-1-9.56-1.37-1.74-.77-5.43-2.41-6.6-5.87-.74-2.17.18-4.74,2.05-9.78,1.53-4.16,3.38-8.09,4.1-9.61,2.66-5.57,3.56-6.58,3.36-8.92A14.35,14.35,0,0,0,36,86.42c-1.07-1.6-2.09-1.62-2.57-3-.77-2.2.53-4.54,1-5.44.84-1.52,1.3-1.46,3.88-4.19,3.53-3.75,4-5.25,4.18-6.07a8,8,0,0,0,0-3.2c-.2-1-.62-2.08-2.61-4.75-1.57-2.11-2.16-2.58-2.67-3.32C34.94,53.18,36.69,48.15,38.31,43.44Z"/>
        <path class="cls-4" d="M43.41,73.33c1-1.12,2.38-1.81,5.21-3.16,4.21-2,4.51-1.57,6.06-2.74,2.1-1.58,3.13-3.56,4.35-5.89.88-1.67.64-1.65,2.6-6.2a30.51,30.51,0,0,1,2.31-4.8c1.17-1.79,2.15-3.31,4.06-4.32a10.15,10.15,0,0,1,6.27-.77,13.6,13.6,0,0,1,5.72,2c1.13.73.91.85,2.84,2.35A49.78,49.78,0,0,0,87.56,53a42.47,42.47,0,0,0,4.6,2.65c.9.39,2,.77,8,1.67a71,71,0,0,1,7.54,1.28c3,.73,4,1.27,4.67,1.77a8.93,8.93,0,0,1,3.39,4.51c.53,1.73.27,3.13-.26,5.85a49.56,49.56,0,0,1-2.12,6.94c-1.19,3.31-1.64,4.16-2.47,6.92s-1,4-.93,5.27A12.73,12.73,0,0,0,111.14,94a25.09,25.09,0,0,0,2.19,3.9c1.3,2.06,1.61,2.28,2.39,3.73.88,1.65,1.32,2.48,1.35,3.3.07,2.28-1.94,4.45-4,5.39-1.26.59-2.69.55-5.54.47a43,43,0,0,1-6.52-.67c-4-.72-4.13-1.28-6.65-1.38a21.61,21.61,0,0,0-5.73.63A32.6,32.6,0,0,0,83.75,111a50.44,50.44,0,0,0-6.65,3.41c-4,2.33-4.21,2.63-7.63,4.58a46.84,46.84,0,0,1-7,3.56c-2.84,1.09-4.89,1.84-7.58,1.56-1.32-.13-3.88-.4-5.51-2.36C48,120.08,48,118.06,48,116.32c0-3.41,1.12-4.54,2.9-10.27,1.28-4.1,1.91-6.19,1.51-8.24-.44-2.24-1.59-3.78-3.6-6.48-2.41-3.23-3.25-3.21-5.06-6.07-1.31-2.08-2.33-3.69-2.38-6A9.09,9.09,0,0,1,43.41,73.33Z"/>
        <path class="cls-5" d="M64.15,74.79a15.94,15.94,0,0,1,6-5.21A16.39,16.39,0,0,1,81,68.66a16.85,16.85,0,0,1,8.88,27.8,16.6,16.6,0,0,1-9,5.1,16.83,16.83,0,0,1-16.7-26.77Z"/>
        <path class="cls-4" d="M82.17,97.85a.81.81,0,0,1,.56-.14c.7,0,1.26-.48,2.3-1.37a13.18,13.18,0,0,0,1.63-1.7,23.2,23.2,0,0,0,1.6-2.07A15.06,15.06,0,0,0,90.42,88C91.88,82,87.57,76.53,86.8,76.14a1,1,0,0,1-.41-.38.92.92,0,0,1,.13-1.05c.39-.26,1.2.36,1.59.65a9.27,9.27,0,0,1,2.5,3.22A15.26,15.26,0,0,1,92,82.38a14.22,14.22,0,0,1,.33,2.67,13.43,13.43,0,0,1-.48,3.82,13.94,13.94,0,0,1-1.51,3.39,21.7,21.7,0,0,1-2.58,3.61c-1.21,1.4-3,3.41-4.72,3.4-.26,0-.81,0-1-.37A.86.86,0,0,1,82.17,97.85Z"/>
        <circle class="cls-4" cx="79.89" cy="99.39" r="0.98"/>
        <g>
          <g>
            <circle cx="77.54" cy="87.92" r="1.15" transform="translate(-15.93 158.68) rotate(-85.71)"/>
            <circle cx="84.17" cy="63.8" r="1.15" transform="translate(14.26 142.97) rotate(-85.71)"/>
            <circle cx="91.95" cy="81.9" r="1.15" transform="translate(3.42 167.47) rotate(-85.71)"/>
            <circle cx="78.34" cy="77.35" r="1.15" transform="translate(-4.65 149.68) rotate(-85.71)"/>
            <circle cx="88.48" cy="75.67" r="1.15" transform="translate(6.4 158.24) rotate(-85.71)"/>
          </g>
          <circle cx="75.51" cy="71.04" r="1.15" transform="translate(-0.98 141.03) rotate(-85.71)"/>
          <circle cx="72.35" cy="82.73" r="1.15" transform="translate(-15.56 148.7) rotate(-85.71)"/>
          <circle cx="91.05" cy="94.01" r="1.15" transform="translate(-9.5 177.77) rotate(-85.71)"/>
          <circle cx="74.04" cy="60.25" r="1.15" transform="translate(8.42 129.58) rotate(-85.71)"/>
          <circle cx="66.55" cy="102.58" r="1.15" transform="translate(-40.72 161.27) rotate(-85.71)"/>
          <circle cx="64.42" cy="86.94" r="1.15" transform="translate(-27.09 144.68) rotate(-85.71)"/>
          <circle cx="77.73" cy="100.88" r="1.15" transform="translate(-28.68 170.85) rotate(-85.71)"/>
          <circle cx="63.31" cy="64.55" r="1.15" transform="matrix(0.07, -1, 1, 0.07, -5.79, 122.85)"/>
          <circle cx="103.52" cy="66.41" r="1.15" transform="translate(29.56 164.67) rotate(-85.71)"/>
        </g>
      </g>
      <path class="cls-6" d="M40.37,50.62c-1.38-1.94.09-5.07,1.63-8.39a22.61,22.61,0,0,1,4.24-6.44,20.62,20.62,0,0,1,5.83-4.33c.9-.43,5.44-2.62,6.61-1.25.58.67.26,2.14-.47,3a4.4,4.4,0,0,1-2.84,1A13.08,13.08,0,0,0,48.58,38a11,11,0,0,0-3.47,6.26c-.13,1,0,1.74-.32,4.23-.3,2.65-.56,3.18-1,3.43C42.87,52.39,41.17,51.75,40.37,50.62Z"/>
      <path class="cls-7" d="M96.73,129c0,.36.51.63,1.36,1.05,2.39,1.21,3.59,1.81,3.76,1.86a9.34,9.34,0,0,0,4.17.6c2.91-.39,6-2.86,5.71-4.91a2.55,2.55,0,0,0-2.37-2.14c-1.21.14-1,2-2.47,2.9-2.18,1.29-4.69-1.64-8.47-.47C98.14,127.94,96.74,128.38,96.73,129Z"/>
      <path class="cls-8" d="M100.74,130.46c.05.19.46.26,1.14.36,1.93.3,2.9.45,3,.45a9.64,9.64,0,0,0,3.16-.28c2.1-.62,4.07-2.37,3.59-3.42a2,2,0,0,0-2-.8c-.88.25-.47,1.22-1.45,1.9-1.45,1-3.69-.2-6.34,1C101.65,129.71,100.67,130.14,100.74,130.46Z"/>
      <path class="cls-8" d="M52.17,33.33c.87-1.55,2.91-1.76,4.11-1.88,1.74-.17,3.86.14,3.93.69s-1.22.63-3.72,1.91c-2.82,1.44-3.71,2.46-4.33,2.06S51.64,34.28,52.17,33.33Z"/>
    </g>
  </g>
</svg>
