<svg xmlns="http://www.w3.org/2000/svg" width="160" height="160" viewBox="0 0 160 160">
  <defs>
    <style>
      .cls-1 {
        fill: #258527;
      }

      .cls-2 {
        fill: #6c3;
      }

      .cls-3 {
        fill: #ccff9c;
      }

      .cls-4 {
        fill: #603901;
      }

      .cls-5 {
        fill: #b39368;
      }

      .cls-6 {
        fill: #344200;
      }

      .cls-7 {
        fill: #fff;
      }

      .cls-8 {
        fill: none;
      }

      .cls-9 {
        fill: #800;
      }
    </style>
  </defs>
  <g id="Layer_3" data-name="Layer 3">
    <g>
      <path class="cls-1" d="M52,17.48a25.11,25.11,0,0,1,5.13-6.09,24.64,24.64,0,0,1,7.65-4.45A26.27,26.27,0,0,1,75.93,5.68a32.2,32.2,0,0,1,11,2.76,23.4,23.4,0,0,1,8.82,6c1.68,1.93,2.54,3.74,4.25,7.37,2.15,4.55,1.82,5.23,3.74,9.14a67.81,67.81,0,0,0,4.79,7.92,101.77,101.77,0,0,0,6.29,8.77c.72.88,2.79,3.19,6.92,7.77,4.47,5,4.78,5.29,5.49,6.29a41,41,0,0,1,4.61,8.86,56.13,56.13,0,0,1,3.28,11.35c.31,1.73.48,3.16.57,4h0a57.9,57.9,0,0,1,.18,8.89,38.59,38.59,0,0,1-2.16,10.88,37.9,37.9,0,0,1-4.21,8.26,42.91,42.91,0,0,1-7,8.19,52,52,0,0,1-7.08,5.29A61.23,61.23,0,0,1,99.75,135a68.6,68.6,0,0,1-11.13,2.64,74.45,74.45,0,0,1-8.48.73,56.91,56.91,0,0,1-11.16-.5l-.27,0a51,51,0,0,1-10.58-3.27,49.42,49.42,0,0,1-11.62-6.35,46.56,46.56,0,0,1-10.24-10.67,47.15,47.15,0,0,1-6.82-14.69c-2.54-9.51-1.27-17.33-.31-23a69.34,69.34,0,0,1,5-16.21c4.52-10.52,8.64-18.08,8.64-18.08,3-5.75,2.72-4.92,4-8.21s.64-2.53,1.4-7.4C48.71,25.89,49.39,21.78,52,17.48Z"/>
      <path class="cls-2" d="M47,43.78A28.67,28.67,0,0,0,49.48,39a33.57,33.57,0,0,0,1.66-5.9c.76-3.62.45-3.77,1-5.94A23.23,23.23,0,0,1,55.8,19a19.77,19.77,0,0,1,6.12-5.7,20.47,20.47,0,0,1,8.49-2.57,27.89,27.89,0,0,1,8.07.39c2.88.54,8.72,1.64,13.6,6.25a27.62,27.62,0,0,1,6.14,9.23c1.17,2.63,1.28,3.85,3,7.33a57.56,57.56,0,0,0,3.67,6.4,91,91,0,0,0,7,9.39c3.25,3.85,4.07,3.85,8.75,9.14A36.94,36.94,0,0,1,125,64.63a38.74,38.74,0,0,1,2.94,6.22,49.74,49.74,0,0,1,3.88,16.75,40,40,0,0,1-.32,9.58,35.1,35.1,0,0,1-4.64,12.27,40.08,40.08,0,0,1-7.11,8.46,45.84,45.84,0,0,1-6.69,5.51,50,50,0,0,1-9.68,5A65.81,65.81,0,0,1,94,131.48a61.28,61.28,0,0,1-10.69,1.64,66.26,66.26,0,0,1-12.51-.45c-5.77-.73-9.87-1.24-14.73-3.47a38.74,38.74,0,0,1-12.7-9.69,42.06,42.06,0,0,1-9.07-14.35,44,44,0,0,1-2.51-16A56.47,56.47,0,0,1,33,77.4,75.82,75.82,0,0,1,37.22,64c.4-1,1.87-4.81,4.19-9.57C43.5,50.08,44.84,47.32,47,43.78Z"/>
      <path class="cls-3" d="M44,56c.91-1.82,2.25-4.38,2.68-5.2C49,46.39,49.28,46,50.22,44a39.88,39.88,0,0,0,2.88-7.11c1-3.52.35-3.8,1.29-7.59a24.35,24.35,0,0,1,3.23-8,17.35,17.35,0,0,1,4.59-5,18,18,0,0,1,6.31-2.77,20.43,20.43,0,0,1,8.47,0,26.53,26.53,0,0,1,7,2.31,21.63,21.63,0,0,1,5.39,3.24,20.05,20.05,0,0,1,3.47,3.74c.85,1.2,1.25,2,3.5,7.39,1.93,4.58,2,4.87,2.62,6.1a62.65,62.65,0,0,0,3.28,5.77A73.09,73.09,0,0,0,107.34,49c1.32,1.64,3,3.68,5.34,6.19,1.85,2,2.41,2.37,4.12,4.24A50.71,50.71,0,0,1,121,64.43a35.58,35.58,0,0,1,6.07,13.13,50.59,50.59,0,0,1,1.48,8.85,41.85,41.85,0,0,1,.07,7.16,38.89,38.89,0,0,1-1.17,6.75,37.16,37.16,0,0,1-5,10.69,40,40,0,0,1-5.55,6.54,41.85,41.85,0,0,1-7.65,5.78,45.41,45.41,0,0,1-9.53,4.16A64.53,64.53,0,0,1,88.86,130a71,71,0,0,1-9.28.95,51.18,51.18,0,0,1-11.73-.7,40.21,40.21,0,0,1-11.72-3.88A41.95,41.95,0,0,1,37,104.79,39.72,39.72,0,0,1,34.66,94,53.19,53.19,0,0,1,35.5,79,68.78,68.78,0,0,1,39,67.6,120.6,120.6,0,0,1,44,56Z"/>
      <path class="cls-4" d="M57.92,65.49a28.67,28.67,0,0,1,4.21-3A33.44,33.44,0,0,1,74,58a34.36,34.36,0,0,1,10.35-.8A32.22,32.22,0,0,1,92.48,59a30.47,30.47,0,0,1,7.25,3.43A32.84,32.84,0,0,1,105,66.76a41.28,41.28,0,0,1,4.3,4.86,31,31,0,0,1,4,6.85,28.34,28.34,0,0,1,2,8,26.45,26.45,0,0,1-.54,8.7,25.76,25.76,0,0,1-2.39,6.07,30.44,30.44,0,0,1-3.82,5.73,31.3,31.3,0,0,1-5.44,4.84,40.76,40.76,0,0,1-11.09,5.45,42.86,42.86,0,0,1-10.5,2.4,33.76,33.76,0,0,1-9.59-.32,31,31,0,0,1-8.26-2.74A28.94,28.94,0,0,1,56,110.88a29.36,29.36,0,0,1-6.31-9.95,29.72,29.72,0,0,1-1.84-11.14,35.31,35.31,0,0,1,1.07-8.21,35.67,35.67,0,0,1,3.47-8.92A25.7,25.7,0,0,1,57.92,65.49Z"/>
      <path class="cls-5" d="M55.88,72.33a31.8,31.8,0,0,1,2.27-3,29.15,29.15,0,0,1,4-3.86,27.58,27.58,0,0,1,6.09-3.67,31.13,31.13,0,0,1,8.6-2.31,31.36,31.36,0,0,1,8-.39A28.49,28.49,0,0,1,92,60.65a29.91,29.91,0,0,1,8.81,5.24,34.38,34.38,0,0,1,6.25,6.22,32,32,0,0,1,4.55,8,26.72,26.72,0,0,1,1.77,7.34,18.9,18.9,0,0,1-.28,6.76,23.22,23.22,0,0,1-2.49,5.73,27.27,27.27,0,0,1-2.79,4.55,25.56,25.56,0,0,1-4.51,4.43,36.87,36.87,0,0,1-5,3.39A43.56,43.56,0,0,1,92.57,115a40.74,40.74,0,0,1-5.71,2A35,35,0,0,1,80,118a28.83,28.83,0,0,1-7.35-.07,23.36,23.36,0,0,1-6.14-2,29.33,29.33,0,0,1-8.28-5.81A26.28,26.28,0,0,1,53,103.06a27.42,27.42,0,0,1-2.63-9.17,29.79,29.79,0,0,1,.81-10.75A36.23,36.23,0,0,1,55.88,72.33Z"/>
      <path class="cls-6" d="M29.52,100.83c-.52-.11-1.29.92-2.2,1.58a7.49,7.49,0,0,1-5.41,1,9,9,0,0,1-4-1.72c-.53-.37-.12-.16-2.39-2.23-1-.93-1.46-1.3-1.57-2s.21-.76.44-1.84a6.34,6.34,0,0,0,0-2.87,3.74,3.74,0,0,0-1.32-2.39c-.39-.25-.65-.23-.87-.55S12,89,12.14,88a20.87,20.87,0,0,0,.13-2.58,4.32,4.32,0,0,0-.29-2,1.51,1.51,0,0,0-.67-.81A1.5,1.5,0,0,0,9.65,83c-.3.35-.31.76-.34,1.57a15.17,15.17,0,0,0,.13,1.85A6.1,6.1,0,0,1,9.51,88c0,.39-.08.67-.24.73s-.51-.18-1.64-1.78-1.27-2-1.9-2.22a1.66,1.66,0,0,0-1.7.17c-.56.6,0,1.81.08,2.06a6.81,6.81,0,0,0,1.58,1.92,6,6,0,0,1,1,.91,2.17,2.17,0,0,1,.47.9,1.37,1.37,0,0,1-.1.86,3.93,3.93,0,0,0-.12,2,5.76,5.76,0,0,0,.76,2,4.6,4.6,0,0,0,1.58,1.65c.9.53,1.18.21,1.87.69s.6,1,1.41,2.21a14.48,14.48,0,0,0,1.77,2,17,17,0,0,0,2.2,2,10.42,10.42,0,0,0,3.93,1.7,11.06,11.06,0,0,0,4.87.19c2.42-.37,4.46-.93,4.94-1.91S30.27,101,29.52,100.83Z"/>
      <path class="cls-6" d="M135.22,86.08c.39-.24.74.08,1.88.22a10.54,10.54,0,0,0,2.4-.1,12.49,12.49,0,0,0,3.07-.51,9,9,0,0,0,2.52-1.48,18.6,18.6,0,0,0,2.72-2.47c1.88-2.06,2.1-3.12,2.16-3.53a2.26,2.26,0,0,0-.09-1.19,5.27,5.27,0,0,0-1-1.5,3.76,3.76,0,0,1-.89-2.18,6.72,6.72,0,0,1,.1-2.11,5.2,5.2,0,0,1,.82-1.9c.27-.46.12-.53-.44-1.69-.85-1.79-1.28-2.7-1.15-3.62,0-.32.12-1.29.82-1.65a1.68,1.68,0,0,1,1.46.12c.5.29.7.79,1.06,1.78a17.44,17.44,0,0,1,.66,2.4c.1.43.28.71.42.73s.24-.5.54-1.34a10.79,10.79,0,0,1,.87-2.38,2.31,2.31,0,0,1,1.29-1.15,1.6,1.6,0,0,1,1.23.15c.7.52.65,1.95.25,2.95-.57,1.37-1.78,1.79-1.7,2.84a4.81,4.81,0,0,0,.57.91,4.28,4.28,0,0,1,.63,1.19,7,7,0,0,1,.1,3.72,4.46,4.46,0,0,1-1.93,2.29c-.66.39-.62.48-.42.28a.75.75,0,0,0-.27.56,9.43,9.43,0,0,1-1.19,4.09,14,14,0,0,1-3.79,4,19.74,19.74,0,0,1-7.09,3.41c-2.06.52-4.81,1.2-5.8-.07A2.17,2.17,0,0,1,135.22,86.08Z"/>
      <path class="cls-6" d="M106.59,131.78c.56.34.46,1.1.64,2.61a40.62,40.62,0,0,0,1.42,5.65c.74,2.56.49,1.5.74,2.56a8.44,8.44,0,0,0,.74,2c.32.37.56.42,2.39-.06,2.65-.71,3.36-1.08,4-.66a1.44,1.44,0,0,1,.72,1.34c-.11.59-.89.94-3.2,1.52-3.48.89-5.23,1.32-6.11.68-.68-.49-.81-1.19-1.24-3.06-1.06-4.6-1-4.62-1.66-6.7-.91-3-1.68-4-1.06-5A2.19,2.19,0,0,1,106.59,131.78Z"/>
      <path class="cls-6" d="M67.07,137c-.31.51-.16,1.41.08,3.49.11.94.12,1.83.15,3.74.06,3.05,0,3.25,0,4.36a9.26,9.26,0,0,1-.16,2.08c-.08.36-.14.63-3.1,1-2.13.23-2.91.18-3.35.8a1.41,1.41,0,0,0-.13,1.47c.18.29.56.51,1.75.54a14.35,14.35,0,0,0,3.51-.21c2.44-.46,2.89-.43,3.47-1s.6-1.56.58-3c0-2.13.08-4.25.11-6.38.08-4.4.61-6.88-.41-7.76C68.76,135.43,67.46,136.37,67.07,137Z"/>
      <path d="M97.31,91.87a15.06,15.06,0,0,1-12.84,17,15.07,15.07,0,0,1-17-12.83Z"/>
      <ellipse cx="70.84" cy="78.63" rx="2.9" ry="4.53" transform="translate(-10.24 10.61) rotate(-7.99)"/>
      <ellipse cx="88.46" cy="76.16" rx="2.9" ry="4.53" transform="translate(-9.73 13.04) rotate(-7.99)"/>
      <circle class="cls-7" cx="71.31" cy="76.41" r="1.07"/>
      <circle class="cls-7" cx="88.96" cy="73.93" r="1.07"/>
      <path class="cls-8" d="M90.6,92.81,75.19,95a2.78,2.78,0,0,1,.48-1,2.81,2.81,0,0,1,1.83-1.08l10.3-1.44A2.76,2.76,0,0,1,90.6,92.81Z"/>
      <path class="cls-7" d="M90.21,93.89A2.78,2.78,0,0,1,87.85,97l-10.3,1.44a2.78,2.78,0,0,1-3.14-2.36,2.73,2.73,0,0,1,0-1l15.42-2.17A3,3,0,0,1,90.21,93.89Z"/>
      <path class="cls-8" d="M92.44,107.78a8.25,8.25,0,0,1-16.34,2.3,8,8,0,0,1,0-2.39,15.13,15.13,0,0,0,15.75-2A8.42,8.42,0,0,1,92.44,107.78Z"/>
      <path class="cls-9" d="M91.86,105.7a15.13,15.13,0,0,1-15.75,2,8.25,8.25,0,0,1,15.75-2Z"/>
      <ellipse class="cls-9" cx="94.54" cy="81.27" rx="2.66" ry="1.7" transform="translate(-10.38 13.93) rotate(-7.99)"/>
      <g>
        <path class="cls-7" d="M93.24,81.34a.36.36,0,0,0,.29.37c.17,0,.3-.17.32-.32a.37.37,0,0,0-.28-.43C93.39,81,93.24,81.15,93.24,81.34Z"/>
        <path class="cls-7" d="M95.22,80.54c.06-.17.28-.26.37-.2s0,.2,0,.29-.26.19-.34.13A.22.22,0,0,1,95.22,80.54Z"/>
        <path class="cls-7" d="M94.58,81.74a.32.32,0,0,1,.35-.33.3.3,0,0,1,.21.3.32.32,0,0,1-.31.33A.3.3,0,0,1,94.58,81.74Z"/>
      </g>
      <ellipse class="cls-9" cx="66.18" cy="85.38" rx="2.66" ry="1.7" transform="translate(-11.23 10.03) rotate(-7.99)"/>
      <g>
        <path class="cls-7" d="M64.87,85.45a.37.37,0,0,0,.3.37.36.36,0,0,0,.32-.32.38.38,0,0,0-.29-.43C65,85.06,64.87,85.26,64.87,85.45Z"/>
        <path class="cls-7" d="M66.86,84.64c0-.16.28-.26.36-.19s.06.19,0,.29-.25.19-.33.13A.21.21,0,0,1,66.86,84.64Z"/>
        <path class="cls-7" d="M66.21,85.85a.33.33,0,0,1,.36-.33.3.3,0,0,1,.21.3.29.29,0,1,1-.57,0Z"/>
      </g>
    </g>
  </g>
</svg>
