<svg xmlns="http://www.w3.org/2000/svg" width="163.28" height="164.55" viewBox="0 0 163.28 164.55">
  <defs>
    <style>
      .cls-1 {
        fill: #344200;
      }

      .cls-2 {
        fill: #258527;
      }

      .cls-3 {
        fill: #6c3;
      }

      .cls-4, .cls-5 {
        fill: #603901;
      }

      .cls-4 {
        opacity: 0.72;
      }

      .cls-6 {
        fill: #b39368;
      }

      .cls-7 {
        fill: none;
      }

      .cls-8 {
        fill: #fff;
      }

      .cls-9 {
        fill: #800;
      }
    </style>
  </defs>
  <g id="Layer_3" data-name="Layer 3">
    <g>
      <path class="cls-1" d="M25.17,101.4c-.46.34-1.7-.26-2.91-.45a8.46,8.46,0,0,0-5.75,1.65,9.79,9.79,0,0,0-3.12,3.48c-.35.6-.05.21-1.3,3.21-.56,1.34-.82,1.89-.61,2.56s.56.61,1.29,1.51A6.45,6.45,0,0,1,14.11,116a3.71,3.71,0,0,1-.18,2.85c-.27.42-.52.52-.59.93s.25.88.8,1.69a26.5,26.5,0,0,1,1.33,2.34,4.24,4.24,0,0,1,.67,2,1.56,1.56,0,0,1-.27,1.07,1.73,1.73,0,0,1-1.85.37c-.45-.19-.65-.56-1.06-1.31a15.69,15.69,0,0,1-.75-1.78,6,6,0,0,0-.64-1.44c-.23-.34-.39-.59-.58-.57s-.4.41-.76,2.43-.33,2.44-.83,3a1.87,1.87,0,0,1-1.75.65c-.82-.3-.88-1.68-.89-2a7,7,0,0,1,.65-2.53,6.16,6.16,0,0,0,.52-1.29,2.33,2.33,0,0,0,0-1.07,1.54,1.54,0,0,0-.5-.76,3.88,3.88,0,0,1-1.08-1.83,5.69,5.69,0,0,1-.19-2.23A4.68,4.68,0,0,1,7,114.3c.63-.92,1.06-.75,1.51-1.53s.12-1.2.35-2.72a14.66,14.66,0,0,1,.81-2.65,17.68,17.68,0,0,1,1.22-2.9,11.73,11.73,0,0,1,3.06-3.44,12.66,12.66,0,0,1,4.7-2.46c2.54-.79,4.81-1.22,5.74-.54S25.84,100.89,25.17,101.4Z"/>
      <path class="cls-1" d="M131.62,75.36c.49.09.74-.34,1.87-.88a12.63,12.63,0,0,1,2.51-.74,12.93,12.93,0,0,1,3.25-.5,10.65,10.65,0,0,1,3.21.5,20.46,20.46,0,0,1,3.65,1.49c2.65,1.37,3.24,2.33,3.44,2.71a2.19,2.19,0,0,1,.32,1.2,5.16,5.16,0,0,1-.51,1.82,3.85,3.85,0,0,0-.17,2.46,7.09,7.09,0,0,0,.83,2A5,5,0,0,0,151.53,87c.43.37.3.49.12,1.83-.27,2-.39,3.1.06,4,.15.3.56,1.23,1.4,1.34a2,2,0,0,0,1.48-.63c.41-.47.44-1,.47-2.13a17.53,17.53,0,0,0-.14-2.59c0-.46.05-.79.19-.86s.41.4,1,1.13c1,1.23,1.07,1.54,1.72,2a2.47,2.47,0,0,0,1.72.68,1.76,1.76,0,0,0,1.22-.57c.55-.76,0-2.15-.75-3-1.06-1.15-2.46-1.15-2.73-2.2a4.79,4.79,0,0,1,.28-1.1,4.17,4.17,0,0,0,.23-1.39,7,7,0,0,0-1.17-3.7,4.77,4.77,0,0,0-2.78-1.57c-.82-.16-.8-.26-.52-.13a.74.74,0,0,1-.47-.46,9.69,9.69,0,0,0-2.64-3.61,15.08,15.08,0,0,0-5.28-2.6,22.23,22.23,0,0,0-8.49-.88c-2.3.21-5.38.5-6,2.1A2.22,2.22,0,0,0,131.62,75.36Z"/>
      <path class="cls-2" d="M40.49,22.1a26.73,26.73,0,0,1,5-6.87A27.22,27.22,0,0,1,53.42,9.8a29.69,29.69,0,0,1,12-2.49A35.91,35.91,0,0,1,77.55,9a25.26,25.26,0,0,1,10.08,5.27c2,1.83,3.09,3.63,5.27,7.22,2.73,4.5,2.43,5.23,4.86,9.1a70,70,0,0,0,5.89,7.72,102.23,102.23,0,0,0,7.6,8.45c.85.84,3.3,3,8.18,7.35,5.28,4.68,5.64,5,6.5,6a41.15,41.15,0,0,1,5.79,8.72,56.48,56.48,0,0,1,4.56,11.44c.48,1.77.79,3.24,1,4.13h0a56.36,56.36,0,0,1,1,9.22,38.72,38.72,0,0,1-1.37,11.54,39.61,39.61,0,0,1-3.84,9,45.84,45.84,0,0,1-6.84,9.25,56.93,56.93,0,0,1-7.21,6.24,71.36,71.36,0,0,1-7.17,4.94,75.49,75.49,0,0,1-9.13,4.58,78.13,78.13,0,0,1-11.84,3.91,81.25,81.25,0,0,1-9.14,1.66,63.67,63.67,0,0,1-12.13.66l-.3,0a56.36,56.36,0,0,1-11.76-2.27,54.28,54.28,0,0,1-13.16-5.37,48.26,48.26,0,0,1-12-10,47.56,47.56,0,0,1-8.68-14.54c-3.59-9.62-2.91-17.87-2.36-23.83A71.19,71.19,0,0,1,25.17,72c4-11.4,7.77-19.7,7.77-19.7,2.7-6.29,2.52-5.4,3.56-9s.47-2.69.86-7.83C37.69,31.18,38.07,26.84,40.49,22.1Z"/>
      <path class="cls-3" d="M37.38,50a29.36,29.36,0,0,0,2.3-5.23A33.54,33.54,0,0,0,41,38.42c.51-3.85.16-4,.52-6.28a24.36,24.36,0,0,1,3.3-8.84,21.21,21.21,0,0,1,6.13-6.56,23.29,23.29,0,0,1,9-3.58,32,32,0,0,1,8.79-.45c3.17.26,9.6.79,15.3,5.06a28.13,28.13,0,0,1,7.46,9c1.5,2.6,1.73,3.86,3.86,7.3a58.08,58.08,0,0,0,4.54,6.26,93.52,93.52,0,0,0,8.41,9c3.86,3.66,4.75,3.58,10.29,8.58a37.09,37.09,0,0,1,5.28,5.5,39.68,39.68,0,0,1,3.74,6.15,52.5,52.5,0,0,1,3.66,8.38,51.24,51.24,0,0,1,2,8.61,39.49,39.49,0,0,1,.5,10,36,36,0,0,1-3.94,13.23,44,44,0,0,1-7,9.55,51.45,51.45,0,0,1-6.78,6.43,56.76,56.76,0,0,1-10,6.17,74.28,74.28,0,0,1-9.9,4.22A69.56,69.56,0,0,1,84.65,139a77.44,77.44,0,0,1-13.6.85c-6.32-.15-10.81-.25-16.28-2.05A41.1,41.1,0,0,1,40.15,129a42.9,42.9,0,0,1-11.1-14,44,44,0,0,1-4.14-16.33,56.82,56.82,0,0,1,.32-12.38A77.4,77.4,0,0,1,28.59,72c.34-1.12,1.61-5.2,3.7-10.39A126.49,126.49,0,0,1,37.38,50Z"/>
      <path class="cls-4" d="M35.26,62.92c.82-2,2.05-4.78,2.44-5.68,2.11-4.79,2.38-5.2,3.23-7.36a41.65,41.65,0,0,0,2.5-7.69c.74-3.77,0-4,.72-8A25.43,25.43,0,0,1,47,25.54a18.79,18.79,0,0,1,4.54-5.68,20.43,20.43,0,0,1,6.6-3.54,23.17,23.17,0,0,1,9.17-.91,29.7,29.7,0,0,1,7.82,1.66,23.69,23.69,0,0,1,6.14,2.8,21,21,0,0,1,4.08,3.52c1,1.15,1.54,2,4.46,7.3,2.49,4.56,2.61,4.86,3.37,6.06A58.56,58.56,0,0,0,97.2,42.4,73.52,73.52,0,0,0,103.3,49c1.57,1.56,3.54,3.51,6.33,5.86,2.18,1.84,2.82,2.22,4.84,4a53.81,53.81,0,0,1,5,4.8,36.27,36.27,0,0,1,7.75,13,52.16,52.16,0,0,1,2.38,9,41.06,41.06,0,0,1,.7,7.43,36.32,36.32,0,0,1-5.11,18.77,43.85,43.85,0,0,1-5.44,7.38A46.93,46.93,0,0,1,112,126a50.9,50.9,0,0,1-10,5.32,73.46,73.46,0,0,1-11.64,3.73,78.86,78.86,0,0,1-10,2,58.58,58.58,0,0,1-12.79.51,44.69,44.69,0,0,1-13-2.8,43.7,43.7,0,0,1-14.12-9A41.22,41.22,0,0,1,32,114.41a39.77,39.77,0,0,1-3.5-11,53.14,53.14,0,0,1-.41-15.6,69.47,69.47,0,0,1,2.74-12.23A123.94,123.94,0,0,1,35.26,62.92Z"/>
      <path class="cls-5" d="M51.17,71.36a32.33,32.33,0,0,1,4.3-3.57,39.33,39.33,0,0,1,6-3.55,40.3,40.3,0,0,1,6.52-2.42A39.86,39.86,0,0,1,79.1,59.89a36.56,36.56,0,0,1,9,1,33.58,33.58,0,0,1,8.16,2.8,34.68,34.68,0,0,1,6.07,4,43.14,43.14,0,0,1,5.08,4.6,31.27,31.27,0,0,1,5,6.69,28,28,0,0,1,2.94,8.15,26.15,26.15,0,0,1,.18,9.09,26.88,26.88,0,0,1-2,6.56,31.57,31.57,0,0,1-3.65,6.36,33.82,33.82,0,0,1-5.46,5.6,45.44,45.44,0,0,1-11.55,6.83,48,48,0,0,1-11.17,3.61,38.12,38.12,0,0,1-10.42.68,34.26,34.26,0,0,1-9.2-2A31.1,31.1,0,0,1,53,118.73a29.19,29.19,0,0,1-10.69-21A36.39,36.39,0,0,1,42.78,89a37.09,37.09,0,0,1,3-9.63A27.34,27.34,0,0,1,51.17,71.36Z"/>
      <path class="cls-6" d="M49.56,78.68a36.56,36.56,0,0,1,2.19-3.37A30.92,30.92,0,0,1,62,66.42a35.29,35.29,0,0,1,9.12-3.3,35.82,35.82,0,0,1,8.66-1.26,30.17,30.17,0,0,1,17.95,5.38,36.27,36.27,0,0,1,7.33,5.8,32.18,32.18,0,0,1,5.64,7.88,26.38,26.38,0,0,1,2.56,7.43,19,19,0,0,1,.3,7.06,24.56,24.56,0,0,1-2.2,6.22,28.74,28.74,0,0,1-2.62,5,28.32,28.32,0,0,1-4.5,5.08,41,41,0,0,1-5.16,4.06,50.67,50.67,0,0,1-6,3.35,46.49,46.49,0,0,1-6,2.71,40.48,40.48,0,0,1-7.33,1.72,32.92,32.92,0,0,1-8,.7A26,26,0,0,1,65,122.89a31.15,31.15,0,0,1-9.48-5.16,27.39,27.39,0,0,1-6.35-6.8,27.86,27.86,0,0,1-3.66-9.26,29.89,29.89,0,0,1-.06-11.26A37.46,37.46,0,0,1,49.56,78.68Z"/>
      <path class="cls-1" d="M109.79,135.1c.63.29.59,1.1.92,2.65a41.15,41.15,0,0,0,2,5.72c1,2.58.67,1.5,1,2.58a8.84,8.84,0,0,0,1,2c.38.34.65.38,2.59-.32,2.81-1,3.55-1.47,4.33-1.11a1.46,1.46,0,0,1,.91,1.31c-.07.63-.89,1.07-3.34,1.93-3.69,1.29-5.56,1.92-6.57,1.35-.78-.44-1-1.15-1.62-3.06a71.56,71.56,0,0,0-2.39-6.78c-1.25-3-2.17-4-1.58-5.06A2.46,2.46,0,0,1,109.79,135.1Z"/>
      <path class="cls-1" d="M67.4,144.69c-.3.57-.06,1.48.39,3.62.2,1,.29,1.89.5,3.87a44.5,44.5,0,0,1,.32,4.54,9.59,9.59,0,0,1,0,2.17c-.06.39-.1.67-3.29,1.32-2.28.46-3.13.49-3.56,1.19a1.43,1.43,0,0,0,0,1.54c.22.27.65.46,1.95.37a16.07,16.07,0,0,0,3.79-.59c2.6-.73,3.09-.75,3.67-1.4s.52-1.67.37-3.16c-.22-2.21-.3-4.43-.45-6.64-.3-4.59.06-7.22-1.13-8C69.09,142.89,67.76,144,67.4,144.69Z"/>
      <path d="M96.51,108.15l-27,6.34a13,13,0,0,1,3-11.63c.3-.34.62-.66.95-1a14.5,14.5,0,0,1,14.26-3.15q.41.13.81.3A13.09,13.09,0,0,1,96.51,108.15Z"/>
      <path class="cls-7" d="M89,96.3l-16.52,3.87a3,3,0,0,1,.44-1.11,3.13,3.13,0,0,1,1.88-1.32l11-2.59A3,3,0,0,1,89,96.3Z"/>
      <path class="cls-7" d="M80,98.42a14.23,14.23,0,0,0-6.52,3.46c-.33.32-.65.64-.95,1a2.77,2.77,0,0,1-.83-1.41,2.81,2.81,0,0,1,0-1.08Z"/>
      <path class="cls-7" d="M88.62,97.48A2.81,2.81,0,0,1,88.53,99q-.41-.16-.81-.3A14.35,14.35,0,0,0,80,98.42l8.19-1.92A2.67,2.67,0,0,1,88.62,97.48Z"/>
      <path class="cls-8" d="M88.53,99a2.7,2.7,0,0,1-.31.64A3.06,3.06,0,0,1,86.33,101l-11,2.6a3.09,3.09,0,0,1-2.78-.72c.3-.34.62-.66.95-1a14.5,14.5,0,0,1,14.26-3.15Q88.13,98.86,88.53,99Z"/>
      <path class="cls-7" d="M92.32,111.66a9,9,0,0,1-17.51,4.11,8.34,8.34,0,0,1-.19-2.48,17.17,17.17,0,0,0,16.89-3.73A7.83,7.83,0,0,1,92.32,111.66Z"/>
      <path class="cls-7" d="M91.85,111.37A17.15,17.15,0,0,1,75,115.1a8.37,8.37,0,0,1,.39-2l15.16-3.56A8,8,0,0,1,91.85,111.37Z"/>
      <path class="cls-9" d="M90.51,109.56l-15.16,3.56a9.2,9.2,0,0,1,15.16-3.56Z"/>
      <ellipse class="cls-5" cx="92.27" cy="83.89" rx="2.9" ry="1.77" transform="translate(-16.73 23.3) rotate(-13.21)"/>
      <g>
        <path class="cls-8" d="M90.86,84.1a.34.34,0,1,0,.32-.43A.39.39,0,0,0,90.86,84.1Z"/>
        <path class="cls-8" d="M92.94,83.05c0-.17.28-.3.38-.24s.08.2,0,.3-.25.23-.35.17A.23.23,0,0,1,92.94,83.05Z"/>
        <path class="cls-8" d="M92.35,84.37a.36.36,0,0,1,.36-.38.32.32,0,0,1,.25.29.35.35,0,0,1-.31.37A.31.31,0,0,1,92.35,84.37Z"/>
      </g>
      <ellipse class="cls-5" cx="61.87" cy="91.15" rx="2.9" ry="1.77" transform="translate(-19.19 16.55) rotate(-13.21)"/>
      <g>
        <path class="cls-8" d="M60.47,91.36a.37.37,0,0,0,.35.36.39.39,0,0,0,.32-.37.39.39,0,0,0-.35-.42A.4.4,0,0,0,60.47,91.36Z"/>
        <path class="cls-8" d="M62.55,90.32c.05-.18.28-.3.38-.25a.26.26,0,0,1,0,.31c-.07.13-.25.22-.35.17A.22.22,0,0,1,62.55,90.32Z"/>
        <path class="cls-8" d="M62,91.64a.36.36,0,0,1,.35-.39.33.33,0,0,1,.26.3.35.35,0,0,1-.31.37A.32.32,0,0,1,62,91.64Z"/>
      </g>
      <g>
        <ellipse cx="66.34" cy="83.65" rx="3.16" ry="4.72" transform="translate(-17.36 17.37) rotate(-13.21)"/>
        <ellipse class="cls-8" cx="67.59" cy="83.89" rx="1.16" ry="1.11" transform="translate(-17.38 17.66) rotate(-13.21)"/>
        <path class="cls-5" d="M63.26,84.37c-.59-2.53.3-4.91,2-5.31s3.56,1.33,4.16,3.87"/>
      </g>
      <g>
        <ellipse cx="85.02" cy="79.27" rx="3.16" ry="4.72" transform="translate(-15.86 21.52) rotate(-13.21)"/>
        <ellipse class="cls-8" cx="86.27" cy="79.51" rx="1.16" ry="1.11" transform="translate(-15.88 21.82) rotate(-13.21)"/>
        <path class="cls-5" d="M81.94,80c-.59-2.54.3-4.92,2-5.31S87.5,76,88.09,78.55"/>
      </g>
    </g>
  </g>
</svg>
