<svg id="Layer_1" data-name="Layer 1" xmlns="http://www.w3.org/2000/svg" width="400" height="400" viewBox="0 0 400 400">
  <defs>
    <style>
      .cls-1 {
        fill: #25b527;
      }

      .cls-2 {
        fill: #6c3;
      }

      .cls-3 {
        fill: #ccff9c;
      }

      .cls-4 {
        fill: #603901;
      }

      .cls-5 {
        fill: #b39368;
      }

      .cls-6 {
        fill: #c99375;
      }

      .cls-7 {
        fill: #4a2e00;
      }

      .cls-11, .cls-8 {
        fill: none;
      }

      .cls-8 {
        stroke: #000;
        stroke-linecap: round;
        stroke-miterlimit: 10;
        stroke-width: 6px;
      }

      .cls-9 {
        fill: #fa4639;
      }

      .cls-10 {
        fill: #7e0000;
      }

      .cls-12, .cls-13 {
        fill: #fff;
      }

      .cls-12 {
        opacity: 0.41;
      }

      .cls-13 {
        opacity: 0.6;
      }
    </style>
  </defs>
  <g>
    <path d="M167.39,324.69c.09,1.11-1,1.53-2.27,3.61a17.59,17.59,0,0,0-1.67,4.61c-1.52,5.53-2.29,8.3-2.35,8.6a84.7,84.7,0,0,0-1,10.24,73.18,73.18,0,0,0-.28,8.77c.21,3.92.32,6,1.39,8.41a17.85,17.85,0,0,0,6.23,7.27A25,25,0,0,0,178,380.61a36.12,36.12,0,0,0,13.54-.11,67.53,67.53,0,0,0,18.16-6c3.81-1.93,5.71-2.89,5.93-3.05,1.18-.85,1.74-1.43,2.62-1.37,1.33.09,2.07,1.57,3.78,4.46,2.89,4.86,2.7,3.85,4.52,7.23a49.43,49.43,0,0,1,3,7.24c.38,1.06.85,2.44.2,3.16s-1.66.47-2.07.41c-2.28-.35-3.17-2.09-6-4.86-3.53-3.5-3.59-2.18-7.19-5.69a5.76,5.76,0,0,0-3.34-2,5.86,5.86,0,0,0-3.17.78c-1.93.83-4,1.31-6,2.08a46.08,46.08,0,0,1-10.16,2.49,44.68,44.68,0,0,1-9.14.74,38.55,38.55,0,0,1-9.31-1.45c-3.17-.9-6.65-1.89-10.09-4.62a23.42,23.42,0,0,1-6.77-9c-2.78-6-2.69-11.19-2.56-18.48.07-4.08.68-7.83,1.89-15.32a55.32,55.32,0,0,1,2.84-10c1.66-4.35,2.63-5.31,3.76-5.59C164.54,321.25,167.26,323,167.39,324.69Z"/>
    <path d="M101.32,271.91c-.28,1.11-1.47,1.19-3.51,2.77a23.12,23.12,0,0,0-3.48,3.76c-3.07,3.64-4.6,5.47-5.57,6.85-1.36,1.93-2.33,3.6-4.26,6.94-1,1.7-1.89,3.35-2.83,5.15a35.25,35.25,0,0,0-2.79,6.12,19.37,19.37,0,0,0-.94,5.26,15.38,15.38,0,0,0,1.24,7.2,16.6,16.6,0,0,0,3.22,4.44,32.29,32.29,0,0,0,6.17,5.32c2.94,2,5.25,2.9,9.34,4.55a59.78,59.78,0,0,0,10.36,3.36,42.86,42.86,0,0,0,7.71,1.06c2.14.1,5.92.26,8.45-.41a14.56,14.56,0,0,1,2.64-.39c1.1-.06,1.66-.09,2.06.17.94.59.77,2.18.75,4.32,0,.23.15,2.4.46,6.72.27,3.84.47,4.44.35,6.49a20.57,20.57,0,0,1-.8,4.34c-.53,1.77-.92,3.05-1.75,3.23-.21,0-1.06.14-2.7-2.14-1.78-2.48-2-4.37-3.23-8.11-1.92-6.1-3.1-7.1-3.65-7.5s-1-.65-4.66-1.49-5.59-1.05-7.77-1.47a55.82,55.82,0,0,1-9.22-2.76,54,54,0,0,1-9.19-3.91,31.54,31.54,0,0,1-8.88-6.88c-1.42-1.63-6.67-7.68-6.53-16.06.06-3.28.92-5.5,2.61-9.86.53-1.36,2-5.07,8.18-14.58,1.56-2.42,3.79-5.78,6.62-9.75,2.46-2.24,4.31-4,5.53-5.14S97,267.79,98,267.8C99.81,267.83,101.73,270.27,101.32,271.91Z"/>
    <path d="M178.46,89.14c1.08-2.1-.52-4.29-1.71-7.92-.82-2.47-1-5.48-1.27-11.48A81.64,81.64,0,0,1,176,53.81a54.31,54.31,0,0,1,3.39-14c1.21-3,3.09-5.94,6.81-11.78a41.94,41.94,0,0,1,4.53-5.49c1.78-1.89,2.69-2.57,3.86-2.67s1.59.46,3.85,1.06a16.17,16.17,0,0,0,4,.61,13.52,13.52,0,0,0,6.46-1.9c2.17-1.12,3.45-1.77,4.07-3.28.51-1.23.61-3.08-.3-3.84s-2.2-.07-2.61-.77c-.19-.33,0-.61.36-1.91s.53-2.1.36-2.41c-.59-1.12-3.2-.2-3.9-1.42-.28-.5.1-.76-.08-1.75a4,4,0,0,0-1.73-2.59c-1.41-.81-3.16,0-4.49.57a12.55,12.55,0,0,0-4.39,3.5c-1.75,2-3.11,3.56-3.25,5.77-.08,1.34.34,2.13-.25,3.26a4.85,4.85,0,0,1-2.19,1.87,34.79,34.79,0,0,0-4.47,4,38.14,38.14,0,0,0-5.24,6.79,52.21,52.21,0,0,0-3.24,5.42,57,57,0,0,0-3.23,8,72.61,72.61,0,0,0-3.17,10.66,62.61,62.61,0,0,0-1.09,8.74,80.57,80.57,0,0,0,.09,10c.11,2.13.61,6,1.6,13.77.58,4.5.9,6.76,2.22,7.29S177.62,90.75,178.46,89.14Z"/>
    <g>
      <path class="cls-1" d="M162.56,96c.37-.19,3.36-1.65,7.4-3.73,2.94-1.51,5.37-2.78,7-3.67,2.87-1.49,7.14-3.76,12.26-6.66,15.42-8.72,21.27-13.74,29.92-18.64,18.53-10.5,27.8-15.74,41-17.1,17.65-1.82,31.52,4.23,38.1,7.2,7.56,3.4,27.88,12.55,37.22,34.07,4.63,10.67,4.76,20.25,4.84,25.66.15,10.74-2.45,19.74-7.67,37.3-3.26,11-3.64,10.44-9.5,28.7-2.57,8-5.78,18-9.36,30.77-5.11,18.19-4.52,18.93-8.09,30.39a268.56,268.56,0,0,1-12.23,32.08c-6.64,14.38-11.34,24.57-20.86,35.9-6.36,7.58-14.33,17.08-28.54,23.75a75.45,75.45,0,0,1-33.62,6.84c-4.17-.12-12.76-.71-26.35-5.5a135,135,0,0,1-23-10.66,170.91,170.91,0,0,1-24.6-17.31c-13.19-10.88-28.84-23.93-44.42-45.44-10.85-15-17.92-25-21.24-40.76a81.52,81.52,0,0,1,1.49-39.59C77,164.12,85.3,154.5,93.54,145.11,115.36,120.25,141.91,106.6,162.56,96Z"/>
      <path class="cls-2" d="M164.3,98.57c4-2.13,7.33-3.8,9.54-4.9s4.52-2.34,7.25-3.82c2.19-1.2,5.26-2.91,8.87-5,15.3-9,16.82-11.32,28.77-18.2,17.81-10.26,26.72-15.38,39.43-16.75,16.94-1.82,30.23,4,36.53,6.87,7.24,3.28,26.7,12.1,35.59,33,4.41,10.35,4.51,19.65,4.57,24.9.11,10.44-2.42,19.19-7.48,36.26-3.16,10.64-3.53,10.15-9.21,27.9-2.49,7.77-5.6,17.52-9.08,29.92-5,17.68-4.4,18.4-7.86,29.55a266.6,266.6,0,0,1-11.84,31.19c-6.42,14-11,23.9-20.14,34.94-6.12,7.38-13.8,16.63-27.46,23.15a71.72,71.72,0,0,1-32.28,6.75c-4-.1-12.24-.64-25.26-5.25-20.58-7.28-34.37-18.08-45.59-27-24.91-19.83-39-39.12-42.47-44-10.36-14.52-17.11-24.19-20.25-39.52a80.51,80.51,0,0,1,1.56-38.46C82,165,90,155.66,97.91,146.5,118,123.31,141.82,110.51,164.3,98.57Z"/>
      <path class="cls-3" d="M165.6,100.73c7.32-3.82,13.69-6.76,24.8-13.28,14.79-8.67,16.26-11,27.81-17.59C235.42,60,244,55,256.31,53.67c16.37-1.75,29.22,3.88,35.31,6.64,7,3.17,25.81,11.7,34.4,31.87,4.26,10,4.36,19,4.41,24.06.11,10.09-2.34,18.54-7.23,35-3.05,10.29-3.4,9.82-8.9,27-2.41,7.51-5.41,16.93-8.78,28.91-4.79,17.09-4.25,17.79-7.59,28.56a256.84,256.84,0,0,1-11.44,30.14c-6.21,13.52-10.6,23.1-19.46,33.77-5.92,7.13-13.34,16.07-26.54,22.38a69.49,69.49,0,0,1-31.2,6.52c-3.86-.09-11.83-.62-24.42-5.08-19.88-7-33.21-17.47-44.05-26.1-24.07-19.16-37.69-37.81-41-42.51-10-14-16.53-23.37-19.57-38.19a77.71,77.71,0,0,1,1.51-37.16c4.37-14.53,12.06-23.58,19.74-32.43C121.75,123.66,146.42,110.77,165.6,100.73Z"/>
    </g>
    <g>
      <path class="cls-4" d="M157.51,170.47c7.25-4,13.37-5.78,19.32-7.52,8.26-2.41,14.81-4.26,23.54-3.72a42.65,42.65,0,0,1,16.36,3.87,43.53,43.53,0,0,1,15.87,13.2,53.83,53.83,0,0,1,6.82,11.62c4,9.27,4.54,17.23,4.85,22.87a75.21,75.21,0,0,1-3.11,27.56,72.55,72.55,0,0,1-13.7,25.19A67.49,67.49,0,0,1,197.06,284c-5.49,1.76-13,4.08-22.72,2.77-10.75-1.45-17.88-6.52-24-10.87a74.91,74.91,0,0,1-23-26.45c-3.58-7-7.77-15.14-7.45-26.25.38-13.05,6.77-22.22,12-29.69A77.05,77.05,0,0,1,157.51,170.47Z"/>
      <path class="cls-5" d="M174.1,174A57.82,57.82,0,0,1,187,169.65a40.37,40.37,0,0,1,14.32-.91,30.78,30.78,0,0,1,13.95,5c5.18,3.56,7.71,7.9,9.9,11.65a48.56,48.56,0,0,1,5.56,14.95c1.73,8.78.64,15.71-.24,21s-1.84,11-5.47,17.3c-2.5,4.35-5.2,7.18-8.57,10.7a64.31,64.31,0,0,1-11.92,10.21c-3.94,2.57-8.13,5.29-14.29,6.7a37.8,37.8,0,0,1-20.68-1.33,44.19,44.19,0,0,1-15.36-9.2c-4.34-3.68-12.61-10.7-16.41-23a42.75,42.75,0,0,1-.82-22.79C142.17,189.11,162.77,179.37,174.1,174Z"/>
      <path class="cls-6" d="M172.8,180.05c3.07-3.15,6.78-4,10.46-4.85a39.12,39.12,0,0,1,12.89-.71c4,.49,14.15,2.34,14.18,4.77,0,4.76-38.54,11.12-40.44,5.71C169.39,183.54,171.5,181.38,172.8,180.05Z"/>
      <path class="cls-7" d="M163.54,268.1c3.49-1.76,6.23,2.32,13.89,3.61a32.64,32.64,0,0,0,14.82-1.34c6.78-2,10-5.12,10.74-4.25s-1.82,5.83-6.26,8.39c-3.7,2.12-6.76,1.55-13.68,1.26-15.63-.66-21.38,1.37-22.62-1.44C159.59,272.43,161.25,269.25,163.54,268.1Z"/>
    </g>
    <path class="cls-8" d="M234.61,101.51A14.07,14.07,0,0,1,256.8,118.8"/>
    <path class="cls-8" d="M276,134.12A14.07,14.07,0,1,1,297.4,152.4"/>
    <ellipse class="cls-9" cx="218.43" cy="103.55" rx="6.27" ry="11.46" transform="translate(-20.92 137.38) rotate(-33.41)"/>
    <ellipse class="cls-9" cx="294.9" cy="165.62" rx="6.27" ry="11.46" transform="translate(69.42 417.73) rotate(-77.51)"/>
    <path class="cls-10" d="M246.9,156.34c-4,2.1-8,3-9.61,1.68s-1.71-5-.74-9.27c1.53-6.72,5.81-14.52,11.23-15,4.31-.35,9.29,4,10,8.39C258.55,147.69,252.68,153.31,246.9,156.34Z"/>
    <path class="cls-11" d="M237.79,171.77c-4.23.9-9.72-2.73-10.95-7-1.6-5.62,4.1-12.32,9.71-16-1,4.23-.85,8,.74,9.27s5.61.42,9.61-1.68C246.07,163,242.88,170.68,237.79,171.77Z"/>
    <path class="cls-9" d="M246.9,156.34c-4,2.1-8,3-9.61,1.68s-1.71-5-.74-9.27c3.43-2.24,6.83-3.35,8.51-2.36C246.92,147.49,247.49,151.67,246.9,156.34Z"/>
    <path d="M319.83,198s.69-.14,3-.68a44.53,44.53,0,0,0,6.77-2.27,81.51,81.51,0,0,0,7.75-3.67c6-3.15,9-4.7,11.17-6.13a58,58,0,0,0,12.85-10.77,52.91,52.91,0,0,0,7.75-12c1.75-3.57.43-1.82,3.13-8.82a5.71,5.71,0,0,0,.48-3.7c-.41-1.49-1.45-2-2.67-3.33a14.35,14.35,0,0,1-3.1-6.3c-.59-2.12-1.61-5.78.27-7.87a3.71,3.71,0,0,1,2.85-1.34c1,.07,1.18,1,2,.95s1-1.1,2.31-1.62a3.59,3.59,0,0,1,3.3.34A11.47,11.47,0,0,0,379,132a2.19,2.19,0,0,0,1.26.58c.72,0,.84-.73,1.7-1a2.54,2.54,0,0,1,1.84.3,3.62,3.62,0,0,1,1.59,2,7.51,7.51,0,0,1,.19,3.86,19.42,19.42,0,0,1-1,4.05,15,15,0,0,1-1.66,3.56c-1.08,1.65-1.62,2.48-2.65,2.95a3.48,3.48,0,0,0-1.74,1.08,2.77,2.77,0,0,0-.43,1.19c-.2,1-.54,1.94-.7,2.93a41.49,41.49,0,0,1-1.26,5.17,43.31,43.31,0,0,1-1.8,5,37.59,37.59,0,0,1-2.7,5.75,51.16,51.16,0,0,1-4.36,5.64c-1.69,2-2.54,3-3.57,4.09a63.19,63.19,0,0,1-5,4.41c-2,1.68-3,2.52-4.31,3.46-.67.49-1.46,1-7,4.44-3.61,2.22-4.21,2.55-4.69,2.82-2.62,1.45-4.7,2.4-5.53,2.77-2.77,1.23-4.94,2-6.54,2.52s-3.58,1.12-7.55,2.28c-1.51.44-3,.81-4.51,1.3-2.26.75-2.88,1.1-3.33.75-1-.75-.42-4.1,1.41-5.24C317.24,198.33,317.52,198.44,319.83,198Z"/>
    <path class="cls-12" d="M211.91,319.15c3.51,5.2,19.29-.41,20.3-.78,8.77-3.19,14.35-8.31,18-11.62,4.31-3.95,7-7.8,12.5-15.49,4.91-6.93,5.34-8.66,4.71-9.55-1.17-1.67-6.21-.82-9.9,1.41-5.88,3.56-4.7,8.41-9.88,15.19-.52.68-8,10.15-19.48,12.33-7.77,1.47-13.3-1.15-15.87,2.38A5.71,5.71,0,0,0,211.91,319.15Z"/>
    <path class="cls-13" d="M193.16,310.48c3.18-.51,8.43.07,10,3.6a5.68,5.68,0,0,1-.89,5.93c-3.95,4-16.32-.92-16.44-4.7C185.71,313,190,311,193.16,310.48Z"/>
    <path class="cls-12" d="M89,200.81c-6.19-7.49-3.23-22.14,2.33-32.31,2.39-4.38,6.65-8.8,15.15-17.65,11.51-12,8-8.65,13.21-14,2.54-2.61,7.54-7.85,10.23-7.5,1.88.25,3.7,2.39,4,4.57.52,4.11-4.71,6.34-13.39,14.53-4.7,4.43-7.73,8.17-13.8,15.64s-7.29,9.89-8.13,12.07c-1.51,3.93-3.66,9.49-1.69,15,.88,2.49,2.13,3.64,2.06,6.37s-1.33,6.19-3.71,6.79C92.51,205,89.56,201.43,89,200.81Z"/>
    <path class="cls-12" d="M313.25,90.72a21.75,21.75,0,0,1,7,5.83,22.76,22.76,0,0,1,3.1,5.87,32.54,32.54,0,0,1,2.16,8.48,30.39,30.39,0,0,1-.33,9.06,22.17,22.17,0,0,1-2.25,6.43c-1.13,2.12-2,3.62-3.49,3.87-1.69.28-3.27-1.14-4-2.15-1.47-2-1-4.47-.83-5.51.55-2.95,1.94-3.16,3-5.95a13.2,13.2,0,0,0-.72-10.79,20.87,20.87,0,0,0-4.16-4.74c-1.47-1.39-2.13-1.76-3.61-3.33-1.76-1.88-2.64-2.85-3-4.36s-.2-3.84,1.13-4.64S310.43,89.07,313.25,90.72Z"/>
  </g>
</svg>
