<svg id="Layer_1" data-name="Layer 1" xmlns="http://www.w3.org/2000/svg" width="310" height="60" viewBox="0 0 310 60">
  <defs>
    <style>
      .cls-1 {
        fill: #fff;
      }
    </style>
  </defs>
  <g>
    <g>
      <path d="M49.66,19.56l-4.54,0h-4.5c0,1.46,0,2.81,0,4.07s0,2.73,0,4.42q0,3.89,0,6.93c0,2,0,3.85,0,5.44H27.75c0-1.47,0-3.08,0-4.84s0-4.21,0-7.35c0-1.4,0-2.81,0-4.21s0-2.9,0-4.46H22.5l-3.8,0V9h31Z"/>
      <path d="M85.72,37.91,73,41.19q-1.38-2.2-3.15-5.12t-5.2-8.92l.21-.77a8.71,8.71,0,0,0,1.63-.54,4.42,4.42,0,0,0,1.6-1.1,4.64,4.64,0,0,0,1.07-1.65,5.65,5.65,0,0,0,.2-1.57,4,4,0,0,0-.46-1.85,2.94,2.94,0,0,0-1.25-1.31,5.82,5.82,0,0,0-1.33-.48,6.67,6.67,0,0,0-1.42-.13h-.65c0,.39,0,1.35,0,2.87s0,3.46,0,5.8q0,4.65,0,7.9c0,2.17,0,4.2,0,6.07H51.35c0-1.64,0-3.46,0-5.45s0-5.78,0-11.38c0-1.86,0-4.09,0-6.71s0-5.23,0-7.84c.86,0,2,0,3.46,0l4.11,0q5.42,0,8.83.16a28.61,28.61,0,0,1,6.27,1c3,.8,5.12,2,6.38,3.54a7.88,7.88,0,0,1,1.89,5,9.26,9.26,0,0,1-3.94,7.69v.16l2.77,4.3Q82.5,32.89,85.72,37.91Z"/>
      <path d="M117.35,11.68q-1,1.79-4.58,7.74t-6,10.28c0,2.25,0,4.14,0,5.65s0,3.2,0,5H93.89c0-1.47,0-2.93,0-4.39s0-3.51,0-6.16Q91.56,25.66,88.22,20T83.3,11.68L96,8.24l2.42,4.92q1.13,2.29,2.29,4.59h0q1.71-3.54,2.78-5.73c.71-1.46,1.31-2.72,1.81-3.78Z"/>
      <path d="M162.07,37.73l-12.9,3.46-.85-3.26c-.32-1.22-.57-2.15-.74-2.79h-8.64c-.09.38-.32,1.28-.68,2.71s-.66,2.54-.89,3.34l-12.5-3.46q.66-1.62,4.69-11.7t6.75-17h14.42q3.14,8,7,17.77T162.07,37.73ZM145.6,27.78c-.32-1.18-.7-2.62-1.13-4.31s-.82-3.18-1.17-4.49l-.14,0c-.33,1.27-.74,2.84-1.22,4.71s-.83,3.24-1.07,4.11v0h4.74Z"/>
      <path d="M193.31,23.89c0,1.27,0,2.6,0,4s0,2.69,0,3.87c0,1.36,0,2.48,0,3.37s0,2.63,0,5.2a23.52,23.52,0,0,1-3.11.26c-1.82.1-3.23.14-4.25.14a39.76,39.76,0,0,1-9.08-1,27.63,27.63,0,0,1-8.31-3.57,14.71,14.71,0,0,1-4.71-4.81,12.59,12.59,0,0,1-1.76-6.63,12.57,12.57,0,0,1,1.61-6.35,15.06,15.06,0,0,1,4.84-5A25.5,25.5,0,0,1,176.6,10,44.58,44.58,0,0,1,187.76,8.7l1.05,0h1l1.62,10.61h-2.25c-.59,0-1.67,0-3.22.12a23.65,23.65,0,0,0-4.42.63,10.15,10.15,0,0,0-4.55,2.2,4.61,4.61,0,0,0-1.66,3.52,5.39,5.39,0,0,0,.77,2.9,6.09,6.09,0,0,0,1.88,1.93,8.17,8.17,0,0,0,1.32.68,8.91,8.91,0,0,0,1.82.56v-2.5c0-1.33,0-3.16-.05-5.49Z"/>
      <path d="M230.58,37.73l-12.9,3.46-.85-3.26c-.32-1.22-.57-2.15-.74-2.79h-8.64c-.09.38-.32,1.28-.69,2.71s-.66,2.54-.88,3.34l-12.5-3.46q.66-1.62,4.69-11.7t6.75-17h14.41q3.15,8,7,17.77T230.58,37.73Zm-16.47-9.95c-.32-1.18-.7-2.62-1.13-4.31s-.83-3.18-1.18-4.49l-.14,0c-.33,1.27-.73,2.84-1.21,4.71s-.83,3.24-1.07,4.11v0h4.75Z"/>
      <path d="M245,40.39H232.12q0-2.76,0-6.75t0-10.08c0-1.86,0-4.09,0-6.71s0-5.23,0-7.84H245c0,2,0,4.31,0,6.88s0,5.13,0,7.67c0,4,0,7.09,0,9.26S245,37.52,245,40.39Z"/>
      <path d="M283.92,9q0,4.59,0,7.89t0,6q0,3.51,0,8.12t0,6.9L275,41.19q-4.43-5.65-8-9.76c-2.39-2.75-4-4.59-4.9-5.55l-.18.1q0,3.39,0,7.92c0,3,0,5.18,0,6.49H250.05q0-1.92,0-6.44t0-9.82c0-1.49,0-3.3,0-5.43s0-4.47-.05-7l9.38-3.44c1.25,1.46,2.83,3.28,4.74,5.44s4.5,5,7.75,8.57l.14-.07q0-2.76,0-6.23T272,9Z"/>
    </g>
    <g>
      <path class="cls-1" d="M55.85,19.65H51.3l-4.5,0c0,1.46,0,2.81,0,4.07s0,2.73,0,4.42q0,3.88,0,6.94c0,2,0,3.84,0,5.43H33.94c0-1.47,0-3.08,0-4.84s0-4.2,0-7.34c0-1.41,0-2.82,0-4.22s0-2.89,0-4.46l-5.25,0h-3.8V9.1h31Z"/>
      <path class="cls-1" d="M91.91,38,79.16,41.28q-1.38-2.2-3.15-5.12T70.8,27.24l.21-.77a8.26,8.26,0,0,0,1.63-.54,4.46,4.46,0,0,0,1.61-1.1,4.77,4.77,0,0,0,1.07-1.64,5.75,5.75,0,0,0,.2-1.57,4.12,4.12,0,0,0-.46-1.86,3,3,0,0,0-1.26-1.31A5.75,5.75,0,0,0,72.48,18a7.47,7.47,0,0,0-1.42-.13h-.65c0,.39,0,1.35,0,2.87s0,3.46,0,5.8q0,4.65,0,7.9t0,6.07H57.54c0-1.64,0-3.45,0-5.45s0-5.78,0-11.37q0-2.79,0-6.72t0-7.84l3.46,0c1.44,0,2.81,0,4.11,0,3.61,0,6.55.06,8.82.16a27.83,27.83,0,0,1,6.27,1q4.5,1.18,6.39,3.53a7.88,7.88,0,0,1,1.89,5,9.22,9.22,0,0,1-3.94,7.69v.16l2.77,4.3Z"/>
      <path class="cls-1" d="M123.54,11.77q-1,1.79-4.58,7.74t-6,10.29c0,2.25,0,4.13,0,5.64s0,3.2,0,5H100.08c0-1.47,0-2.93,0-4.39s0-3.51,0-6.15q-2.37-4.2-5.69-9.82t-4.93-8.35l12.66-3.44,2.41,4.92q1.13,2.29,2.3,4.59h.05c1.14-2.36,2.06-4.27,2.78-5.73s1.31-2.72,1.81-3.78Z"/>
      <path class="cls-1" d="M168.26,37.82l-12.9,3.46L154.51,38c-.32-1.22-.57-2.15-.74-2.79h-8.64c-.09.38-.32,1.28-.69,2.71s-.66,2.54-.88,3.34l-12.5-3.46c.44-1.07,2-5,4.69-11.7s4.94-12.39,6.75-17h14.41q3.15,8,7,17.77T168.26,37.82Zm-16.47-9.95c-.32-1.18-.7-2.62-1.13-4.3s-.83-3.19-1.18-4.5l-.14,0c-.33,1.27-.73,2.84-1.21,4.71s-.83,3.24-1.07,4.11v0h4.75Z"/>
      <path class="cls-1" d="M199.5,24c0,1.27,0,2.61,0,4s0,2.7,0,3.87c0,1.36,0,2.48,0,3.37s0,2.63,0,5.21a27.15,27.15,0,0,1-3.12.25c-1.81.1-3.22.15-4.24.15a39.74,39.74,0,0,1-9.08-1,27.63,27.63,0,0,1-8.31-3.57A14.71,14.71,0,0,1,170,31.48a12.54,12.54,0,0,1-1.76-6.63,12.57,12.57,0,0,1,1.61-6.35,15.06,15.06,0,0,1,4.84-5A25.63,25.63,0,0,1,182.79,10,44.61,44.61,0,0,1,194,8.8h2l1.62,10.62h-2.25c-.6,0-1.67,0-3.22.11a22.85,22.85,0,0,0-4.42.64,10,10,0,0,0-4.55,2.19,4.63,4.63,0,0,0-1.66,3.53,5.29,5.29,0,0,0,.77,2.89,6.17,6.17,0,0,0,1.87,1.93,7.59,7.59,0,0,0,1.33.68,9.61,9.61,0,0,0,1.82.57V29.47c0-1.33,0-3.16-.05-5.49Z"/>
      <path class="cls-1" d="M236.77,37.82l-12.9,3.46L223,38l-.73-2.79h-8.64c-.09.38-.32,1.28-.69,2.71s-.66,2.54-.88,3.34l-12.5-3.46c.44-1.07,2-5,4.69-11.7s4.94-12.39,6.75-17h14.41q3.15,8,7,17.77T236.77,37.82ZM220.3,27.87c-.32-1.18-.7-2.62-1.14-4.3s-.82-3.19-1.17-4.5l-.14,0c-.33,1.27-.73,2.84-1.21,4.71s-.84,3.24-1.07,4.11v0h4.75Z"/>
      <path class="cls-1" d="M251.18,40.48H238.31q0-2.76,0-6.75t0-10.07q0-2.79,0-6.72t0-7.84h12.87q0,3,0,6.88t0,7.68q0,6,0,9.25T251.18,40.48Z"/>
      <path class="cls-1" d="M290.11,9.1q0,4.59,0,7.89c0,2.19,0,4.2,0,6q0,3.51,0,8.12t0,6.9l-8.88,3.26q-4.44-5.66-8-9.76T268.31,26l-.19.09q0,3.41,0,7.92t0,6.49H256.24q0-1.92,0-6.44t0-9.82c0-1.49,0-3.29,0-5.43s0-4.47,0-7l9.37-3.44c1.25,1.47,2.84,3.28,4.75,5.45s4.5,5,7.75,8.56l.14-.07q0-2.76,0-6.23c0-2.31,0-4.63,0-6.94Z"/>
    </g>
  </g>
</svg>
