<svg id="Layer_1" data-name="Layer 1" xmlns="http://www.w3.org/2000/svg" width="310" height="60" viewBox="0 0 310 60">
  <defs>
    <style>
      .cls-1 {
        fill: #fff;
      }
    </style>
  </defs>
  <g>
    <g>
      <path d="M36.27,21.91a10.19,10.19,0,0,1-1.72,6A13.24,13.24,0,0,1,29.77,32a18.59,18.59,0,0,1-5.38,1.73,33.7,33.7,0,0,1-5.61.59l0,7.27H5.94c0-2.06,0-4.28,0-6.63s0-5.76,0-10.2c0-1.86,0-4.1,0-6.71s0-5.24,0-7.84c.86,0,1.92,0,3.2,0s2.56,0,3.85,0a92.57,92.57,0,0,1,9.38.34,24.8,24.8,0,0,1,5.74,1.3,13.27,13.27,0,0,1,6,3.93A9.35,9.35,0,0,1,36.27,21.91ZM23.14,23a4.42,4.42,0,0,0-.41-1.86,3.32,3.32,0,0,0-1.23-1.42,3.68,3.68,0,0,0-1.45-.58,9,9,0,0,0-1.46-.12H18.1v8.44h.52a6.49,6.49,0,0,0,1.4-.2,3.79,3.79,0,0,0,1.29-.51,4.19,4.19,0,0,0,1.37-1.38A4.75,4.75,0,0,0,23.14,23Z"/>
      <path d="M66,41.62H59.19l-7.64,0-5.64,0H39.57q0-3.79,0-8.9t0-7.77q0-5.5,0-9.45c0-2.64,0-4.39,0-5.26H52.44c0,1.73,0,3.56,0,5.48s0,4.1,0,6.54c0,1.51,0,3.21,0,5.07s0,3.12,0,3.74H66Z"/>
      <path d="M102.41,39l-12.9,3.46-.85-3.26c-.33-1.22-.57-2.15-.74-2.79H79.28c-.09.37-.32,1.28-.69,2.71s-.66,2.54-.88,3.34L65.21,39q.66-1.62,4.69-11.7t6.75-17H91.06q3.15,8,7,17.77T102.41,39ZM85.94,29c-.32-1.19-.7-2.62-1.14-4.31s-.82-3.18-1.17-4.49l-.14,0c-.33,1.27-.73,2.83-1.21,4.7s-.83,3.24-1.07,4.12v0H86Z"/>
      <path d="M134.49,12.91q-1,1.77-4.58,7.73t-6,10.29c0,2.25,0,4.13,0,5.65s0,3.19,0,5H111c0-1.47,0-2.94,0-4.4s0-3.51,0-6.15q-2.35-4.2-5.69-9.82t-4.92-8.34l12.65-3.45,2.42,4.92q1.13,2.31,2.29,4.6h0q1.71-3.54,2.78-5.73c.71-1.46,1.32-2.73,1.82-3.79Z"/>
      <path d="M179.21,39l-12.9,3.46-.85-3.26c-.32-1.22-.57-2.15-.74-2.79h-8.64c-.09.37-.32,1.28-.68,2.71s-.66,2.54-.89,3.34L142,39c.43-1.08,2-5,4.68-11.7s4.94-12.39,6.75-17h14.42q3.13,8,7,17.77ZM162.75,29c-.33-1.19-.71-2.62-1.14-4.31s-.82-3.18-1.17-4.49l-.14,0c-.33,1.27-.74,2.83-1.22,4.7S158.25,28.13,158,29v0h4.74Z"/>
      <path d="M210.45,25.12c0,1.26,0,2.6,0,4s0,2.69,0,3.86c0,1.36,0,2.49,0,3.38s0,2.62,0,5.2a23.52,23.52,0,0,1-3.11.26c-1.82.09-3.23.14-4.25.14A39.82,39.82,0,0,1,194,41a27.42,27.42,0,0,1-8.31-3.58,14.59,14.59,0,0,1-4.71-4.8A12.59,12.59,0,0,1,179.23,26a12.63,12.63,0,0,1,1.61-6.36,15.15,15.15,0,0,1,4.84-5,26,26,0,0,1,8.06-3.47A44.61,44.61,0,0,1,204.9,9.93h2l1.62,10.62h-2.25c-.59,0-1.67,0-3.22.12a23.65,23.65,0,0,0-4.42.63,10.14,10.14,0,0,0-4.55,2.19A4.64,4.64,0,0,0,192.43,27a5.35,5.35,0,0,0,.77,2.89,6,6,0,0,0,1.88,1.94,8.17,8.17,0,0,0,1.32.68,8.91,8.91,0,0,0,1.82.56V30.6c0-1.33,0-3.15-.05-5.48Z"/>
      <path d="M247.72,39l-12.9,3.46L234,39.16c-.32-1.22-.57-2.15-.74-2.79h-8.64c-.09.37-.32,1.28-.69,2.71s-.66,2.54-.88,3.34L210.52,39q.66-1.62,4.69-11.7t6.75-17h14.41q3.15,8,7,17.77ZM231.25,29c-.32-1.19-.7-2.62-1.13-4.31L229,20.21l-.15,0c-.33,1.27-.73,2.83-1.21,4.7s-.83,3.24-1.07,4.12v0h4.74Z"/>
      <path d="M262.13,41.62H249.27c0-1.85,0-4.1,0-6.75s0-6,0-10.08q0-2.79,0-6.71c0-2.62,0-5.24,0-7.84h12.86q0,3,0,6.87c0,2.57,0,5.13,0,7.68,0,4,0,7.09,0,9.26S262.13,38.74,262.13,41.62Z"/>
      <path d="M301.06,10.24q0,4.59,0,7.88c0,2.2,0,4.2,0,6,0,2.35,0,5.05,0,8.13s0,5.37,0,6.9l-8.88,3.26q-4.43-5.66-8-9.77t-4.89-5.54l-.19.09q0,3.4,0,7.93c0,3,0,5.18,0,6.49H267.2c0-1.28,0-3.43,0-6.45s0-6.29,0-9.82c0-1.48,0-3.29,0-5.42s0-4.48-.05-7l9.38-3.45q1.88,2.2,4.74,5.45T289,23.48l.14-.07c0-1.85,0-3.92,0-6.24s0-4.62,0-6.93Z"/>
    </g>
    <g>
      <path class="cls-1" d="M41.07,21.5a10.32,10.32,0,0,1-1.71,6,13.43,13.43,0,0,1-4.78,4.09,18.7,18.7,0,0,1-5.38,1.72,34.92,34.92,0,0,1-5.61.6l0,7.26H10.75c0-2.06,0-4.27,0-6.63s0-5.76,0-10.19q0-2.79,0-6.72c0-2.62,0-5.23,0-7.84l3.19,0c1.28,0,2.56,0,3.86,0a92.34,92.34,0,0,1,9.37.34,25.29,25.29,0,0,1,5.75,1.3,13.37,13.37,0,0,1,6,3.94A9.32,9.32,0,0,1,41.07,21.5ZM28,22.63a4.44,4.44,0,0,0-.41-1.87,3.49,3.49,0,0,0-1.23-1.41,3.75,3.75,0,0,0-1.46-.59,8.78,8.78,0,0,0-1.45-.12h-.49v8.44h.51a6.49,6.49,0,0,0,1.41-.2,4,4,0,0,0,1.29-.5A4.3,4.3,0,0,0,27.49,25,4.68,4.68,0,0,0,28,22.63Z"/>
      <path class="cls-1" d="M70.77,41.21H44.38q0-3.8,0-8.89c0-3.4,0-6,0-7.77,0-3.67,0-6.83,0-9.46s0-4.38,0-5.26H57.25c0,1.73,0,3.56,0,5.48s0,4.11,0,6.54c0,1.52,0,3.21,0,5.08s0,3.11,0,3.74H70.77Z"/>
      <path class="cls-1" d="M107.21,38.55,94.32,42l-.86-3.26L92.73,36H84.09c-.1.38-.32,1.28-.69,2.71s-.66,2.54-.88,3.34L70,38.55c.44-1.07,2-5,4.69-11.7s4.93-12.39,6.75-17H95.87q3.13,8,7,17.77ZM90.75,28.6c-.33-1.18-.71-2.62-1.14-4.3s-.82-3.19-1.17-4.5l-.14,0c-.33,1.27-.73,2.84-1.21,4.71S86.25,27.73,86,28.6v0h4.75Z"/>
      <path class="cls-1" d="M139.3,12.5q-1,1.79-4.58,7.74t-6,10.29c0,2.25,0,4.13,0,5.64s0,3.2,0,5H115.84c0-1.47,0-2.93,0-4.39s0-3.51,0-6.15q-2.37-4.2-5.69-9.82t-4.92-8.35L117.9,9.06,120.32,14q1.13,2.29,2.29,4.59h0q1.71-3.54,2.78-5.73c.71-1.46,1.31-2.72,1.81-3.78Z"/>
      <path class="cls-1" d="M184,38.55,171.12,42l-.85-3.26c-.32-1.22-.57-2.15-.74-2.79h-8.64c-.09.38-.32,1.28-.69,2.71s-.66,2.54-.88,3.34l-12.5-3.46c.44-1.07,2-5,4.69-11.7s4.94-12.39,6.75-17h14.41q3.15,8,7,17.77T184,38.55ZM167.55,28.6c-.32-1.18-.7-2.62-1.13-4.3l-1.17-4.5-.15,0c-.33,1.27-.73,2.84-1.21,4.71s-.83,3.24-1.07,4.11v0h4.74Z"/>
      <path class="cls-1" d="M215.26,24.71c0,1.27,0,2.6,0,4s0,2.7,0,3.87c0,1.36,0,2.48,0,3.37s0,2.63,0,5.21a26.89,26.89,0,0,1-3.12.25c-1.81.1-3.22.14-4.24.14a39.76,39.76,0,0,1-9.08-1A27.63,27.63,0,0,1,190.51,37a14.71,14.71,0,0,1-4.71-4.81A12.56,12.56,0,0,1,184,25.58a12.57,12.57,0,0,1,1.61-6.35,15.06,15.06,0,0,1,4.84-5,25.63,25.63,0,0,1,8.06-3.47,44.61,44.61,0,0,1,11.16-1.24h2l1.62,10.62h-2.25c-.59,0-1.67,0-3.22.11a22.85,22.85,0,0,0-4.42.64,10,10,0,0,0-4.55,2.19,4.63,4.63,0,0,0-1.66,3.53,5.38,5.38,0,0,0,.77,2.89,6.09,6.09,0,0,0,1.88,1.93,7.09,7.09,0,0,0,1.32.68,9.61,9.61,0,0,0,1.82.57V30.2c0-1.33,0-3.16-.05-5.49Z"/>
      <path class="cls-1" d="M252.53,38.55,239.63,42l-.85-3.26c-.33-1.22-.57-2.15-.74-2.79H229.4c-.09.38-.32,1.28-.69,2.71s-.66,2.54-.88,3.34l-12.5-3.46c.44-1.07,2-5,4.69-11.7s4.94-12.39,6.75-17h14.41q3.15,8,7,17.77T252.53,38.55ZM236.06,28.6c-.32-1.18-.7-2.62-1.14-4.3s-.82-3.19-1.17-4.5l-.14,0c-.33,1.27-.73,2.84-1.21,4.71s-.83,3.24-1.07,4.11v0h4.75Z"/>
      <path class="cls-1" d="M266.94,41.21H254.07q0-2.76,0-6.75t0-10.07q0-2.79,0-6.72t0-7.84h12.87q0,3,0,6.88t0,7.68q0,6,0,9.25C266.93,35.81,266.94,38.34,266.94,41.21Z"/>
      <path class="cls-1" d="M305.87,9.83q0,4.59,0,7.89c0,2.19,0,4.2,0,6q0,3.51,0,8.12t0,6.9L297,42q-4.44-5.65-8-9.76t-4.9-5.54l-.18.09c0,2.26,0,4.91,0,7.92s0,5.18,0,6.49H272q0-1.92,0-6.44t0-9.82c0-1.49,0-3.3,0-5.43s0-4.47,0-7l9.37-3.44c1.25,1.47,2.84,3.28,4.75,5.45s4.5,5,7.75,8.56L294,23q0-2.76,0-6.23c0-2.31,0-4.63,0-6.94Z"/>
    </g>
  </g>
</svg>
