<svg id="Layer_1" data-name="Layer 1" xmlns="http://www.w3.org/2000/svg" width="320" height="320" viewBox="0 0 320 320">
  <defs>
    <style>
      .cls-1 {
        fill: #e6e6e6;
      }

      .cls-2 {
        fill: #fff;
      }

      .cls-3 {
        opacity: 0.7;
      }

      .cls-4 {
        fill: lime;
      }
    </style>
  </defs>
  <g>
    <rect class="cls-1" x="1.22" y="80.37" width="317.55" height="159.26" rx="79.63" transform="translate(56.66 -41.3) rotate(17.83)"/>
    <rect class="cls-2" x="16.19" y="87.48" width="300.21" height="150.56" rx="75.28" transform="translate(57.81 -43.1) rotate(17.83)"/>
  </g>
  <g class="cls-3">
    <path d="M122.73,140a13.2,13.2,0,0,1-5.48,7.13A14.9,14.9,0,0,1,108,149.5a30.88,30.88,0,0,1-4.78-.66,56.45,56.45,0,0,1-5.55-1.52l-4.1,12.94-5-1.62c.42-1.21,1.18-3.47,2.28-6.76s2.77-8.41,5-15.33q1-3.3,2.57-8.1t3.3-10.7c.88.26,1.75.53,2.59.8l2.06.66a54.06,54.06,0,0,1,8.77,3.56,18,18,0,0,1,5.5,4.3,12.25,12.25,0,0,1,2.78,5.9A14.51,14.51,0,0,1,122.73,140Zm-5.19-1.67a10.09,10.09,0,0,0,.28-5.82,10,10,0,0,0-3.27-4.91,13.66,13.66,0,0,0-3.65-2.28c-1.38-.59-2.83-1.12-4.33-1.61l-.55-.17-.58-.19q-.12.33-1.54,4.56t-2.22,6.7q-.72,2.27-1.7,5.35c-.65,2.06-1,3.23-1.12,3.52l.64.2.58.19a38.86,38.86,0,0,0,4.44,1.12,14.71,14.71,0,0,0,4.28.27,10.45,10.45,0,0,0,5.48-2A9.81,9.81,0,0,0,117.54,138.29Z"/>
    <path d="M148.91,178l-3.85-1.28-8.93-2.9-6.8-2.15q-3.24-1-5.46-1.73,1.75-5.22,3.53-10.6t3.45-10.57q2.79-8.67,4.19-13.25c.93-3,1.59-5.18,2-6.41l5,1.62q-1.33,3.92-3,9.07t-2.75,8.44q-2.58,8-4.27,13.4c-1.14,3.59-1.73,5.49-1.8,5.69l3,1c1.18.39,2.24.74,3.2,1q5.47,1.77,9.53,3l4.34,1.34Z"/>
    <path d="M192.08,190.14l-5.54.93c0-.25-.18-2-.5-5.18s-.76-7.33-1.34-12.39l-18.09-5.82q-5.51,6.09-8.51,9.43c-2,2.23-3.12,3.48-3.34,3.75l-3.38-3.53q1.31-1.34,11.06-11.89t20.34-22.25l4,1.28q1.71,15.65,3.48,30.36T192.08,190.14ZM184.23,169c-.28-2.83-.59-5.79-.91-8.89s-.68-6.33-1-9.71h-.13q-2.61,2.87-6.36,7.06t-6.16,6.86l0,0,14.63,4.71Z"/>
    <path d="M240.35,164.54l-8.49,5.66q-8.16,5.43-13.14,8.78c-1.23,3.67-2.46,7.54-3.72,11.61s-2.06,6.72-2.43,7.95l-5-1.63q.65-1.8,2.7-8t3.61-11.12q-2.15-6.12-5.4-14.87t-3.51-9.4l5-1.76c.15.43,1.07,3.08,2.74,8s3.37,9.73,5.11,14.55l.06,0q6.09-4.14,12.78-8.74t7-4.86Z"/>
  </g>
  <g>
    <path class="cls-4" d="M125.28,142.79a13.26,13.26,0,0,1-5.48,7.14,15,15,0,0,1-9.27,2.41,30.88,30.88,0,0,1-4.78-.66c-1.69-.37-3.54-.87-5.55-1.52L96.1,163.1l-5-1.62c.42-1.22,1.18-3.47,2.28-6.77s2.77-8.4,5-15.33c.7-2.19,1.56-4.9,2.57-8.1s2.11-6.77,3.3-10.7c.88.27,1.75.53,2.59.8l2.06.66a54,54,0,0,1,8.77,3.57,18,18,0,0,1,5.5,4.29,12.3,12.3,0,0,1,2.78,5.9A14.49,14.49,0,0,1,125.28,142.79Zm-5.19-1.67a9.38,9.38,0,0,0-3-10.73,13.63,13.63,0,0,0-3.65-2.27c-1.38-.59-2.83-1.13-4.33-1.61l-.55-.18-.58-.19-1.54,4.57c-1,2.81-1.69,5-2.22,6.7q-.72,2.25-1.7,5.34c-.65,2.06-1,3.24-1.12,3.52l.65.21.58.18a37.78,37.78,0,0,0,4.44,1.13,14.26,14.26,0,0,0,4.27.26,10.45,10.45,0,0,0,5.48-2A9.75,9.75,0,0,0,120.09,141.12Z"/>
    <path class="cls-4" d="M151.46,180.83l-3.85-1.27q-3.5-1.16-8.92-2.9-3.58-1.16-6.81-2.16c-2.15-.67-4-1.24-5.46-1.72q1.76-5.24,3.53-10.61t3.45-10.57q2.79-8.67,4.19-13.24c.93-3.05,1.59-5.18,2-6.41l5,1.62q-1.34,3.92-3,9.06c-1.12,3.43-2,6.25-2.75,8.44q-2.58,8-4.27,13.41c-1.13,3.59-1.73,5.48-1.8,5.69.84.26,1.84.59,3,1l3.2,1q5.47,1.76,9.53,3l4.34,1.35Z"/>
    <path class="cls-4" d="M194.63,193l-5.54.93c0-.25-.18-2-.49-5.18s-.77-7.33-1.35-12.4l-18.09-5.81q-5.5,6.07-8.51,9.43c-2,2.23-3.12,3.48-3.34,3.74l-3.38-3.53q1.31-1.33,11.06-11.89T185.33,146l4,1.28q1.71,15.63,3.48,30.36T194.63,193Zm-7.85-21.11c-.28-2.83-.58-5.8-.91-8.89s-.68-6.34-1.05-9.71l-.13,0q-2.61,2.87-6.36,7.07t-6.16,6.85l0,0,14.63,4.7Z"/>
    <path class="cls-4" d="M242.9,167.37,234.41,173q-8.16,5.44-13.14,8.79c-1.23,3.67-2.46,7.54-3.72,11.61s-2.06,6.71-2.43,7.94l-5-1.62q.64-1.81,2.7-8t3.61-11.12q-2.14-6.12-5.4-14.86t-3.51-9.4l5-1.77c.15.43,1.07,3.09,2.74,8s3.37,9.72,5.11,14.55l.06,0q6.09-4.14,12.78-8.75l7.05-4.86Z"/>
  </g>
</svg>
