<svg xmlns="http://www.w3.org/2000/svg" width="70" height="70" viewBox="0 0 70 70">
  <defs>
    <style>
      .cls-1 {
        fill: #25b527;
      }

      .cls-2 {
        fill: #fff;
      }
    </style>
  </defs>
  <g id="Layer_3" data-name="Layer 3">
    <g>
      <path class="cls-1" d="M57.55,34.79c1.22-.65,2.16-1.68,2.1-2.3a4.15,4.15,0,0,0-2.73-2.55,5.18,5.18,0,0,1-3.49-3c-.61-1.49-2.53-5.92-2-7.18s.59-2.6.19-3a4,4,0,0,0-3.57,0,5.33,5.33,0,0,1-4.7-.1l-3-1.11a5.59,5.59,0,0,1-3.65-3.08c-.41-1.27-1.17-2.33-1.7-2.36H34c-.52,0-1.28,1.09-1.7,2.36a5.59,5.59,0,0,1-3.65,3.08l-3,1.11a5.35,5.35,0,0,1-4.71.1c-1.12-.71-2.39-1-2.81-.64a4.32,4.32,0,0,0-.56,3.63,5.64,5.64,0,0,1-.69,4.67c-.89,1.31-3.51,5.36-4.82,5.54s-2.47.83-2.57,1.44a4.74,4.74,0,0,0,1.94,3.41A5.54,5.54,0,0,1,14,38.58c.17,1.44.58,5.77-.31,6.76s-1.34,2.28-1,2.89a4.91,4.91,0,0,0,3.82,1.59,5.17,5.17,0,0,1,4.15,1.09c.95.9,3.75,3.87,3.7,5.21s.47,2.67,1.16,2.94,3.25,0,4.09-1.11a4.63,4.63,0,0,1,3.74-1.69h2.3A4.65,4.65,0,0,1,39.41,58c.84,1.07,2.11,1.78,2.82,1.56s2.48-2,2.43-3.39a4.82,4.82,0,0,1,1.87-3.76c1.08-.72,4.63-2.83,6-2.54s2.76,0,3.15-.52.56-3-.33-4a4.84,4.84,0,0,1-.83-4.25C54.93,39.75,56.34,35.43,57.55,34.79Z"/>
      <circle class="cls-2" cx="34.51" cy="35.41" r="12.41"/>
    </g>
  </g>
</svg>
