<svg xmlns="http://www.w3.org/2000/svg" xmlns:xlink="http://www.w3.org/1999/xlink" width="1920.5" height="1080" viewBox="0 0 1920.5 1080">
  <defs>
    <style>
      .cls-1 {
        font-size: 91px;
      }

      .cls-1, .cls-5, .cls-7 {
        font-family: NeusaNextStd-Light, Neusa Next Std;
        font-weight: 300;
      }

      .cls-2 {
        letter-spacing: -0.03em;
      }

      .cls-3 {
        letter-spacing: -0.02em;
      }

      .cls-4, .cls-6, .cls-8 {
        fill: #fff;
      }

      .cls-5 {
        font-size: 95px;
      }

      .cls-6 {
        letter-spacing: 0em;
      }

      .cls-7 {
        font-size: 35px;
        stroke: #000;
        stroke-miterlimit: 10;
      }

      .cls-8 {
        opacity: 0.19;
      }
    </style>
  </defs>
  <g id="Layer_1" data-name="Layer 1">
    <image width="1300" height="975" transform="scale(1.48 1.11)" xlink:href="photo-1568528365195-a0da42409d6a.jpeg"/>
  </g>
  <g id="Layer_2" data-name="Layer 2">
    <image width="5184" height="3456" transform="translate(650 116.5) scale(0.25)" xlink:href="IMG_3518.jpg"/>
    <text class="cls-1" transform="translate(302.31 272.21)"><tspan class="cls-2">P</tspan><tspan x="54.78" y="0">ort</tspan><tspan class="cls-3" x="165.25" y="0">f</tspan><tspan x="191.64" y="0">olio </tspan><tspan class="cls-4" x="352.34" y="0">eksamen</tspan></text>
    <text/>    <text class="cls-5" transform="translate(352.69 395.89)">KEA 20<tspan class="cls-6" x="302.66" y="0">2</tspan><tspan class="cls-4" x="358.9" y="0">1</tspan></text>
    <text/>    <text class="cls-7" transform="translate(634.37 743.77) rotate(173.94)">A</text>
    <text class="cls-7" transform="translate(613.75 745.94) rotate(-177.88)">n</text>
    <text class="cls-7" transform="translate(593.94 745.22) rotate(-169.84)">n</text>
    <text class="cls-7" transform="translate(574.43 741.68) rotate(-162.03)">e</text>
    <text class="cls-7" transform="translate(556.75 735.76) rotate(-155.78)">-</text>
    <text class="cls-7" transform="translate(545.64 731.07) rotate(-149.05)">S</text>
    <text class="cls-7" transform="matrix(-0.78, -0.63, 0.63, -0.78, 527.36, 720.02)">o</text>
    <text class="cls-7" transform="translate(512.81 707.98) rotate(-135.04)">f</text>
    <text class="cls-7" transform="matrix(-0.66, -0.75, 0.75, -0.66, 505.12, 700.21)">i</text>
    <text class="cls-7" transform="translate(499.75 694.47) rotate(-125.76)">e</text>
    <text class="cls-7" transform="matrix(-0.5, -0.86, 0.86, -0.5, 489.02, 679.14)"> </text>
    <text class="cls-7" transform="translate(484.42 672.01) rotate(-113.94)">Ø</text>
    <text class="cls-7" transform="translate(475.48 651.44) rotate(-105.96)">s</text>
    <text class="cls-7" transform="translate(470.85 634.69) rotate(-100.19)">t</text>
    <text class="cls-7" transform="translate(468.66 623.6) rotate(-94.16)">e</text>
    <text class="cls-7" transform="translate(467.48 604.99) rotate(-87.9)">r</text>
    <text class="cls-7" transform="translate(467.67 593.37) rotate(-81.74)">g</text>
    <text class="cls-7" transform="translate(470.43 574.28) rotate(-73.89)">a</text>
    <text class="cls-7" transform="translate(475.78 555.72) rotate(-66.04)">a</text>
    <text class="cls-7" transform="translate(483.85 538.06) rotate(-59.66)">r</text>
    <text class="cls-7" transform="matrix(0.59, -0.8, 0.8, 0.59, 489.55, 527.88)">d</text>
    <text class="cls-7" transform="translate(501.32 512.36) rotate(-47.94)"> </text>
    <text class="cls-7" transform="matrix(0.75, -0.67, 0.67, 0.75, 506.73, 505.82)">P</text>
    <text class="cls-7" transform="matrix(0.83, -0.56, 0.56, 0.83, 522.37, 491.92)">e</text>
    <text class="cls-7" transform="translate(537.95 481.69) rotate(-27.83)">t</text>
    <text class="cls-7" transform="translate(547.86 476.24) rotate(-21.78)">e</text>
    <text class="cls-7" transform="translate(565.22 469.49) rotate(-15.55)">r</text>
    <text class="cls-7" transform="translate(577.08 466.05) rotate(-9.57)">s</text>
    <text class="cls-7" transform="translate(594.09 463.13) rotate(-2.37)">e</text>
    <text class="cls-7" transform="translate(612.58 462.31) rotate(5.39)">n</text>
    <text class="cls-7" transform="translate(632.46 464.48) rotate(11.19)"> </text>
    <circle class="cls-8" cx="609.13" cy="604.14" r="123"/>
  </g>
</svg>
