<svg xmlns="http://www.w3.org/2000/svg" width="382" height="370" viewBox="0 0 382 370">
  <defs>
    <style>
      .cls-1 {
        font-size: 35px;
        fill: #faec21;
        font-family: NeusaNextStd-Light, Neusa Next Std;
        font-weight: 300;
      }

      .cls-2 {
        fill: #fff;
        opacity: 0.19;
      }
    </style>
  </defs>
  <g id="Layer_2" data-name="Layer 2">
    <g>
      <text class="cls-1" transform="translate(235.36 323.76) rotate(173.94)">A</text>
      <text class="cls-1" transform="translate(214.74 325.92) rotate(-177.88)">n</text>
      <text class="cls-1" transform="translate(194.93 325.2) rotate(-169.84)">n</text>
      <text class="cls-1" transform="translate(175.42 321.67) rotate(-162.03)">e</text>
      <text class="cls-1" transform="matrix(-0.91, -0.41, 0.41, -0.91, 157.74, 315.75)">-</text>
      <text class="cls-1" transform="matrix(-0.86, -0.51, 0.51, -0.86, 146.63, 311.05)">S</text>
      <text class="cls-1" transform="translate(128.35 300.01) rotate(-141.04)">o</text>
      <text class="cls-1" transform="matrix(-0.71, -0.71, 0.71, -0.71, 113.8, 287.97)">f</text>
      <text class="cls-1" transform="matrix(-0.66, -0.75, 0.75, -0.66, 106.11, 280.2)">i</text>
      <text class="cls-1" transform="translate(100.74 274.46) rotate(-125.76)">e</text>
      <text class="cls-1" transform="matrix(-0.5, -0.86, 0.86, -0.5, 90.01, 259.13)"> </text>
      <text class="cls-1" transform="translate(85.41 252) rotate(-113.94)">Ø</text>
      <text class="cls-1" transform="matrix(-0.27, -0.96, 0.96, -0.27, 76.47, 231.42)">s</text>
      <text class="cls-1" transform="translate(71.84 214.65) rotate(-100.18)">t</text>
      <text class="cls-1" transform="translate(69.65 203.59) rotate(-94.16)">e</text>
      <text class="cls-1" transform="translate(68.47 184.98) rotate(-87.9)">r</text>
      <text class="cls-1" transform="matrix(0.14, -0.99, 0.99, 0.14, 68.66, 173.36)">g</text>
      <text class="cls-1" transform="matrix(0.28, -0.96, 0.96, 0.28, 71.42, 154.27)">a</text>
      <text class="cls-1" transform="matrix(0.41, -0.91, 0.91, 0.41, 76.77, 135.71)">a</text>
      <text class="cls-1" transform="translate(84.85 118.03) rotate(-59.65)">r</text>
      <text class="cls-1" transform="translate(90.54 107.87) rotate(-53.6)">d</text>
      <text class="cls-1" transform="translate(102.31 92.35) rotate(-47.94)"> </text>
      <text class="cls-1" transform="translate(107.72 85.81) rotate(-41.72)">P</text>
      <text class="cls-1" transform="matrix(0.83, -0.56, 0.56, 0.83, 123.36, 71.91)">e</text>
      <text class="cls-1" transform="translate(138.94 61.68) rotate(-27.83)">t</text>
      <text class="cls-1" transform="translate(148.85 56.23) rotate(-21.78)">e</text>
      <text class="cls-1" transform="translate(166.21 49.48) rotate(-15.55)">r</text>
      <text class="cls-1" transform="matrix(0.99, -0.17, 0.17, 0.99, 178.07, 46.04)">s</text>
      <text class="cls-1" transform="translate(195.08 43.12) rotate(-2.37)">e</text>
      <text class="cls-1" transform="translate(213.56 42.3) rotate(5.39)">n</text>
      <text class="cls-1" transform="translate(233.45 44.47) rotate(11.19)"> </text>
      <circle class="cls-2" cx="210.14" cy="184.1" r="123"/>
    </g>
  </g>
</svg>
